<svg width="16" height="16" viewBox="0 0 16 16" fill="none" xmlns="http://www.w3.org/2000/svg">
<path d="M12.5604 0.755001L15.2304 3.44C15.3104 3.52 15.3504 3.6125 15.3504 3.7175C15.3504 3.8225 15.3104 3.91 15.2304 3.98L11.2254 8L15.2304 12.02C15.3104 12.09 15.3504 12.1775 15.3504 12.2825C15.3504 12.3875 15.3104 12.48 15.2304 12.56L12.5604 15.23C12.4804 15.31 12.3879 15.35 12.2829 15.35C12.1779 15.35 12.0904 15.31 12.0204 15.23L8.00039 11.225L3.98039 15.23C3.91039 15.31 3.82289 15.35 3.71789 15.35C3.61289 15.35 3.52039 15.31 3.44039 15.23L0.770391 12.56C0.690391 12.48 0.650391 12.3875 0.650391 12.2825C0.650391 12.1775 0.690391 12.09 0.770391 12.02L4.77539 8L0.770391 3.98C0.690391 3.91 0.650391 3.8225 0.650391 3.7175C0.650391 3.6125 0.690391 3.52 0.770391 3.44L3.44039 0.77C3.52039 0.690001 3.61289 0.650001 3.71789 0.650001C3.82289 0.650001 3.91039 0.690001 3.98039 0.77L8.00039 4.775L12.0204 0.755001C12.0904 0.685 12.1779 0.650001 12.2829 0.650001C12.3879 0.650001 12.4804 0.685 12.5604 0.755001Z" fill="white"/>
</svg>
