<svg width="40" height="40" viewBox="0 0 40 40" fill="none" xmlns="http://www.w3.org/2000/svg">
<rect width="40" height="40" rx="20" fill="#29353A" fill-opacity="0.8"/>
<path d="M24.5604 12.755L27.2304 15.44C27.3104 15.52 27.3504 15.6125 27.3504 15.7175C27.3504 15.8225 27.3104 15.91 27.2304 15.98L23.2254 20L27.2304 24.02C27.3104 24.09 27.3504 24.1775 27.3504 24.2825C27.3504 24.3875 27.3104 24.48 27.2304 24.56L24.5604 27.23C24.4804 27.31 24.3879 27.35 24.2829 27.35C24.1779 27.35 24.0904 27.31 24.0204 27.23L20.0004 23.225L15.9804 27.23C15.9104 27.31 15.8229 27.35 15.7179 27.35C15.6129 27.35 15.5204 27.31 15.4404 27.23L12.7704 24.56C12.6904 24.48 12.6504 24.3875 12.6504 24.2825C12.6504 24.1775 12.6904 24.09 12.7704 24.02L16.7754 20L12.7704 15.98C12.6904 15.91 12.6504 15.8225 12.6504 15.7175C12.6504 15.6125 12.6904 15.52 12.7704 15.44L15.4404 12.77C15.5204 12.69 15.6129 12.65 15.7179 12.65C15.8229 12.65 15.9104 12.69 15.9804 12.77L20.0004 16.775L24.0204 12.755C24.0904 12.685 24.1779 12.65 24.2829 12.65C24.3879 12.65 24.4804 12.685 24.5604 12.755Z" fill="white"/>
</svg>
