<svg width="116" height="24" viewBox="0 0 116 24" fill="none" xmlns="http://www.w3.org/2000/svg">
<g clip-path="url(#clip0_1265_6038)">
<path d="M29.6796 0.476562H33.5496L36.5104 17.2239H33.6534L33.134 13.8984V13.9462H29.8874L29.368 17.2239H26.7188L29.6796 0.476562ZM32.7964 11.6744L31.5237 3.39638H31.4717L30.2251 11.6744H32.7964Z" fill="#1D4D57"/>
<path d="M37.8867 0.476562H42.2501C45.1071 0.476562 46.5096 1.93597 46.5096 4.61555V13.0849C46.5096 15.7645 45.1071 17.2239 42.2501 17.2239H37.8867V0.476562ZM42.1982 14.8324C43.1072 14.8324 43.6526 14.4018 43.6526 13.2055V4.49692C43.6526 3.30068 43.1072 2.87004 42.1982 2.87004H40.7437V14.8324H42.1982Z" fill="#1D4D57"/>
<path d="M47.626 0.476562H50.5089L52.379 13.4677H52.4309L54.301 0.476562H56.9242L54.1711 17.2239H50.3791L47.626 0.476562Z" fill="#1D4D57"/>
<path d="M59.7812 0.476562H63.6511L66.612 17.2239H63.755L63.2356 13.8984V13.9462H59.989L59.4695 17.2239H56.8203L59.7812 0.476562ZM62.8979 11.6744L61.6253 3.39638H61.5733L60.3266 11.6744H62.8979Z" fill="#1D4D57"/>
<path d="M67.9883 0.476562H71.5725L74.3516 10.501H74.4035V0.476562H76.9488V17.2239H74.0139L70.5855 4.99834H70.5336V17.2239H67.9883V0.476562Z" fill="#1D4D57"/>
<path d="M81.312 2.86904H78.3252V0.476562H87.1559V2.86904H84.169V17.2239H81.312V2.86904Z" fill="#1D4D57"/>
<path d="M89.5459 0.476562H93.4158L96.3767 17.2239H93.5197L93.0002 13.8984V13.9462H89.7536L89.2342 17.2239H86.585L89.5459 0.476562ZM92.6626 11.6744L91.3899 3.39638H91.338L90.0913 11.6744H92.6626Z" fill="#1D4D57"/>
<path d="M97.4922 13.2534V4.44904C97.4922 1.76947 98.9467 0.238281 101.752 0.238281C104.557 0.238281 106.011 1.76947 106.011 4.44904V5.88453H103.31V4.28157C103.31 3.08533 102.739 2.63076 101.83 2.63076C100.921 2.63076 100.349 3.08533 100.349 4.28157V13.4448C100.349 14.641 100.921 15.0716 101.83 15.0716C102.739 15.0716 103.31 14.641 103.31 13.4448V10.1671H101.882V7.77458H106.011V13.2534C106.011 15.9329 104.557 17.4641 101.752 17.4641C98.9467 17.4641 97.4922 15.9329 97.4922 13.2534Z" fill="#1D4D57"/>
<path d="M107.855 0.476562H115.647V2.86904H110.712V7.29512H114.634V9.6876H110.712V14.8314H115.647V17.2239H107.855V0.476562Z" fill="#1D4D57"/>
<path d="M4.3624 10.2266C3.40465 10.2724 2.91334 9.65837 2.85165 8.55883C2.70772 6.01383 4.186 2.36131 6.08633 2.2696C6.96507 2.22773 7.55054 3.11295 7.09494 4.51255L9.21496 4.41087C9.82207 2.06126 8.4953 0.312754 6.34498 0.415431C2.63738 0.59387 0.519524 5.46555 0.705662 8.76318C0.847429 11.2653 2.56812 12.1974 4.13838 12.1226C6.38394 12.015 7.81135 10.5396 8.43361 8.7263L6.60362 8.10326C6.0582 9.31844 5.35152 10.1787 4.3624 10.2266Z" fill="#EE6352"/>
<path d="M23.7719 3.80083C23.1279 3.83173 22.4559 4.19758 22.0447 4.72492C22.4732 3.39909 23.0046 1.93868 23.497 0.609863L21.5663 0.702572C20.9971 2.54578 20.3943 4.33415 19.8251 6.17736C19.1834 7.56001 18.4063 8.52497 17.8847 8.5499C17.3631 8.57482 17.8425 7.52213 18.8966 4.16568L17.0125 4.2564C15.9844 7.52512 15.5472 8.70541 14.7474 8.74428C14.057 8.77718 14.2561 7.564 15.5374 4.32717L13.6533 4.41789C13.2681 5.38884 12.9954 6.22122 12.819 6.92899C12.2238 8.08037 11.5539 8.85394 11.0875 8.87687C10.6946 8.89581 10.7509 8.50105 11.2303 6.94096C11.6026 5.7198 12.3266 3.49479 13.1837 1.10531L11.2682 1.19702C10.607 3.1429 9.84942 5.33999 9.44036 6.75155C8.66442 9.45704 8.96419 10.5885 10.5345 10.5127C11.2996 10.4758 12.0192 9.93155 12.622 9.23375C12.7822 10.0532 13.3038 10.3801 14.0516 10.3443C14.9617 10.3004 15.5786 9.79299 16.0028 9.22079C16.1662 9.87972 16.7203 10.2157 17.3328 10.1867C18.204 10.1449 19.0156 9.44608 19.6638 8.61071C20.0383 9.77006 21.1951 10.0312 21.9029 9.99734C24.0543 9.89467 25.5564 7.50219 25.4449 5.53538C25.38 4.39297 24.7458 3.75597 23.7729 3.80282L23.7719 3.80083ZM21.9689 8.39738C21.4354 8.42329 21.2319 7.882 21.5685 6.87915C21.9191 5.84739 22.5057 5.35494 22.9299 5.33501C23.2286 5.32105 23.4894 5.48254 23.51 5.85836C23.5673 6.87117 22.7535 8.3595 21.9689 8.39738Z" fill="#EE6352"/>
<path d="M0.849609 14.3975C4.6546 13.2402 8.57215 12.4108 12.5232 11.8356C15.9603 11.3411 19.4785 11.066 22.9578 11.1468C22.9578 11.1468 23.87 11.1747 24.2694 11.1866C24.37 11.1896 24.449 11.2674 24.4458 11.3601C24.4425 11.4498 24.3635 11.5216 24.2661 11.5226C23.6774 11.5286 22.6894 11.5365 22.2165 11.5445C17.0425 11.7399 11.9053 12.6131 6.92829 13.9041C5.07774 14.3955 3.12005 14.9598 1.3366 15.5948L1.66007 14.7426L0.850692 14.3975H0.849609Z" fill="#EE6352"/>
<path d="M27.2149 20.0858H27.6273L27.6695 20.3988H27.6857C27.9519 20.1945 28.2831 20.019 28.625 20.019C29.3858 20.019 29.7927 20.5633 29.7927 21.4017C29.7927 22.3268 29.19 22.8671 28.5168 22.8671C28.2474 22.8671 27.9703 22.7524 27.6998 22.5531L27.7128 23.0266V23.9447H27.2139V20.0858H27.2149ZM29.2776 21.4057C29.2776 20.8066 29.0558 20.4048 28.5006 20.4048C28.2506 20.4048 27.9995 20.5314 27.7128 20.7747V22.1972C27.979 22.4035 28.2355 22.4793 28.4303 22.4793C28.9183 22.4793 29.2776 22.0746 29.2776 21.4047V21.4057Z" fill="#0C3634"/>
<path d="M30.3594 21.4466C30.3594 20.5414 31.0022 20.019 31.724 20.019C32.4458 20.019 33.0887 20.5404 33.0887 21.4466C33.0887 22.3527 32.4458 22.8671 31.724 22.8671C31.0022 22.8671 30.3594 22.3457 30.3594 21.4466ZM32.5746 21.4466C32.5746 20.8245 32.2316 20.4018 31.7251 20.4018C31.2186 20.4018 30.8756 20.8255 30.8756 21.4466C30.8756 22.0676 31.2186 22.4843 31.7251 22.4843C32.2316 22.4843 32.5746 22.0686 32.5746 21.4466Z" fill="#0C3634"/>
<path d="M33.4873 20.0859H33.997L34.4342 21.653C34.4981 21.9112 34.5533 22.1544 34.6095 22.4096H34.6333C34.6972 22.1544 34.761 21.9062 34.8336 21.653L35.2881 20.0859H35.7751L36.235 21.653C36.3075 21.9112 36.3714 22.1544 36.4395 22.4096H36.4633C36.5272 22.1544 36.5824 21.9112 36.6462 21.653L37.0759 20.0859H37.5509L36.7609 22.7994H36.1538L35.7285 21.341C35.6571 21.0838 35.6008 20.8346 35.5294 20.5594H35.5056C35.4417 20.8346 35.3822 21.0918 35.3032 21.348L34.8909 22.7994H34.3087L33.4895 20.0859H33.4873Z" fill="#0C3634"/>
<path d="M37.9474 21.4466C37.9474 20.5633 38.5934 20.019 39.272 20.019C40.023 20.019 40.4472 20.5165 40.4472 21.292C40.4472 21.3887 40.4386 21.4854 40.4234 21.5532H38.4398C38.4755 22.1284 38.8575 22.5012 39.4181 22.5012C39.7005 22.5012 39.9332 22.4175 40.1507 22.2839L40.3293 22.585C40.0706 22.7405 39.7568 22.8661 39.3564 22.8661C38.5707 22.8661 37.9463 22.3368 37.9463 21.4456L37.9474 21.4466ZM40.0068 21.2243C40.0068 20.681 39.7416 20.3849 39.2806 20.3849C38.8662 20.3849 38.496 20.6909 38.4354 21.2243H40.0068Z" fill="#0C3634"/>
<path d="M41.1719 20.0858H41.5842L41.6264 20.5803H41.6426C41.8482 20.2364 42.1491 20.019 42.4802 20.019C42.6112 20.019 42.7021 20.034 42.7952 20.0749L42.7021 20.4776C42.6004 20.4487 42.5344 20.4327 42.4164 20.4327C42.1675 20.4327 41.8699 20.5982 41.6708 21.0568V22.7993H41.1719V20.0858Z" fill="#0C3634"/>
<path d="M42.9952 21.4466C42.9952 20.5633 43.6413 20.019 44.3198 20.019C45.0709 20.019 45.4951 20.5165 45.4951 21.292C45.4951 21.3887 45.4864 21.4854 45.4713 21.5532H43.4876C43.5233 22.1284 43.9053 22.5012 44.4659 22.5012C44.7484 22.5012 44.981 22.4175 45.1986 22.2839L45.3771 22.585C45.1185 22.7405 44.8047 22.8661 44.4042 22.8661C43.6186 22.8661 42.9941 22.3368 42.9941 21.4456L42.9952 21.4466ZM45.0546 21.2243C45.0546 20.681 44.7895 20.3849 44.3285 20.3849C43.914 20.3849 43.5439 20.6909 43.4833 21.2243H45.0546Z" fill="#0C3634"/>
<path d="M46.0107 21.4465C46.0107 20.5663 46.6135 20.019 47.2856 20.019C47.6286 20.019 47.8526 20.1376 48.1113 20.333L48.0907 19.8675V18.8218H48.5896V22.7993H48.1773L48.1351 22.4793H48.1189C47.8894 22.6906 47.5756 22.8661 47.225 22.8661C46.4891 22.8661 46.0118 22.3497 46.0118 21.4455L46.0107 21.4465ZM48.0896 22.1104V20.6879C47.8386 20.4816 47.6113 20.4058 47.3711 20.4058C46.9003 20.4058 46.5259 20.8245 46.5259 21.4425C46.5259 22.0935 46.8181 22.4803 47.3343 22.4803C47.607 22.4803 47.8429 22.3577 48.0896 22.1104Z" fill="#0C3634"/>
<path d="M51.2569 22.5192H51.2407L51.1941 22.7993H50.7959V18.8218H51.2948V19.9094L51.2786 20.3958C51.548 20.1815 51.8759 20.018 52.2038 20.018C52.9646 20.018 53.3737 20.5623 53.3737 21.3987C53.3737 22.3258 52.7709 22.8661 52.0978 22.8661C51.824 22.8661 51.5188 22.7365 51.258 22.5192H51.2569ZM52.8575 21.4057C52.8575 20.8065 52.6356 20.4048 52.0805 20.4048C51.8305 20.4048 51.5718 20.5314 51.2926 20.7746V22.1972C51.5513 22.4035 51.8153 22.4793 52.0101 22.4793C52.4982 22.4793 52.8575 22.0745 52.8575 21.4047V21.4057Z" fill="#0C3634"/>
<path d="M53.8269 23.9139L53.9243 23.548C53.9828 23.566 54.0726 23.5889 54.1494 23.5889C54.4816 23.5889 54.6916 23.3437 54.8139 23.0067L54.881 22.8063L53.6992 20.0879H54.2133L54.8139 21.5902C54.9059 21.8254 55.0054 22.1036 55.1007 22.3548H55.1245C55.2078 22.1075 55.2911 21.8304 55.3723 21.5902L55.8972 20.0879H56.3852L55.2749 23.0247C55.0671 23.563 54.763 23.9707 54.1721 23.9707C54.0347 23.9707 53.9211 23.9487 53.8269 23.9149V23.9139Z" fill="#0C3634"/>
<path d="M58.2109 19.1357H58.7336L60.173 21.4395L60.6026 22.1981H60.6264C60.6004 21.8283 60.5626 21.4156 60.5626 21.0328V19.1367H61.043V22.8002H60.5203L59.081 20.4945L58.6514 19.7378H58.6276C58.6536 20.1087 58.6914 20.4995 58.6914 20.8823V22.7992H58.2109V19.1357Z" fill="#0C3634"/>
<path d="M62.0469 21.8055V20.086H62.5458V21.7457C62.5458 22.2511 62.7113 22.4675 63.102 22.4675C63.4029 22.4675 63.6117 22.3299 63.8909 22.0099V20.085H64.3898V22.7984H63.9775L63.9353 22.3738H63.9191C63.6464 22.6698 63.352 22.8652 62.9473 22.8652C62.3261 22.8652 62.048 22.4964 62.048 21.8036L62.0469 21.8055Z" fill="#0C3634"/>
<path d="M65.4695 21.9609V20.4606H65.0312V20.1127L65.4923 20.0858L65.5518 19.3252H65.9684V20.0858H66.7671V20.4596H65.9684V21.9679C65.9684 22.2998 66.0842 22.4922 66.424 22.4922C66.529 22.4922 66.6643 22.4554 66.7595 22.4195L66.8558 22.7664C66.6903 22.8182 66.4933 22.8671 66.3093 22.8671C65.6827 22.8671 65.4695 22.5012 65.4695 21.9609Z" fill="#0C3634"/>
<path d="M67.4307 20.0858H67.843L67.8852 20.5803H67.9014C68.107 20.2364 68.4079 20.019 68.739 20.019C68.87 20.019 68.9609 20.034 69.054 20.0749L68.9609 20.4776C68.8592 20.4487 68.7932 20.4327 68.6752 20.4327C68.4263 20.4327 68.1287 20.5982 67.9296 21.0568V22.7993H67.4307V20.0858Z" fill="#0C3634"/>
<path d="M69.4424 19.2316C69.4424 19.0512 69.5928 18.9346 69.7865 18.9346C69.9802 18.9346 70.1307 19.0512 70.1307 19.2316C70.1307 19.4121 69.9802 19.5287 69.7865 19.5287C69.5928 19.5287 69.4424 19.4051 69.4424 19.2316ZM69.5333 20.0859H70.0322V22.7994H69.5333V20.0859Z" fill="#0C3634"/>
<path d="M70.6974 22.4903L70.943 22.1882C71.1984 22.3776 71.4592 22.5092 71.8131 22.5092C72.1995 22.5092 72.3921 22.3198 72.3921 22.0875C72.3921 21.8084 72.0447 21.6848 71.7179 21.5732C71.3056 21.4346 70.8391 21.2472 70.8391 20.7896C70.8391 20.355 71.2168 20.019 71.8553 20.019C72.2222 20.019 72.5425 20.1576 72.7709 20.3241L72.5328 20.6182C72.3304 20.4796 72.1215 20.3769 71.8607 20.3769C71.4895 20.3769 71.3186 20.5593 71.3186 20.7657C71.3186 21.0239 71.6389 21.1216 71.9722 21.2362C72.3975 21.3838 72.8704 21.5433 72.8704 22.0596C72.8704 22.4992 72.4906 22.8661 71.7958 22.8661C71.377 22.8661 70.9733 22.7026 70.6963 22.4893L70.6974 22.4903Z" fill="#0C3634"/>
<path d="M73.2673 23.9139L73.3647 23.548C73.4232 23.566 73.513 23.5889 73.5898 23.5889C73.9221 23.5889 74.132 23.3437 74.2543 23.0067L74.3214 22.8063L73.1396 20.0879H73.6537L74.2543 21.5902C74.3463 21.8254 74.4459 22.1036 74.5411 22.3548H74.5649C74.6482 22.1075 74.7316 21.8304 74.8127 21.5902L75.3376 20.0879H75.8257L74.7153 23.0247C74.5075 23.563 74.2034 23.9707 73.6126 23.9707C73.4751 23.9707 73.3615 23.9487 73.2673 23.9149V23.9139Z" fill="#0C3634"/>
<path d="M76.0675 22.4903L76.3131 22.1882C76.5685 22.3776 76.8294 22.5092 77.1832 22.5092C77.5696 22.5092 77.7622 22.3198 77.7622 22.0875C77.7622 21.8084 77.4148 21.6848 77.088 21.5732C76.6757 21.4346 76.2093 21.2472 76.2093 20.7896C76.2093 20.355 76.5869 20.019 77.2254 20.019C77.5923 20.019 77.9126 20.1576 78.141 20.3241L77.9029 20.6182C77.7005 20.4796 77.4917 20.3769 77.2308 20.3769C76.8597 20.3769 76.6887 20.5593 76.6887 20.7657C76.6887 21.0239 77.009 21.1216 77.3423 21.2362C77.7676 21.3838 78.2405 21.5433 78.2405 22.0596C78.2405 22.4992 77.8607 22.8661 77.1659 22.8661C76.7471 22.8661 76.3434 22.7026 76.0664 22.4893L76.0675 22.4903Z" fill="#0C3634"/>
<path d="M78.8992 21.9609V20.4606H78.4609V20.1127L78.922 20.0858L78.9815 19.3252H79.3981V20.0858H80.1968V20.4596H79.3981V21.9679C79.3981 22.2998 79.5139 22.4922 79.8537 22.4922C79.9587 22.4922 80.094 22.4554 80.1892 22.4195L80.2855 22.7664C80.1199 22.8182 79.923 22.8671 79.739 22.8671C79.1124 22.8671 78.8992 22.5012 78.8992 21.9609Z" fill="#0C3634"/>
<path d="M80.5567 21.4466C80.5567 20.5633 81.2028 20.019 81.8814 20.019C82.6324 20.019 83.0566 20.5165 83.0566 21.292C83.0566 21.3887 83.048 21.4854 83.0328 21.5532H81.0491C81.0849 22.1284 81.4669 22.5012 82.0274 22.5012C82.3099 22.5012 82.5426 22.4175 82.7601 22.2839L82.9386 22.585C82.68 22.7405 82.3662 22.8661 81.9658 22.8661C81.1801 22.8661 80.5557 22.3368 80.5557 21.4456L80.5567 21.4466ZM82.6162 21.2243C82.6162 20.681 82.351 20.3849 81.89 20.3849C81.4755 20.3849 81.1054 20.6909 81.0448 21.2243H82.6162Z" fill="#0C3634"/>
<path d="M83.7812 20.0858H84.1936L84.2358 20.4796H84.252C84.5096 20.2234 84.818 20.019 85.1686 20.019C85.6188 20.019 85.8601 20.2174 85.9824 20.5364C86.2887 20.2314 86.596 20.019 86.9542 20.019C87.5592 20.019 87.8503 20.3879 87.8503 21.0807V22.8003H87.3514V21.1405C87.3514 20.6351 87.1783 20.4188 86.8027 20.4188C86.5744 20.4188 86.3374 20.5564 86.0647 20.8355V22.8003H85.5658V21.1405C85.5658 20.6351 85.3926 20.4188 85.0182 20.4188C84.7974 20.4188 84.5529 20.5564 84.2801 20.8355V22.8003H83.7812V20.0868V20.0858Z" fill="#0C3634"/>
</g>
<defs>
<clipPath id="clip0_1265_6038">
<rect width="115.292" height="24" fill="white" transform="translate(0.354492)"/>
</clipPath>
</defs>
</svg>
