<svg width="146" height="32" viewBox="0 0 146 32" fill="none" xmlns="http://www.w3.org/2000/svg">
<path d="M0.0927734 20.4555V9.42764H0.124103L6.90595 16.8415V9.67377H8.41846V20.517H8.38587L1.60403 13.1032V20.4555H0.0927734Z" fill="#231F20"/>
<path d="M16.5123 12.5155V20.517H15.0662V19.358H15.0336C14.5562 20.1604 13.6139 20.517 12.6891 20.517C11.1051 20.517 9.6227 19.7611 9.6227 17.8913V12.5167H11.1051V17.6753C11.1051 18.8331 11.9197 19.2048 12.8269 19.2048C13.9998 19.2048 15.0336 18.4953 15.0336 16.8101V12.5155H16.5123Z" fill="#231F20"/>
<path d="M21.9258 13.8302H19.8431V17.9064C19.8431 18.8971 20.1526 19.2048 21.2303 19.2048C21.5711 19.2048 21.8932 19.142 22.2165 19.1119L21.9533 20.4555C21.6639 20.4894 21.3994 20.517 20.7679 20.517C19.3957 20.517 18.3632 19.5288 18.3632 18.1236V13.8302H17.1464L17.6714 12.5155H18.3632V10.5377L19.8431 10.1848V12.5155H21.9258V13.8302Z" fill="#231F20"/>
<path d="M23.1074 20.517V12.5155H24.4946V13.8905H24.526C24.9733 12.901 25.729 12.1764 26.9319 12.1764H27.67L27.0547 13.6595C25.7302 13.5816 24.5886 14.5535 24.5886 16.579V20.5183L23.1074 20.517Z" fill="#231F20"/>
<path d="M30.477 12.5155H28.9971V20.517H30.477V12.5155Z" fill="#231F20"/>
<path d="M47.5081 20.517C48.9968 20.5107 50.191 19.7686 50.1935 18.1537C50.1897 17.0788 49.6521 16.6092 48.9454 16.3053C48.2399 16.0052 47.379 15.8997 46.7863 15.587C46.3903 15.3786 46.1083 15.0546 46.1108 14.5272C46.1071 14.055 46.3038 13.6909 46.6171 13.4573C46.9304 13.2212 47.3489 13.1082 47.8 13.1082C48.5055 13.1082 49.1058 13.4259 49.6346 13.8202L50.0569 13.2137C49.3451 12.7001 48.7411 12.3372 47.8464 12.3359C46.5469 12.3359 45.3627 13.1672 45.3602 14.5736C45.3615 15.587 45.9003 16.0416 46.6071 16.3518C47.3151 16.6582 48.176 16.7862 48.7687 17.1203C49.1647 17.3388 49.4479 17.6728 49.4429 18.2002C49.4454 18.71 49.2424 19.1056 48.9253 19.3643C48.6058 19.6204 48.176 19.746 47.7086 19.746C46.879 19.7498 46.3314 19.4497 45.7612 18.9022L45.1885 19.3969C45.7738 20.08 46.6008 20.517 47.5081 20.517Z" fill="#231F20"/>
<path d="M34.4644 20.517C35.9556 20.5107 37.1498 19.7686 37.1498 18.1537C37.1448 17.0788 36.6085 16.6092 35.9005 16.3053C35.1975 16.0052 34.3378 15.8997 33.7439 15.587C33.3491 15.3786 33.0647 15.0546 33.0659 14.5272C33.0634 14.055 33.2627 13.6909 33.5747 13.4573C33.8855 13.2212 34.3053 13.1082 34.7564 13.1082C35.4606 13.1082 36.0596 13.4259 36.5897 13.8202L37.0157 13.2137C36.299 12.7001 35.6975 12.3372 34.8027 12.3359C33.5033 12.3359 32.3191 13.1672 32.3141 14.5736C32.3203 15.587 32.8567 16.0416 33.5634 16.3518C34.2702 16.6582 35.1336 16.7862 35.7263 17.1203C36.1198 17.3388 36.4017 17.6728 36.4017 18.2002C36.4017 18.7276 36.2 19.1056 35.8817 19.3643C35.5634 19.6204 35.1336 19.746 34.6624 19.746C33.8353 19.7498 33.2902 19.4497 32.7188 18.9022L32.1449 19.3969C32.7326 20.08 33.5584 20.517 34.4644 20.517Z" fill="#231F20"/>
<path d="M50.8802 13.2953H51.8939V18.263C51.9015 19.6581 52.6383 20.4442 54.0255 20.4542C54.2724 20.4542 54.5255 20.4141 54.7548 20.3714V19.6619C54.5318 19.6832 54.3212 19.6832 54.1044 19.6832C53.6032 19.6832 53.2348 19.5915 52.9904 19.3617C52.7473 19.1282 52.6446 18.7741 52.6446 18.2793V13.2966H54.741V12.5255H52.6446V10.1233L51.8952 10.549V12.5255H51.0631L50.8802 13.2953Z" fill="#231F20"/>
<path d="M40.9994 19.0227L39.4931 22.3064H40.2864L44.9204 12.5255H44.0983L41.4317 18.2203L38.3892 12.5255H37.5734L40.9994 19.0227Z" fill="#231F20"/>
<path d="M61.6281 19.304C60.9026 20.0888 59.652 20.517 58.5016 20.517C56.1859 20.517 54.716 18.6372 54.716 16.4196C54.716 14.2019 56.2184 12.3573 58.5016 12.3573C60.7848 12.3573 62.266 14.2534 62.2509 16.5062H55.4753C55.4252 18.4865 56.7936 19.8063 58.6006 19.8063C59.8174 19.8063 61.0592 19.2337 61.6143 18.1851L61.6281 19.304ZM61.4915 15.7917C61.3061 14.3539 60.1206 13.0655 58.5166 13.0655C56.9127 13.0655 55.6107 14.3212 55.4753 15.7917H61.4915Z" fill="#231F20"/>
<path d="M71.6768 12.528C71.3974 12.41 71.0591 12.3284 70.6543 12.3284C70.5754 12.3284 70.5014 12.3334 70.4287 12.3384C69.925 12.3623 69.43 12.5657 69.0077 12.9098C68.9902 12.9261 68.9714 12.9387 68.9526 12.9563C68.9413 12.9663 68.9288 12.9776 68.9162 12.9864C68.6167 13.2526 68.4225 13.5301 68.3235 13.6959L68.316 13.7084C68.316 13.7084 68.0704 13.0354 67.3624 12.6298C67.2521 12.562 67.1293 12.508 66.9965 12.4615C66.7596 12.3799 66.4902 12.3284 66.1719 12.3284C64.7108 12.3284 64.0141 13.5301 63.88 13.7938V12.3522L63.1331 12.5117V20.4542H63.88V15.4765C63.88 14.7469 64.0479 14.1291 64.4025 13.6934C64.7559 13.2576 65.2947 13.0103 66.0015 13.0103C66.5002 13.0103 66.9275 13.1911 67.227 13.5088C67.534 13.8252 67.7107 14.2723 67.7107 14.7972V20.4555H68.4588V15.4778C68.4588 14.7482 68.6268 14.1304 68.9789 13.6946C69.331 13.2601 69.8673 13.0115 70.5741 13.014H70.5804C71.0753 13.0115 71.5039 13.1923 71.8072 13.51C72.1092 13.8265 72.2846 14.2735 72.2846 14.7984V20.4568H73.0352V14.6088C73.0315 13.4862 72.4851 12.8294 71.6768 12.5306" fill="#231F20"/>
<path d="M33.7263 5.60645C33.7263 5.60645 31.0635 5.86513 29.8003 7.64199C28.7978 9.05469 29.0347 10.4737 29.185 11.03C29.5384 10.1761 30.6462 7.94211 33.0158 6.48923C30.7314 8.4758 30.0271 10.6168 29.8517 11.2937C30.5735 11.2635 31.8291 11.0325 32.8316 9.90608C34.3504 8.19702 33.7263 5.60645 33.7263 5.60645Z" fill="#64A535"/>
<path d="M74.1643 10.1848C74.8359 10.1848 75.3585 10.706 75.3585 11.359C75.3585 12.0119 74.8359 12.5431 74.1567 12.5431C73.4776 12.5431 72.9475 12.027 72.9475 11.359C72.9475 10.6909 73.4826 10.1848 74.1567 10.1848H74.1643ZM74.1492 10.4197C73.6342 10.4197 73.2482 10.8416 73.2482 11.3577C73.2482 11.8738 73.6342 12.297 74.1643 12.297C74.6781 12.3045 75.059 11.8813 75.059 11.3577C75.059 10.8341 74.6793 10.4197 74.1567 10.4197H74.1492ZM73.9713 11.968H73.6994V10.8002C73.8046 10.7776 73.955 10.7562 74.148 10.7562C74.3698 10.7562 74.47 10.7926 74.5552 10.8504C74.6192 10.9006 74.6705 10.9935 74.6705 11.1003C74.6705 11.2372 74.5703 11.3376 74.4274 11.3803V11.3954C74.5427 11.4318 74.6054 11.5247 74.6417 11.6817C74.6781 11.8625 74.6994 11.9341 74.7282 11.968H74.4349C74.3986 11.9253 74.3773 11.8261 74.3422 11.688C74.3184 11.5599 74.2482 11.5021 74.0979 11.5021H73.97L73.9713 11.968ZM73.9776 11.3087H74.1066C74.257 11.3087 74.3786 11.2598 74.3786 11.1367C74.3786 11.0287 74.2984 10.9571 74.1279 10.9571C74.0565 10.9571 74.0064 10.9659 73.9776 10.9735V11.3087Z" fill="#231F20"/>
<path d="M79.3584 17.6262V13.8313C79.3584 11.5887 80.8763 10.0207 83.0668 10.0207C85.5081 10.0207 86.7753 11.6199 86.7753 14.1764V14.2076H84.616V14.0507C84.616 12.4196 83.818 12.0907 83.0668 12.0907C82.3157 12.0907 81.5333 12.4983 81.5333 13.7687V17.6887C81.5333 18.9904 82.3157 19.3824 83.0668 19.3824C84.0682 19.3824 84.616 18.896 84.616 17.2811V17.1398H86.7753V17.2024C86.7753 19.9782 85.5549 21.4518 83.0668 21.4518C80.8758 21.4518 79.3584 19.8844 79.3584 17.6262Z" fill="#006B00"/>
<path d="M87.727 17.9395V15.8225C87.727 13.7369 88.9317 12.3727 91.0598 12.3727C93.1879 12.3727 94.3927 13.7369 94.3927 15.8225V17.9395C94.3927 20.1033 93.1406 21.4362 91.0598 21.4362C88.9791 21.4362 87.727 20.1033 87.727 17.9395ZM91.0604 19.6018C91.7492 19.6018 92.3281 19.1786 92.3281 18.2377V15.5718C92.3281 14.6309 91.7648 14.2233 91.0604 14.2233C90.356 14.2233 89.7927 14.6309 89.7927 15.5718V18.2377C89.7927 19.1786 90.3404 19.6018 91.0604 19.6018Z" fill="#006B00"/>
<path d="M97.4979 12.4671V13.3767C97.6077 13.1416 98.1237 12.3733 99.329 12.3733C100.221 12.3733 100.988 12.7496 101.41 13.5805C101.676 13.0629 102.396 12.3733 103.601 12.3733C105.088 12.3733 105.948 13.3298 105.948 15.4624V21.2799H103.882V15.3836C103.882 14.5052 103.413 14.1764 102.833 14.1764C102.301 14.1764 101.785 14.5215 101.785 15.3524V21.2799H99.7196V15.3836C99.7196 14.5215 99.2816 14.1764 98.6709 14.1764C98.1231 14.1764 97.6221 14.5058 97.6221 15.3524V21.2799H95.572V12.4671H97.4979Z" fill="#006B00"/>
<path d="M107.284 12.4671H109.209V13.4236C109.335 13.1254 110.023 12.3258 111.306 12.3258C112.902 12.3258 113.951 13.3136 113.951 15.5718V18.1433C113.951 20.3859 112.902 21.3737 111.306 21.3737C109.929 21.3737 109.366 20.4797 109.366 20.4797V24.3684H107.284V12.4671ZM110.602 19.5393C111.368 19.5393 111.869 19.0373 111.869 17.9713V15.7287C111.869 14.6465 111.353 14.1451 110.602 14.1451C109.851 14.1451 109.334 14.6471 109.334 15.7287V18.0182C109.334 19.0686 109.866 19.5393 110.602 19.5393Z" fill="#006B00"/>
<path d="M115.247 9.37736H117.313V21.2793H115.247V9.37736Z" fill="#006B00"/>
<path d="M118.543 17.9864V15.8382C118.543 13.69 119.764 12.357 121.892 12.357C124.02 12.357 125.21 13.5956 125.21 15.76V17.4849H120.609V18.4415C120.609 19.2255 121.235 19.7588 121.892 19.7588C122.55 19.7588 123.144 19.3668 123.144 18.6453V18.4571H125.21V18.5196C125.21 20.1346 123.974 21.4362 121.892 21.4362C119.81 21.4362 118.543 20.1033 118.543 17.9864ZM123.144 16.042V15.6187C123.144 14.4427 122.658 14.0507 121.892 14.0507C121.125 14.0507 120.608 14.4583 120.608 15.3993V16.042H123.144Z" fill="#006B00"/>
<path d="M126.784 14.2702H125.923L125.907 12.6078C127.065 12.6078 127.456 12.122 127.456 10.679H128.833V12.4665H130.461V14.2702H128.833V18.0651C128.833 19.3199 129.209 19.7119 130.492 19.5237V21.3586C127.785 21.6725 126.784 20.6215 126.784 18.0188V14.2702Z" fill="#006B00"/>
<path d="M131.326 17.9864V15.8382C131.326 13.69 132.547 12.357 134.675 12.357C136.803 12.357 137.993 13.5956 137.993 15.76V17.4849H133.392V18.4415C133.392 19.2255 134.018 19.7588 134.675 19.7588C135.333 19.7588 135.928 19.3668 135.928 18.6453V18.4571H137.993V18.5196C137.993 20.1346 136.757 21.4362 134.675 21.4362C132.594 21.4362 131.326 20.1033 131.326 17.9864ZM135.927 16.042V15.6187C135.927 14.4427 135.442 14.0507 134.675 14.0507C133.908 14.0507 133.391 14.4583 133.391 15.3993V16.042H135.927Z" fill="#006B00"/>
<path d="M129.984 0C124.254 0 119.222 3.04916 116.416 7.61364H117.51C120.203 3.58245 124.789 0.922392 129.984 0.922392C138.257 0.922392 144.987 7.66633 144.987 15.9563C144.987 24.2462 138.257 30.9902 129.984 30.9902C124.367 30.9902 119.461 27.8796 116.891 23.2879H115.844C118.498 28.4071 123.84 31.9126 129.984 31.9126C138.763 31.9126 145.907 24.7546 145.907 15.9563C145.907 7.15795 138.764 0 129.984 0Z" fill="#64A535"/>
</svg>
