<svg width="24" height="24" viewBox="0 0 24 24" fill="none" xmlns="http://www.w3.org/2000/svg">
<g clip-path="url(#clip0_636_126230)">
<path d="M22.0606 0H1.95897C0.882452 0 0.00976562 0.872687 0.00976562 1.9492V22.0508C0.00976562 23.1273 0.882452 24 1.95897 24H22.0606C23.1371 24 24.0098 23.1273 24.0098 22.0508V1.9492C24.0098 0.872687 23.1371 0 22.0606 0Z" fill="#00AEEF"/>
<path d="M5.96289 5.10254H11.2686C12.2094 5.10254 13.0899 5.29069 13.9102 5.66698C14.7305 6.04327 15.453 6.54751 16.0701 7.17215C16.6873 7.7968 17.1689 8.53434 17.5226 9.36971C17.8763 10.2051 18.057 11.0781 18.057 11.9962C18.057 12.9144 17.8839 13.7648 17.5377 14.6002C17.1915 15.4356 16.7098 16.1731 16.0927 16.8053C15.4756 17.4374 14.7606 17.9417 13.9328 18.3255C13.1125 18.7018 12.2244 18.8899 11.2686 18.8899H5.96289V5.10254ZM9.54521 15.857H10.3655C10.9902 15.857 11.5396 15.7592 12.0287 15.5635C12.5179 15.3678 12.9243 15.0969 13.263 14.7582C13.6017 14.4196 13.8575 14.0132 14.0306 13.539C14.2037 13.0649 14.294 12.5532 14.294 11.9962C14.294 11.4393 14.2037 10.9351 14.0231 10.461C13.8425 9.98683 13.5791 9.58043 13.2479 9.23424C12.9093 8.89558 12.5029 8.62465 12.0137 8.42897C11.5245 8.2333 10.9751 8.13546 10.3655 8.13546H9.54521V15.857Z" fill="white"/>
</g>
<defs>
<clipPath id="clip0_636_126230">
<rect width="24" height="24" fill="white" transform="translate(0.00976562)"/>
</clipPath>
</defs>
</svg>
