<svg width="34" height="24" viewBox="0 0 34 24" fill="none" xmlns="http://www.w3.org/2000/svg">
<g id="empty_cart" clip-path="url(#clip0_760_29517)">
<path id="Vector" d="M33.7417 4.72823C33.6721 4.12462 33.2468 3.64825 32.6559 3.51481L17.3562 0.0669492C16.6262 -0.09753 15.859 0.0467772 15.2357 0.461079L8.37003 4.09824C8.34374 4.11221 8.31744 4.12772 8.2927 4.14479L0.947538 5.28994C0.406202 5.37528 0.0241732 5.77407 0.000973031 6.28457C-0.00676035 6.46302 0.0319065 6.6306 0.106147 6.77956C0.106147 6.78422 0.106147 6.79043 0.106147 6.79508C0.106147 6.80594 0.106147 6.8168 0.106147 6.82767C0.106147 6.82922 0.106147 6.83077 0.106147 6.83232L1.26151 19.8045C1.3605 20.9139 2.23901 21.862 3.44697 22.163L9.78679 23.7411C10.3482 23.8807 10.9282 23.963 11.5129 23.9894C11.5206 23.9894 11.5283 23.9925 11.5361 23.9925C11.5392 23.9925 11.5423 23.9925 11.5454 23.9925C11.6691 23.9971 11.7944 24.0018 11.9197 24.0018C12.3775 24.0018 12.8337 23.9661 13.2823 23.8963L26.0114 21.907C27.4081 21.6882 28.4459 20.661 28.5371 19.4057L29.411 7.39403L32.8539 6.19768C32.8879 6.18527 32.9204 6.17285 32.9529 6.15734C33.4989 5.89355 33.8082 5.33339 33.7401 4.72978L33.7417 4.72823ZM5.58138 21.6929L3.68361 21.2211C2.87624 21.0194 2.2916 20.4158 2.22973 19.7191L1.99928 17.1309L5.58138 18.0231V21.6944V21.6929ZM5.58138 17.0192L1.90802 16.1052L1.56621 12.2772L5.57983 13.2765V17.0207L5.58138 17.0192ZM5.58138 12.2741L1.4765 11.2515L1.13623 7.42351L5.58292 8.52987V12.2741H5.58138ZM11.0551 22.9792C10.7071 22.9404 10.3606 22.8815 10.0234 22.7977L6.5496 21.9334V18.2621L11.0551 19.3839V22.9808V22.9792ZM11.0551 18.3816L6.5496 17.2597V13.5155L11.0551 14.6373V18.3816ZM11.0551 13.6365L6.5496 12.5146V8.77038L7.62144 9.03727C8.73969 9.31503 9.89351 9.49347 11.0551 9.57261V13.6365ZM7.89056 8.0954L1.07591 6.3994C1.02178 6.38543 0.969192 6.35906 0.969192 6.32802C0.969192 6.29854 1.01095 6.2644 1.09757 6.25044L13.058 4.3853C14.1995 4.20686 15.361 4.11841 16.5226 4.11841C16.5705 4.11841 16.6185 4.11841 16.6664 4.11841V8.22574L15.3919 8.42436C12.908 8.81228 10.3142 8.699 7.88902 8.0954H7.89056ZM17.797 19.2955C17.6222 18.6484 17.3469 16.9943 18.5131 15.348C19.9825 13.2765 23.082 12.9755 23.082 12.9755C23.082 12.9755 23.8089 15.9935 22.0411 17.9859C20.8734 19.2986 19.4133 19.567 18.5734 19.6027C18.7776 18.8129 19.5973 16.3194 22.2561 14.0042C19.4984 15.6971 18.21 18.3009 17.7986 19.2955H17.797ZM19.7721 8.85417C19.5216 9.10089 19.4195 9.47795 19.5417 9.83174C19.5912 9.97449 19.6716 10.0971 19.7721 10.1964V10.89C18.4188 11.039 17.2232 11.7062 16.3834 12.69V9.25296L19.7721 8.72383V8.85262V8.85417ZM15.4136 22.5789L13.1369 22.9342C12.7703 22.9916 12.3976 23.0211 12.0248 23.0258V19.4181L15.4136 18.889V22.5789ZM15.4136 14.3875C15.2295 14.9228 15.129 15.4954 15.129 16.0928C15.129 16.6902 15.2295 17.2628 15.4136 17.7981V17.9052L12.0248 18.4343V14.673L15.4136 14.1439V14.3875ZM15.4136 13.1601L12.0248 13.6892V9.6145C12.1609 9.61761 12.2955 9.62071 12.4316 9.62071C12.4393 9.62071 12.4455 9.62071 12.4533 9.62071C12.4579 9.62071 12.4625 9.62071 12.4672 9.62071C13.4555 9.62071 14.4423 9.54778 15.4151 9.40192V13.1586L15.4136 13.1601ZM19.7721 21.8961L16.3834 22.4253V19.4926C17.2232 20.4763 18.4203 21.1451 19.7721 21.2925V21.8946V21.8961ZM24.1306 21.2149L20.7419 21.7441V21.308C22.0736 21.2087 23.2661 20.6067 24.1306 19.6912V21.2134V21.2149ZM24.1306 11.7962L23.4718 11.8986C22.7 11.3183 21.7611 10.949 20.7419 10.8729V10.4074L24.1306 9.22813V11.7962ZM17.6377 8.07212V4.14324C19.0962 4.21462 20.547 4.4241 21.9483 4.77323L27.3555 6.11854L25.071 6.91301L17.6377 8.07212ZM27.5751 19.3312C27.5163 20.1319 26.8141 20.7944 25.866 20.9418L25.0989 21.0613V18.2481C25.2319 17.9533 25.3386 17.643 25.4159 17.3217L27.7468 16.9571L27.5736 19.3296L27.5751 19.3312ZM27.8195 15.964L25.5582 16.3178C25.5613 16.2418 25.5644 16.1673 25.5644 16.0913C25.5644 15.3216 25.3974 14.5908 25.1004 13.9329V12.6294L28.0979 12.1608L27.821 15.9656L27.8195 15.964ZM28.169 11.1646L25.0989 11.6441V8.89141L28.418 7.73696L28.169 11.1646ZM29.0151 5.54287C28.9687 5.52425 28.9207 5.50873 28.8697 5.49632L22.1818 3.83135C20.5857 3.43412 18.9307 3.21067 17.2696 3.15792C17.2325 3.14861 17.1938 3.1424 17.1536 3.1424C17.1227 3.1424 17.0917 3.1455 17.0623 3.15171C16.0044 3.12843 14.9449 3.17499 13.8978 3.29291L16.1514 2.09966C16.1514 2.09966 16.1575 2.09656 16.1606 2.09501C16.1746 2.08725 16.1885 2.07794 16.2024 2.07018C16.2163 2.06087 16.2302 2.05311 16.2442 2.0438C16.2472 2.04225 16.2503 2.0407 16.2534 2.0376C16.4561 1.89484 16.7097 1.84363 16.9494 1.89794L30.6344 4.98271L29.0166 5.54442L29.0151 5.54287Z" fill="white"/>
</g>
<defs>
<clipPath id="clip0_760_29517">
<rect width="33.75" height="24" fill="white"/>
</clipPath>
</defs>
</svg>
