<svg width="90" height="73" viewBox="0 0 90 73" fill="none" xmlns="http://www.w3.org/2000/svg">
<g id="Layer_1" clip-path="url(#clip0_542_21969)">
<g id="Salad">
<path id="Vector" d="M58.6038 68.5178V64.193H36.2768V68.5178H58.6038ZM60.3433 59.5168C69.5483 55.8252 77.274 49.0408 82.2409 40.3043H12.4445C17.2249 48.9584 24.955 55.7471 34.3638 59.5168H60.339H60.3433ZM84.284 35.6324C84.7178 34.2877 85.1169 32.8519 85.3295 31.3076H9.37767C9.5642 32.7087 9.91123 34.1576 10.4101 35.6324H84.284ZM85.3555 26.6357C84.9304 24.2151 82.7615 22.3108 80.2411 22.3108C79.1393 22.3108 78.1069 21.5083 77.8423 20.4412C77.3868 18.3156 75.925 16.8538 73.8298 16.407C73.4697 16.3332 73.1053 16.2942 72.7453 16.2942C70.3204 16.2942 68.273 17.986 67.7611 20.4152C67.4618 21.5994 66.5465 22.3152 65.3579 22.3152C62.7769 22.454 60.6643 24.2889 60.2436 26.64H85.3598L85.3555 26.6357ZM55.4112 26.6357C54.9861 24.2151 52.8171 22.3108 50.2968 22.3108C49.195 22.3108 48.1669 21.5083 47.898 20.4412C47.4512 18.5022 45.7941 16.8451 43.8681 16.4026C43.5254 16.3289 43.1567 16.2899 42.7966 16.2899C40.3718 16.2899 38.3243 17.9816 37.8124 20.4108C37.5391 21.5083 36.5067 22.3108 35.4092 22.3108C34.0558 22.3108 32.6504 22.9485 31.5963 24.0373C31.5789 24.9656 31.4878 25.8202 31.3837 26.64H55.4112V26.6357ZM10.0544 26.6357L7.75964 25.1044C7.32152 24.8138 7.00919 24.3193 6.89207 23.7553C6.77928 23.1871 6.87905 22.6101 7.17403 22.1763C7.54709 21.6124 8.24115 21.2654 8.98292 21.2654C9.39936 21.2654 9.78543 21.3782 10.1064 21.5907L15.2121 24.9179C14.8304 24.4017 14.4617 23.8508 14.1016 23.3085C13.9368 22.9962 13.8804 22.8357 13.8283 22.6709C13.8066 22.6101 13.7893 22.5494 13.7589 22.48C13.6505 22.3846 13.5464 22.3065 13.4379 22.2284C13.234 22.0766 13.0302 21.9204 12.8263 21.7165C11.7678 21.0051 10.0153 20.593 7.73361 20.593C6.82266 20.593 5.85532 20.6581 4.79688 20.7926C5.30007 22.6969 6.27175 24.5839 7.8117 26.6444H10.0631L10.0544 26.6357ZM18.0144 11.1798C17.4331 13.6828 16.7304 18.1465 18.1879 21.0528C19.3721 22.8184 20.9728 24.3756 22.8598 25.5946L18.5523 17.5218C18.2616 16.8104 18.2139 16.1901 18.3788 15.6392C18.5696 14.9972 19.0338 14.4983 19.6888 14.2337C20.0185 14.1036 20.3568 14.0385 20.6952 14.0385C21.6278 14.0385 22.4564 14.5374 22.8598 15.3442L26.6554 22.6579C26.6945 22.5798 26.7335 22.4974 26.7725 22.4193C26.9027 20.5366 26.5643 18.6497 25.7965 16.9536C24.4301 14.3595 20.5086 12.2123 18.0144 11.1798ZM51.9756 17.5522C54.3267 17.986 56.3785 19.1659 57.7927 20.8923C58.7643 19.8252 59.8922 18.9837 61.1068 18.4198C61.2456 17.4134 61.3757 16.3896 61.3757 15.3876C61.3757 9.48807 58.3045 4.31299 54.7995 4.31299C51.7023 4.31299 48.8957 8.11297 48.2754 13.0581C50.0539 14.2858 51.2685 15.7693 51.9799 17.5565L51.9756 17.5522ZM39.7384 4.30865C36.2334 4.30865 33.1622 9.48373 33.1622 15.3832C33.1622 16.1857 33.2446 16.9883 33.3444 17.7344C33.4182 17.717 33.4919 17.704 33.5656 17.691C34.9928 14.0081 38.5759 11.5746 42.6491 11.5746C43.0135 11.5746 43.3822 11.5963 43.7423 11.6353C43.9896 10.5769 44.2802 9.43602 44.6879 8.17803C43.469 5.77919 41.595 4.30865 39.7341 4.30865H39.7384Z" fill="white"/>
<g id="Path_2099">
<path id="Vector_2" d="M89.2381 29.0562C89.2381 28.8827 89.2381 28.7092 89.0646 28.5357C89.0646 28.1886 89.2381 27.8416 89.2381 27.4989C89.2381 23.0005 85.7764 19.1919 81.2781 18.6713C79.7208 13.9995 74.5283 11.4011 69.8564 13.1319C67.9521 13.8259 66.2213 15.0362 65.1846 16.767V15.5568C65.1846 7.07621 60.5127 0.5 54.6262 0.5C51.5116 0.673515 48.7397 2.23081 47.1824 4.99837C45.7986 2.40433 42.8575 0.673515 39.9121 0.5C34.0256 0.5 29.5272 6.9027 29.3537 15.2097C26.4127 9.49675 17.238 6.72918 16.891 6.55567C16.0278 6.38215 15.1602 6.72918 14.9867 7.59242C13.9499 11.054 13.4294 14.6892 13.6029 18.3243C8.93102 16.2465 2.18129 17.6303 1.83426 17.6303C1.1402 17.8038 0.623993 18.4935 0.797508 19.1876C1.49157 22.8227 3.04886 26.1108 5.29588 29.0519C5.29588 32.1665 5.98994 35.2811 7.02669 38.053C7.02669 38.2265 7.20021 38.5735 7.20021 38.747C11.1824 48.6113 20.5262 57.9595 32.1213 62.9784V70.9384C32.1213 71.8016 32.8153 72.4957 33.6786 72.4957H60.6775C61.5407 72.4957 62.2348 71.8016 62.2348 70.9384V62.9784C73.8299 57.9595 83.1781 48.6113 87.1559 38.747C87.3294 38.5735 87.3294 38.4 87.3294 38.053C88.5397 35.1119 89.2337 32.1665 89.2337 29.0519L89.2381 29.0562ZM8.41047 30.4443H86.297C86.1235 32.5222 85.6029 34.4265 84.9132 36.5H9.79426C9.1002 34.5957 8.58399 32.5178 8.41047 30.4443ZM48.7397 20.2286C48.9132 20.9227 49.6029 21.4389 50.297 21.4389C53.5851 21.4389 56.3526 24.2065 56.3526 27.4946H30.3905C30.564 26.2843 30.7375 25.0697 30.7375 23.6859C31.9478 22.3021 33.6786 21.4346 35.4094 21.4346C36.1035 21.4346 36.7932 20.914 36.9667 20.2243C37.6608 16.9362 40.7753 14.8584 44.0635 15.5524C46.3148 16.073 48.2191 17.9773 48.7353 20.2243L48.7397 20.2286ZM66.911 20.2286C67.6051 16.9405 70.7197 14.8627 74.0078 15.5568C76.4327 16.0773 78.1635 17.8081 78.6797 20.2286C78.8532 20.9227 79.5429 21.4389 80.237 21.4389C83.5251 21.4389 86.2926 24.2065 86.2926 27.4946H59.2937C59.2937 24.2065 62.0613 21.6081 65.3494 21.4389C66.2126 21.4389 66.7332 20.9184 66.9067 20.2286H66.911ZM54.7954 3.44108C58.7775 3.44108 62.2391 8.98054 62.2391 15.3832C62.2391 16.5935 62.0656 17.8081 61.8921 19.0184C60.1613 19.7124 58.7775 20.9227 57.7364 22.3065C56.3526 20.0551 53.9278 18.6713 51.3337 18.3243C50.6397 16.2465 49.2559 14.6892 47.3516 13.4789C47.8721 7.93945 50.9867 3.44108 54.7954 3.44108ZM39.7386 3.44108C41.99 3.44108 44.237 5.17189 45.6251 8.11297C45.1045 9.67026 44.7619 11.054 44.4148 12.6113C40.09 11.7481 35.5872 14.1686 34.2035 18.4978C33.6829 18.4978 33.1667 18.6713 32.6462 18.8449C32.4727 17.8081 32.2991 16.5935 32.2991 15.3832C32.2991 8.98054 35.7608 3.44108 39.7429 3.44108H39.7386ZM17.4116 10.0173C19.8364 10.8805 24.8554 13.3054 26.5862 16.5935C27.4494 18.4978 27.7964 20.5757 27.6229 22.6492C27.2759 23.3432 26.9289 24.033 26.7597 24.727L22.0878 15.7259C21.7408 15.0319 20.8775 14.6892 20.0099 15.0319C19.1424 15.3746 18.9732 16.2421 19.3159 17.1097L24.8554 27.4946H24.5083C21.5672 26.1108 19.1424 24.033 17.4116 21.4389C15.6808 17.9773 16.7175 12.6113 17.4116 10.0173ZM13.4294 21.0962C13.7764 21.4432 14.1235 21.6168 14.4661 21.9595C14.6397 22.3065 14.6397 22.48 14.8132 22.8227C15.5072 23.8594 16.197 24.9005 17.0645 25.7638C17.4116 26.2843 17.5851 26.974 17.9278 27.4946H17.5807L9.62074 22.3021C9.1002 21.9551 8.23696 22.1286 7.88993 22.6492C7.5429 23.1697 7.71642 24.033 8.23696 24.38L12.9088 27.4946H7.36939C5.63857 25.2432 4.25479 22.8227 3.73425 20.0508C5.9856 19.7038 10.6575 19.1876 13.4251 21.0875L13.4294 21.0962ZM59.2981 69.3854H35.4137V63.3297H59.4716V69.3854H59.2981ZM60.5083 60.3843H34.1991C24.1613 56.4022 15.8543 48.9627 11.0089 39.4411H83.7029C78.684 48.9584 70.5505 56.4022 60.5127 60.3843H60.5083Z" fill="#29353A"/>
</g>
<path id="Vector_3" d="M48.7398 20.2286C48.9133 20.9227 49.6031 21.4389 50.2971 21.4389C53.5852 21.4389 56.3528 24.2065 56.3528 27.4946H30.3906C30.5641 26.2843 30.7377 25.0697 30.7377 23.6859C31.9479 22.3021 33.6787 21.4346 35.4095 21.4346C36.1036 21.4346 36.7933 20.914 36.9668 20.2243C37.6609 16.9362 40.7755 14.8584 44.0636 15.5524C46.315 16.073 48.2193 17.9773 48.7355 20.2243L48.7398 20.2286Z" fill="#FFE9AA"/>
<path id="Vector_4" d="M66.9103 20.2286C67.6043 16.9405 70.7189 14.8627 74.007 15.5568C76.4319 16.0773 78.1627 17.8081 78.6789 20.2286C78.8524 20.9227 79.5422 21.4389 80.2362 21.4389C83.5243 21.4389 86.2919 24.2065 86.2919 27.4946H59.293C59.293 24.2065 62.0605 21.6081 65.3486 21.4389C66.2119 21.4389 66.7324 20.9184 66.9059 20.2286H66.9103Z" fill="#FFE9AA"/>
<path id="Vector_5" d="M60.5073 60.3843H34.1981C24.1602 56.4022 15.8532 48.9627 11.0078 39.4411H83.7019C78.683 48.9584 70.5494 56.4022 60.5116 60.3843H60.5073Z" fill="#FFE9AA"/>
<path id="Vector_6" d="M8.41016 30.4443H86.2967C86.1231 32.5222 85.6026 34.4265 84.9129 36.5H9.79394C9.09988 34.5957 8.58367 32.5178 8.41016 30.4443Z" fill="white"/>
<path id="Vector_7" d="M54.7954 3.44108C58.7775 3.44108 62.2391 8.98054 62.2391 15.3832C62.2391 16.5935 62.0656 17.8081 61.8921 19.0184C60.1613 19.7124 58.7775 20.9227 57.7364 22.3065C56.3526 20.0551 53.9278 18.6713 51.3337 18.3243C50.6397 16.2465 49.2559 14.6892 47.3516 13.4789C47.8721 7.93945 50.9867 3.44108 54.7954 3.44108Z" fill="white"/>
<path id="Vector_8" d="M39.7383 3.44108C41.9896 3.44108 44.2367 5.17189 45.6248 8.11297C45.1042 9.67026 44.7615 11.054 44.4145 12.6113C40.0896 11.7481 35.5869 14.1686 34.2032 18.4978C33.6826 18.4978 33.1664 18.6713 32.6459 18.8449C32.4723 17.8081 32.2988 16.5935 32.2988 15.3832C32.2988 8.98054 35.7605 3.44108 39.7426 3.44108H39.7383Z" fill="white"/>
<path id="Vector_9" d="M17.4106 10.0173C19.8355 10.8805 24.8544 13.3054 26.5852 16.5935C27.4484 18.4978 27.7955 20.5757 27.6219 22.6492C27.2749 23.3432 26.9279 24.033 26.7587 24.727L22.0868 15.7259C21.7398 15.0319 20.8766 14.6892 20.009 15.0319C19.1414 15.3746 18.9722 16.2421 19.3149 17.1097L24.8544 27.4946H24.5074C21.5663 26.1108 19.1414 24.033 17.4106 21.4389C15.6798 17.9773 16.7165 12.6113 17.4106 10.0173Z" fill="white"/>
<path id="Vector_10" d="M13.4295 21.0962C13.7766 21.4432 14.1236 21.6168 14.4663 21.9595C14.6398 22.3065 14.6398 22.48 14.8133 22.8227C15.5074 23.8594 16.1971 24.9005 17.0647 25.7638C17.4117 26.2843 17.5852 26.974 17.9279 27.4946H17.5809L9.62087 22.3021C9.10032 21.9551 8.23709 22.1286 7.89006 22.6492C7.54303 23.1697 7.71654 24.033 8.23709 24.38L12.909 27.4946H7.36951C5.6387 25.2432 4.25492 22.8227 3.73438 20.0508C5.98573 19.7038 10.6576 19.1876 13.4252 21.0875L13.4295 21.0962Z" fill="white"/>
<path id="Vector_11" d="M59.2964 69.3854H35.4121V63.3254H59.4656V69.3854H59.2964Z" fill="white"/>
</g>
</g>
<defs>
<clipPath id="clip0_542_21969">
<rect width="88.4753" height="72" fill="white" transform="translate(0.761719 0.5)"/>
</clipPath>
</defs>
</svg>
