<svg width="24" height="24" viewBox="0 0 24 24" fill="none" xmlns="http://www.w3.org/2000/svg">
<g clip-path="url(#clip0_636_126232)">
<path d="M22.0606 0H1.95897C0.882452 0 0.00976562 0.872687 0.00976562 1.9492V22.0508C0.00976562 23.1273 0.882452 24 1.95897 24H22.0606C23.1371 24 24.0098 23.1273 24.0098 22.0508V1.9492C24.0098 0.872687 23.1371 0 22.0606 0Z" fill="#2D4995"/>
<path d="M21.6396 11.161H19.3141L20.4881 9.98699C20.7967 9.69348 20.8192 9.18172 20.5408 8.85811C20.5257 8.83553 20.5107 8.82048 20.4881 8.80542C20.1494 8.48181 19.6301 8.48181 19.2915 8.80542L16.9133 11.161H15.363C15.2049 10.5288 14.8813 9.96441 14.4222 9.52791L15.1974 8.20335L18.4411 7.34541C18.5841 7.30778 18.712 7.23252 18.8174 7.12715C19.0281 6.91643 19.1109 6.60787 19.0356 6.31436C18.9001 5.85528 18.4411 5.5994 18.0046 5.72734L16.3865 6.17889L17.553 4.16949C17.7713 3.78567 17.6584 3.28896 17.2971 3.04813L17.2444 3.02556C16.8456 2.79225 16.3338 2.92772 16.093 3.33412L14.9265 5.336L14.49 3.73299C14.3545 3.27391 13.8954 3.01803 13.4589 3.14597C13.0375 3.22875 12.7666 3.65773 12.8493 4.10175C12.8493 4.10928 12.8493 4.11681 12.8493 4.12433V4.16196L13.7299 7.37551L12.9547 8.70006C12.6461 8.60975 12.3301 8.55707 12.014 8.55707C11.6979 8.55707 11.3818 8.60975 11.0732 8.70006L10.2981 7.37551L11.1711 4.16949C11.284 3.72546 11.0281 3.27391 10.6142 3.15349H10.5765C10.14 3.02556 9.68095 3.28896 9.54548 3.74051L9.10898 5.32847L7.93494 3.32659C7.68659 2.92019 7.18236 2.78473 6.78349 3.02556C6.40719 3.23628 6.2642 3.71794 6.45235 4.11681C6.45235 4.13186 6.4674 4.14691 6.47493 4.15444L7.64896 6.17889L6.0309 5.74239C5.5944 5.61445 5.13532 5.87033 4.99986 6.32941C4.88697 6.76591 5.12027 7.20994 5.53419 7.33788C5.55677 7.33788 5.57182 7.35293 5.5944 7.35293L8.84558 8.21841L9.62074 9.53543L9.58311 9.57306C9.14661 10.002 8.83805 10.559 8.68753 11.161H7.1372L4.75903 8.81295C4.42036 8.48181 3.90108 8.48181 3.56241 8.81295C3.25385 9.10646 3.23128 9.61069 3.50973 9.94183C3.52479 9.96441 3.53984 9.97946 3.56241 9.99451L4.74398 11.161H2.41848C1.98198 11.1234 1.59816 11.4696 1.56053 11.9287C1.5229 12.3877 1.85404 12.7941 2.29054 12.8318H4.75903L3.56994 13.9983C3.26138 14.2918 3.2388 14.8035 3.51726 15.1272L3.56994 15.1798C3.9086 15.5034 4.42789 15.5034 4.76655 15.1798L7.14473 12.8242H8.69506C8.8531 13.4564 9.17671 14.0209 9.63579 14.4574L8.86063 15.7744L5.60193 16.6248C5.18048 16.7151 4.90955 17.1366 4.99233 17.5806C4.99233 17.5806 4.99233 17.5806 4.99233 17.5881L5.00738 17.6483C5.14285 18.1074 5.60193 18.3708 6.03843 18.2353L7.65649 17.8064L6.48998 19.8082C6.27173 20.1996 6.39214 20.6963 6.76091 20.9296L6.79854 20.9522C7.12968 21.1403 7.53607 21.0876 7.82206 20.8242C7.87474 20.7716 7.91989 20.7114 7.95 20.6511L9.12403 18.6493L9.56053 20.2447C9.696 20.7038 10.1551 20.9597 10.5916 20.8318C10.7346 20.7941 10.8625 20.7189 10.9679 20.621C11.1786 20.4103 11.2614 20.1018 11.1861 19.8082L10.3131 16.5947L11.0883 15.2701C11.3968 15.3605 11.7129 15.4131 12.029 15.4131C12.3451 15.4131 12.6687 15.3605 12.9698 15.2701L13.7449 16.5947L12.8719 19.8082C12.759 20.2523 13.0149 20.7038 13.4364 20.8242H13.4665C13.903 20.9522 14.362 20.6888 14.4975 20.2372L14.934 18.6417L16.1005 20.6436C16.3489 21.05 16.8531 21.1855 17.252 20.9447C17.6358 20.7415 17.7863 20.2447 17.5906 19.8459C17.5906 19.8308 17.5756 19.8233 17.5756 19.8082L16.4091 17.8139L18.0196 18.2429C18.3131 18.3256 18.6217 18.2429 18.8399 18.0246C18.9453 17.9268 19.0206 17.7913 19.0582 17.6483C19.1711 17.2043 18.9152 16.7452 18.4937 16.6323H18.4636L15.2125 15.7669L14.4373 14.4498L14.4749 14.4197C14.9114 13.9832 15.22 13.4338 15.378 12.8242H16.9284L19.3065 15.1798C19.6452 15.5034 20.1645 15.5034 20.5031 15.1798C20.8117 14.8863 20.8343 14.3746 20.5558 14.051C20.5408 14.0284 20.5257 14.0133 20.5031 13.9983L19.3216 12.8318H21.6471C21.8653 12.8318 22.0836 12.749 22.2416 12.5909C22.3997 12.4404 22.4975 12.2297 22.4975 12.0039C22.4825 11.5298 22.1062 11.1535 21.6546 11.1685L21.6396 11.161ZM10.2303 11.9964C10.2303 11.5223 10.4185 11.0707 10.7496 10.7471C11.0958 10.416 11.5398 10.2278 12.014 10.2353C12.9698 10.2052 13.76 10.9955 13.7976 11.9964C13.7449 12.9898 12.9622 13.7574 12.014 13.7574C11.0657 13.7875 10.268 12.9973 10.2379 11.9964H10.2303Z" fill="white"/>
</g>
<defs>
<clipPath id="clip0_636_126232">
<rect width="24" height="24" fill="white" transform="translate(0.00976562)"/>
</clipPath>
</defs>
</svg>
