<svg width="149" height="32" viewBox="0 0 149 32" fill="none" xmlns="http://www.w3.org/2000/svg">
<g clip-path="url(#clip0_760_29802)">
<path d="M66.5798 -1.40164e-06C66.5798 -1.40164e-06 61.3051 0.493275 58.8057 3.89898C56.8203 6.60675 57.2909 9.32502 57.5885 10.3903C58.2918 8.75303 60.4828 4.47622 65.1732 1.68973C60.6505 5.49951 59.2547 9.5979 58.9085 10.8941C60.3367 10.8363 62.8199 10.3955 64.8053 8.23352C67.8132 4.959 66.5744 -0.00524902 66.5744 -0.00524902" fill="#6CB33F"/>
<path d="M0 28.4526V7.32043H0.0595091L13.4869 21.531V7.79272H16.484V28.5733H16.4191L2.99169 14.368V28.4526H0Z" fill="white"/>
<path d="M32.5028 13.2398V28.5733H29.6409V26.3536H29.576C28.6293 27.8911 26.7683 28.5733 24.9343 28.5733C21.7966 28.5733 18.8644 27.125 18.8644 23.5408V13.2398H21.802V23.1263C21.802 25.346 23.4141 26.0597 25.2102 26.0597C27.5311 26.0597 29.576 24.7006 29.576 21.4733V13.245H32.5028V13.2398Z" fill="white"/>
<path d="M43.2198 15.7586H39.0975V23.5671C39.0975 25.4667 39.7088 26.0544 41.8457 26.0544C42.522 26.0544 43.1603 25.9338 43.7987 25.876L43.2794 28.4526C42.7059 28.5156 42.1866 28.5681 40.9314 28.5681C38.2157 28.5681 36.1707 26.6737 36.1707 23.9816V15.7534H33.7633L34.802 13.2345H36.1707V9.44572L39.1029 8.76878V13.2345H43.2253V15.7534L43.2198 15.7586Z" fill="white"/>
<path d="M45.5623 28.5733V13.2398H48.3052V15.8741H48.3647C49.2519 13.9797 50.745 12.589 53.1254 12.589H54.5861L53.3689 15.428C50.745 15.2811 48.4891 17.144 48.4891 21.022V28.5681H45.5623V28.5733Z" fill="white"/>
<path d="M60.1475 13.2398H57.2207V28.5733H60.1475V13.2398Z" fill="white"/>
<path d="M93.8621 28.5733C96.8105 28.5628 99.1746 27.1407 99.18 24.0446C99.1746 21.9823 98.1089 21.0849 96.7077 20.5025C95.312 19.9252 93.6078 19.7258 92.4339 19.1276C91.6494 18.7288 91.0922 18.1095 91.0976 17.0968C91.0922 16.1889 91.4817 15.4962 92.0985 15.0449C92.7206 14.5936 93.5483 14.3785 94.441 14.3785C95.8367 14.3785 97.0269 14.9872 98.071 15.7429L98.9096 14.5831C97.503 13.5966 96.3074 12.9039 94.5329 12.8987C91.9578 12.8987 89.6153 14.4939 89.6099 17.186C89.6099 19.1276 90.6811 19.9987 92.0768 20.5917C93.478 21.1794 95.1821 21.426 96.3561 22.0663C97.1405 22.4861 97.6977 23.1263 97.6923 24.1338C97.6923 25.1099 97.2974 25.8655 96.6644 26.3641C96.0315 26.8573 95.1821 27.0987 94.257 27.0987C92.6124 27.104 91.5304 26.532 90.4052 25.4825L89.2691 26.427C90.4268 27.7337 92.0606 28.5786 93.8567 28.5786" fill="white"/>
<path d="M68.0406 28.5733C70.9944 28.5628 73.3585 27.1407 73.3585 24.0446C73.3477 21.9823 72.2873 21.0849 70.8862 20.5025C69.4958 19.9252 67.7917 19.7258 66.6177 19.1276C65.8333 18.7288 65.2707 18.1095 65.2761 17.0968C65.2761 16.1889 65.6656 15.4962 66.2823 15.0449C66.8991 14.5936 67.7268 14.3785 68.6248 14.3785C70.0206 14.3785 71.2054 14.9872 72.2549 15.7429L73.0988 14.5831C71.6814 13.5966 70.4912 12.9039 68.7168 12.8987C66.1471 12.8987 63.7992 14.4939 63.7884 17.186C63.7992 19.1276 64.8595 19.9987 66.2607 20.5917C67.6619 21.1794 69.366 21.426 70.5399 22.0663C71.319 22.4861 71.8762 23.1263 71.8762 24.1338C71.8762 25.1414 71.4759 25.8655 70.8483 26.3641C70.2153 26.8573 69.366 27.0987 68.4355 27.0987C66.7963 27.104 65.7197 26.532 64.589 25.4825L63.4529 26.427C64.6161 27.7337 66.2499 28.5786 68.0406 28.5786" fill="white"/>
<path d="M100.538 14.7353H102.545V24.2545C102.561 26.9308 104.017 28.4369 106.765 28.4526C107.252 28.4526 107.755 28.3739 108.209 28.2952V26.936C107.766 26.978 107.354 26.978 106.922 26.978C105.932 26.978 105.201 26.8049 104.714 26.3641C104.233 25.918 104.027 25.2358 104.027 24.286V14.7353H108.177V13.2607H104.027V8.65858L102.545 9.47196V13.2607H100.9L100.538 14.7353Z" fill="white"/>
<path d="M80.9811 25.7081L78.0002 32H79.5691L88.7443 13.2607H87.1159L81.8358 24.1705L75.8146 13.2607H74.197L80.9811 25.7081Z" fill="white"/>
<path d="M121.821 26.2486C120.387 27.7547 117.909 28.5733 115.632 28.5733C111.044 28.5733 108.139 24.9734 108.139 20.7229C108.139 16.4723 111.114 12.9354 115.632 12.9354C120.149 12.9354 123.086 16.572 123.054 20.8855H109.637C109.54 24.6796 112.25 27.2089 115.826 27.2089C118.234 27.2089 120.695 26.1122 121.794 24.1023L121.821 26.2434V26.2486ZM121.55 19.5212C121.182 16.7662 118.834 14.2945 115.659 14.2945C112.483 14.2945 109.908 16.6979 109.637 19.5212H121.55Z" fill="white"/>
<path d="M141.713 13.266C141.161 13.0403 140.49 12.8829 139.69 12.8829C139.533 12.8829 139.387 12.8934 139.24 12.9039C138.245 12.9511 137.26 13.3395 136.427 14.0007C136.395 14.0321 136.357 14.0584 136.319 14.0899C136.298 14.1109 136.27 14.1318 136.249 14.1476C135.654 14.6566 135.27 15.1919 135.075 15.5067L135.059 15.5277C135.059 15.5277 134.572 14.2368 133.171 13.4602C132.954 13.329 132.711 13.2293 132.446 13.14C131.975 12.9826 131.445 12.8829 130.812 12.8829C127.918 12.8829 126.538 15.1866 126.273 15.6904V12.9249L124.796 13.2293V28.4474H126.273V18.9072C126.273 17.5061 126.608 16.3254 127.306 15.491C128.004 14.6566 129.07 14.1843 130.471 14.1843C131.456 14.1843 132.305 14.5307 132.895 15.1394C133.501 15.7481 133.852 16.6035 133.852 17.6058V28.4474H135.335V18.9072C135.335 17.5061 135.67 16.3254 136.362 15.491C137.06 14.6566 138.121 14.1843 139.522 14.1896H139.533C140.512 14.1896 141.361 14.5307 141.962 15.1394C142.562 15.7481 142.908 16.6035 142.908 17.6058V28.4474H144.396V17.2384C144.391 15.0869 143.309 13.8275 141.707 13.2555" fill="white"/>
<path d="M146.636 8.77403C147.967 8.77403 149 9.77107 149 11.0253C149 12.2794 147.967 13.2922 146.62 13.2922C145.273 13.2922 144.223 12.3004 144.223 11.0253C144.223 9.75008 145.283 8.77403 146.62 8.77403H146.636ZM146.603 9.22532C145.586 9.22532 144.818 10.0335 144.818 11.0253C144.818 12.0171 145.581 12.8252 146.63 12.8252C147.648 12.8409 148.399 12.0276 148.399 11.0253C148.399 10.023 147.648 9.22532 146.614 9.22532H146.598H146.603ZM146.252 12.1902H145.716V9.94949C145.927 9.90751 146.219 9.86553 146.603 9.86553C147.042 9.86553 147.242 9.93375 147.409 10.044C147.534 10.1384 147.637 10.3168 147.637 10.5215C147.637 10.7839 147.437 10.978 147.155 11.0567V11.0882C147.382 11.1564 147.507 11.3349 147.577 11.6392C147.648 11.9856 147.691 12.122 147.75 12.1902H147.171C147.101 12.1063 147.058 11.9174 146.988 11.655C146.944 11.4083 146.804 11.2981 146.506 11.2981H146.252V12.1902ZM146.263 10.9256H146.517C146.814 10.9256 147.058 10.8311 147.058 10.595C147.058 10.3903 146.901 10.2539 146.56 10.2539C146.419 10.2539 146.317 10.2696 146.263 10.2853V10.9256Z" fill="white"/>
</g>
<defs>
<clipPath id="clip0_760_29802">
<rect width="149" height="32" fill="white"/>
</clipPath>
</defs>
</svg>
