<svg width="76" height="18" viewBox="0 0 76 18" fill="none" xmlns="http://www.w3.org/2000/svg">
<path d="M0 15.499V4.4711H0.0313295L6.81317 11.885V4.71722H8.32568V15.5605H8.2931L1.51126 8.14663V15.499H0Z" fill="#231F20"/>
<path d="M16.4195 7.55895V15.5605H14.9734V14.4014H14.9409C14.4634 15.2039 13.5211 15.5605 12.5963 15.5605C11.0124 15.5605 9.52992 14.8045 9.52992 12.9347V7.56021H11.0124V12.7188C11.0124 13.8765 11.8269 14.2482 12.7341 14.2482C13.907 14.2482 14.9409 13.5388 14.9409 11.8536V7.55895H16.4195Z" fill="#231F20"/>
<path d="M21.833 8.8737H19.7503V12.9498C19.7503 13.9406 20.0598 14.2482 21.1375 14.2482C21.4784 14.2482 21.8004 14.1855 22.1237 14.1553L21.8606 15.499C21.5711 15.5329 21.3067 15.5605 20.6751 15.5605C19.3029 15.5605 18.2704 14.5722 18.2704 13.1671V8.8737H17.0536L17.5787 7.55895H18.2704V5.58117L19.7503 5.22831V7.55895H21.833V8.8737Z" fill="#231F20"/>
<path d="M23.0147 15.5605V7.55895H24.4019V8.93398H24.4332C24.8806 7.94446 25.6362 7.2199 26.8392 7.2199H27.5773L26.962 8.70292C25.6374 8.62506 24.4958 9.597 24.4958 11.6225V15.5617L23.0147 15.5605Z" fill="#231F20"/>
<path d="M30.3842 7.55895H28.9043V15.5605H30.3842V7.55895Z" fill="#231F20"/>
<path d="M47.4153 15.5605C48.904 15.5542 50.0982 14.8121 50.1007 13.1972C50.0969 12.1223 49.5594 11.6526 48.8526 11.3488C48.1471 11.0486 47.2862 10.9432 46.6935 10.6305C46.2975 10.422 46.0156 10.098 46.0181 9.57064C46.0143 9.09848 46.211 8.73432 46.5243 8.50075C46.8376 8.26467 47.2561 8.15166 47.7073 8.15166C48.4128 8.15166 49.013 8.46936 49.5418 8.86366L49.9641 8.25714C49.2523 7.74354 48.6483 7.38063 47.7536 7.37938C46.4541 7.37938 45.27 8.21067 45.2674 9.6171C45.2687 10.6305 45.8075 11.085 46.5143 11.3952C47.2223 11.7016 48.0832 11.8297 48.6759 12.1637C49.0719 12.3822 49.3551 12.7162 49.3501 13.2437C49.3526 13.7535 49.1496 14.149 48.8326 14.4077C48.513 14.6639 48.0832 14.7895 47.6158 14.7895C46.7862 14.7932 46.2386 14.4931 45.6684 13.9456L45.0958 14.4404C45.681 15.1235 46.508 15.5605 47.4153 15.5605Z" fill="#231F20"/>
<path d="M34.3716 15.5605C35.8628 15.5542 37.057 14.8121 37.057 13.1972C37.052 12.1223 36.5157 11.6526 35.8077 11.3488C35.1047 11.0486 34.2451 10.9432 33.6511 10.6305C33.2564 10.422 32.9719 10.098 32.9732 9.57064C32.9707 9.09848 33.1699 8.73432 33.4819 8.50075C33.7927 8.26467 34.2125 8.15166 34.6636 8.15166C35.3679 8.15166 35.9668 8.46936 36.4969 8.86366L36.923 8.25714C36.2062 7.74354 35.6047 7.38063 34.71 7.37938C33.4105 7.37938 32.2263 8.21067 32.2213 9.6171C32.2276 10.6305 32.7639 11.085 33.4706 11.3952C34.1774 11.7016 35.0408 11.8297 35.6335 12.1637C36.027 12.3822 36.3089 12.7162 36.3089 13.2437C36.3089 13.7711 36.1072 14.149 35.7889 14.4077C35.4706 14.6639 35.0408 14.7895 34.5696 14.7895C33.7426 14.7932 33.1975 14.4931 32.626 13.9456L32.0521 14.4404C32.6398 15.1235 33.4656 15.5605 34.3716 15.5605Z" fill="#231F20"/>
<path d="M50.7874 8.33876H51.8012V13.3064C51.8087 14.7016 52.5455 15.4877 53.9327 15.4977C54.1796 15.4977 54.4327 15.4575 54.662 15.4148V14.7053C54.439 14.7267 54.2285 14.7267 54.0117 14.7267C53.5104 14.7267 53.142 14.635 52.8976 14.4052C52.6545 14.1716 52.5518 13.8175 52.5518 13.3228V8.34001H54.6483V7.56899H52.5518V5.16678L51.8024 5.59247V7.56899H50.9704L50.7874 8.33876Z" fill="#231F20"/>
<path d="M40.9066 14.0662L39.4004 17.3499H40.1936L44.8276 7.56899H44.0056L41.3389 13.2637L38.2964 7.56899H37.4806L40.9066 14.0662Z" fill="#231F20"/>
<path d="M61.5354 14.3474C60.8098 15.1323 59.5592 15.5605 58.4088 15.5605C56.0931 15.5605 54.6232 13.6806 54.6232 11.463C54.6232 9.2454 56.1257 7.40072 58.4088 7.40072C60.692 7.40072 62.1732 9.29688 62.1581 11.5497H55.3826C55.3324 13.53 56.7009 14.8497 58.5078 14.8497C59.7246 14.8497 60.9664 14.2771 61.5216 13.2286L61.5354 14.3474ZM61.3988 10.8352C61.2133 9.39734 60.0279 8.10896 58.4239 8.10896C56.8199 8.10896 55.5179 9.36469 55.3826 10.8352H61.3988Z" fill="#231F20"/>
<path d="M71.5841 7.57151C71.3046 7.45347 70.9663 7.37184 70.5615 7.37184C70.4826 7.37184 70.4086 7.37687 70.336 7.38189C69.8322 7.40575 69.3372 7.60918 68.9149 7.95325C68.8974 7.96958 68.8786 7.98213 68.8598 7.99971C68.8485 8.00976 68.836 8.02106 68.8235 8.02985C68.524 8.29607 68.3297 8.57358 68.2307 8.73934L68.2232 8.75189C68.2232 8.75189 67.9776 8.07882 67.2696 7.67322C67.1593 7.60541 67.0365 7.55141 66.9037 7.50495C66.6669 7.42333 66.3974 7.37184 66.0791 7.37184C64.618 7.37184 63.9213 8.57358 63.7872 8.83729V7.3957L63.0403 7.55518V15.4977H63.7872V10.52C63.7872 9.79039 63.9551 9.17257 64.3097 8.73683C64.6631 8.30109 65.202 8.05371 65.9087 8.05371C66.4075 8.05371 66.8348 8.23453 67.1343 8.55223C67.4413 8.86868 67.618 9.31572 67.618 9.84061V15.499H68.3661V10.5212C68.3661 9.79164 68.534 9.17382 68.8861 8.73808C69.2382 8.3036 69.7746 8.05496 70.4813 8.05747H70.4876C70.9826 8.05496 71.4111 8.23579 71.7144 8.55349C72.0164 8.86994 72.1918 9.31697 72.1918 9.84187V15.5002H72.9424V9.65226C72.9387 8.52963 72.3923 7.87288 71.5841 7.57402" fill="#231F20"/>
<path d="M33.6335 0.649902C33.6335 0.649902 30.9707 0.908586 29.7075 2.68545C28.7051 4.09815 28.9419 5.51713 29.0923 6.07342C29.4456 5.21952 30.5534 2.98557 32.923 1.53268C30.6386 3.51925 29.9344 5.66028 29.7589 6.33712C30.4807 6.30698 31.7363 6.07593 32.7388 4.94953C34.2576 3.24048 33.6335 0.649902 33.6335 0.649902Z" fill="#64A535"/>
<path d="M74.0715 5.22831C74.7432 5.22831 75.2657 5.74944 75.2657 6.40242C75.2657 7.0554 74.7432 7.58658 74.064 7.58658C73.3848 7.58658 72.8547 7.07047 72.8547 6.40242C72.8547 5.73437 73.3898 5.22831 74.064 5.22831H74.0715ZM74.0565 5.46313C73.5414 5.46313 73.1555 5.88506 73.1555 6.40116C73.1555 6.91727 73.5414 7.34045 74.0715 7.34045C74.5853 7.34799 74.9662 6.92481 74.9662 6.40116C74.9662 5.87752 74.5865 5.46313 74.064 5.46313H74.0565ZM73.8785 7.01145H73.6066V5.84362C73.7119 5.82101 73.8622 5.79967 74.0552 5.79967C74.277 5.79967 74.3773 5.83608 74.4625 5.89385C74.5264 5.94407 74.5778 6.037 74.5778 6.14374C74.5778 6.28061 74.4775 6.38107 74.3347 6.42377V6.43883C74.4499 6.47525 74.5126 6.56817 74.5489 6.72514C74.5853 6.90596 74.6066 6.97754 74.6354 7.01145H74.3422C74.3058 6.96875 74.2845 6.86955 74.2494 6.73142C74.2256 6.60333 74.1555 6.54557 74.0051 6.54557H73.8773L73.8785 7.01145ZM73.8848 6.35219H74.0138C74.1642 6.35219 74.2858 6.30322 74.2858 6.18015C74.2858 6.07216 74.2056 6.00058 74.0352 6.00058C73.9637 6.00058 73.9136 6.00937 73.8848 6.01691V6.35219Z" fill="#231F20"/>
</svg>
