<svg width="103" height="40" viewBox="0 0 103 40" fill="none" xmlns="http://www.w3.org/2000/svg">
<g clip-path="url(#clip0_1325_29251)">
<path d="M4.9955 38.8352H4.05447V24.9824H0.234375V24.1055H8.81559V24.9824H4.9955V38.8352Z" fill="#231F20"/>
<path d="M11.3191 22.7204V31.2164H11.3583C11.8849 30.2221 12.8651 29.6133 14.0414 29.6133C16.3715 29.6133 17.0213 31.06 17.0213 33.3837V38.8354H16.1419V33.3837C16.1419 31.7638 15.9458 30.4344 13.9685 30.4344C11.6944 30.4344 11.3247 32.5458 11.3247 34.378V38.8299H10.4453V22.7148H11.3247L11.3191 22.7204Z" fill="#231F20"/>
<path d="M20.0347 34.4006C19.9787 36.6852 21.5638 38.2101 23.6587 38.2101C25.0703 38.2101 26.2073 37.3722 26.8515 36.1601L27.5965 36.5902C26.7731 38.1542 25.3223 39.0312 23.5411 39.0312C20.8581 39.0312 19.1553 36.8639 19.1553 34.3056C19.1553 31.7473 20.8973 29.6191 23.5411 29.6191C26.1849 29.6191 27.9101 31.8088 27.8877 34.4062H20.0347V34.4006ZM27.0083 33.5795C26.7955 31.9205 25.4231 30.4347 23.5579 30.4347C21.6927 30.4347 20.1859 31.8814 20.0291 33.5795H27.0027H27.0083Z" fill="#231F20"/>
<path d="M36.0211 35.0594H46.0194V38.8019H31.9209V5.98535H36.0267V35.0594H36.0211Z" fill="#231F20"/>
<path d="M50.6404 29.2722C50.6852 32.7521 53.0434 36.0198 56.7962 36.0198C59.8097 36.0198 61.4229 34.4949 62.9073 32.0595L66.2233 33.9307C64.302 37.4553 60.7228 39.4997 56.7514 39.4997C50.5116 39.4997 46.7139 34.7965 46.7139 28.7918C46.7139 22.7871 50.0747 17.8213 56.6674 17.8213C63.2602 17.8213 66.2289 22.6083 66.2289 28.6577V29.2666H50.646L50.6404 29.2722ZM62.2967 26.3117C61.815 23.2674 59.8097 21.2175 56.6674 21.2175C53.5251 21.2175 51.3406 23.3959 50.8644 26.3117H62.3023H62.2967Z" fill="#231F20"/>
<path d="M88.7468 38.8074H84.8203V35.6291H84.7307C83.1567 37.936 80.7145 39.5056 77.7906 39.5056C71.5508 39.5056 68.0107 34.3276 68.0107 28.4904C68.0107 22.6533 71.7188 17.8271 77.6562 17.8271C80.6697 17.8271 83.1119 19.3912 84.7251 21.8322H84.8147V18.436H88.7412V38.8074H88.7468ZM85.0387 28.6189C85.0387 24.6586 82.6358 21.3071 78.4068 21.3071C74.1778 21.3071 71.9485 24.8317 71.9485 28.6189C71.9485 32.4061 74.2618 36.0201 78.4068 36.0201C82.5518 36.0201 85.0387 32.6239 85.0387 28.6189Z" fill="#231F20"/>
<path d="M102.234 4.98539C101.45 4.63907 100.447 4.15869 99.6126 4.15869C96.8176 4.15869 96.8176 7.68333 96.8176 9.68863V18.436H102.228V22.0947H96.8176V38.8074H92.8911V22.0947H91.0986V18.436H92.8911V8.51003C92.8911 4.06932 94.4202 0.5 99.4838 0.5C100.442 0.5 101.36 0.67316 102.234 1.01948V4.97981V4.98539Z" fill="#231F20"/>
<path d="M83.6043 3.25363C83.6043 3.25363 78.1487 3.76753 75.572 7.39829C73.522 10.2694 73.9981 13.174 74.3118 14.3023C75.0455 12.5596 77.3029 8.00156 82.148 5.0355C77.4653 9.09637 76.0314 13.4589 75.6785 14.833C77.1628 14.7771 79.717 14.3135 81.7559 12.0122C84.8646 8.53221 83.6043 3.24805 83.6043 3.24805V3.25363Z" fill="#6CB344"/>
</g>
<defs>
<clipPath id="clip0_1325_29251">
<rect width="102" height="39" fill="white" transform="translate(0.234375 0.5)"/>
</clipPath>
</defs>
</svg>
