<svg width="24" height="24" viewBox="0 0 24 24" fill="none" xmlns="http://www.w3.org/2000/svg">
<g clip-path="url(#clip0_636_126231)">
<path d="M22.0606 0H1.95897C0.882452 0 0.00976562 0.872687 0.00976562 1.9492V22.0508C0.00976562 23.1273 0.882452 24 1.95897 24H22.0606C23.1371 24 24.0098 23.1273 24.0098 22.0508V1.9492C24.0098 0.872687 23.1371 0 22.0606 0Z" fill="#4BC649"/>
<path d="M19.2989 3.58994C19.1484 3.14591 18.6667 2.90508 18.2227 3.0556C14.5425 4.29737 12.2998 6.13368 11.5548 8.49681C11.4494 8.82794 11.3892 9.15156 11.344 9.46764C10.0195 8.33876 8.02513 7.75174 5.37602 7.73669C5.15025 7.73669 4.93952 7.827 4.78148 7.98505C4.61591 8.14309 4.5256 8.36134 4.5256 8.58712C4.51055 11.5222 5.31581 13.6445 6.91882 14.9088C8.0477 15.7969 9.34215 16.0678 10.3732 16.113C9.72597 17.3472 9.40989 18.8524 9.74855 20.9145C9.81628 21.3284 10.1775 21.6219 10.5839 21.6219C10.6291 21.6219 10.6742 21.6219 10.7194 21.6144C11.1785 21.5391 11.4946 21.1026 11.4193 20.6436C11.043 18.3482 11.615 16.986 12.646 15.7668C12.6686 15.7442 12.6836 15.7216 12.7062 15.6991C12.9847 15.3755 13.3083 15.0594 13.647 14.7358C14.535 14.6078 17.3873 14.0283 18.9828 11.5975C20.3073 9.58806 20.4127 6.90132 19.2914 3.60499L19.2989 3.58994ZM6.2415 9.46012C8.4541 9.59558 9.97433 10.2202 10.7796 11.3115C11.5548 12.3726 11.487 13.6821 11.3741 14.382C10.6065 14.4648 9.10133 14.4723 7.94987 13.5617C6.93388 12.7564 6.35438 11.3792 6.23397 9.46012H6.2415ZM17.583 10.6342C16.5294 12.2447 14.6328 12.8016 13.7373 12.9822C13.3309 12.2447 12.646 10.6417 13.1728 8.99351C13.6996 7.33782 15.3102 5.98316 17.9517 4.95212C18.614 7.33782 18.4936 9.24187 17.583 10.6342Z" fill="white"/>
</g>
<defs>
<clipPath id="clip0_636_126231">
<rect width="24" height="24" fill="white" transform="translate(0.00976562)"/>
</clipPath>
</defs>
</svg>
