<?xml version="1.0" encoding="UTF-8"?>
<svg id="Layer_1" xmlns="http://www.w3.org/2000/svg" viewBox="0 0 34.06 24">
  <defs>
    <style>
      .cls-1 {
        fill: #6db33f;
      }
    </style>
  </defs>
  <path class="cls-1" d="M28.19,6.66c-.11-.12-.27-.16-.43-.11l-.68.22-.42-.59c-.1-.15-.29-.21-.46-.15l-.68.22-.42-.59c-.1-.15-.29-.21-.46-.15l-.68.22-.42-.59c-.09-.13-.25-.19-.41-.17-.16.03-.28.15-.32.3l-.66,2.57-3.58,10.7-1.02,2.46c-.06.15-.03.32.08.44s.27.16.43.11l.68-.22.42.59c.1.15.29.21.46.15l.68-.22.42.59c.1.15.29.21.46.15l.68-.22.42.59c.08.11.2.17.33.17.02,0,.05,0,.07,0,.16-.03.28-.15.32-.3l.66-2.57,3.57-10.69,1.03-2.47c.06-.15.03-.32-.08-.44ZM22.43,21.77l-.08-.11c-.08-.11-.2-.17-.33-.17-.04,0-.08,0-.13.02l-.68.22-.42-.59c-.1-.15-.29-.21-.46-.15l-.68.22-.42-.59c-.1-.15-.29-.21-.46-.15l-.12.04.54-1.3,3.59,1.2-.35,1.36ZM23.02,19.62l-3.54-1.18,3.33-9.95,3.53,1.18-3.33,9.95ZM26.63,8.91l-3.59-1.2.35-1.36.08.11c.1.15.29.21.46.15l.68-.22.42.59c.1.15.29.21.46.15l.68-.22.42.59c.1.15.29.21.46.15l.12-.04-.54,1.3Z"/>
  <path class="cls-1" d="M18.17,12.73c.23,0,.41-.18.41-.41v-1.96c0-.23-.18-.41-.41-.41h-.4v-.1c0-1.97-1.02-3.77-2.69-4.79l.36-1.06c.04-.1.03-.22-.02-.31-.05-.1-.13-.17-.24-.21l-1.54-.52c-.22-.07-.45.04-.52.26l-.36,1.06c-.2-.02-.41-.03-.61-.03-3.09,0-5.61,2.52-5.61,5.61v.1h-.38c-.23,0-.41.18-.41.41v1.96c0,.23.18.41.41.41h.82l.86,10.49c.02.21.2.38.41.38h7.79c.21,0,.39-.16.41-.38l.86-10.49h.86ZM7.37,9.86c0-2.64,2.15-4.79,4.79-4.79.28,0,.55.02.82.07.2.04.39-.08.46-.27l.33-.99.76.26-.34,1c-.06.19.02.4.2.49,1.58.83,2.56,2.46,2.56,4.24v.1H7.37v-.1ZM6.58,10.78h11.18v1.14H6.58v-1.14ZM8.14,16.7h8.02l-.33,4.06h-7.36l-.33-4.06ZM8.64,22.78l-.1-1.2h7.23l-.1,1.2h-7.03ZM16.23,15.88h-8.16l-.26-3.15h8.67l-.26,3.15Z"/>
</svg>