<?xml version="1.0" encoding="UTF-8"?>
<svg id="Layer_1" xmlns="http://www.w3.org/2000/svg" viewBox="0 0 34.06 24">
  <defs>
    <style>
      .cls-1 {
        fill: #fff;
      }

      .cls-2 {
        fill: #6db33f;
      }
    </style>
  </defs>
  <path class="cls-2" d="M12.27,11.03c-3.36,0-6.08,2.72-6.08,6.08s2.72,6.08,6.08,6.08,6.08-2.72,6.08-6.08-2.72-6.08-6.08-6.08ZM12.27,21c-2.15,0-3.89-1.75-3.89-3.89s1.75-3.89,3.89-3.89,3.89,1.75,3.89,3.89-1.75,3.89-3.89,3.89Z"/>
  <circle class="cls-2" cx="12.27" cy="17.11" r="3.07"/>
  <path class="cls-1" d="M12.27,13.22c-2.15,0-3.89,1.75-3.89,3.89s1.75,3.89,3.89,3.89,3.89-1.75,3.89-3.89-1.75-3.89-3.89-3.89ZM12.27,20.18c-1.69,0-3.07-1.38-3.07-3.07s1.38-3.07,3.07-3.07,3.07,1.38,3.07,3.07-1.38,3.07-3.07,3.07Z"/>
  <path class="cls-2" d="M23.18,16.84c-1.75,0-3.17,1.42-3.17,3.17s1.42,3.17,3.17,3.17,3.17-1.42,3.17-3.17-1.42-3.17-3.17-3.17Z"/>
  <circle class="cls-2" cx="14.44" cy="6.43" r="3.17"/>
  <path class="cls-2" d="M23.32,6.04c-2.51,0-4.55,2.04-4.55,4.55s2.04,4.55,4.55,4.55,4.55-2.04,4.55-4.55-2.04-4.55-4.55-4.55ZM23.32,13.48c-1.59,0-2.89-1.29-2.89-2.89s1.3-2.89,2.89-2.89,2.89,1.29,2.89,2.89-1.29,2.89-2.89,2.89Z"/>
  <path class="cls-2" d="M23.32,8.52c-1.14,0-2.07.93-2.07,2.07s.93,2.07,2.07,2.07,2.07-.93,2.07-2.07-.93-2.07-2.07-2.07Z"/>
  <path class="cls-1" d="M23.32,7.71c-1.59,0-2.89,1.29-2.89,2.89s1.3,2.89,2.89,2.89,2.89-1.29,2.89-2.89-1.29-2.89-2.89-2.89ZM23.32,12.66c-1.14,0-2.07-.93-2.07-2.07s.93-2.07,2.07-2.07,2.07.93,2.07,2.07-.93,2.07-2.07,2.07Z"/>
</svg>