<?xml version="1.0" encoding="UTF-8"?>
<svg id="Layer_1" xmlns="http://www.w3.org/2000/svg" viewBox="0 0 34.06 24">
  <defs>
    <style>
      .cls-1 {
        fill: #fff;
      }

      .cls-2 {
        fill: #6db33f;
      }
    </style>
  </defs>
  <path class="cls-2" d="M28.49,8.03h0s-5.47-4.98-5.47-4.98c-.08-.07-.17-.11-.28-.11H5.85c-.23,0-.41.18-.41.41v14.87c0,.12.05.23.13.3l5.47,4.98h0c.07.06.17.11.27.11h16.89c.23,0,.41-.18.41-.41v-14.87c0-.12-.05-.23-.14-.3ZM17.76,8.74h4.01v4.46l-2.06-1.24-1.95,1.03v-4.25ZM21.32,7.92h-4.01l-4.57-4.16h4.01l4.57,4.16Z"/>
  <polygon class="cls-1" points="17.31 7.92 21.32 7.92 16.75 3.76 12.74 3.76 17.31 7.92"/>
  <polygon class="cls-1" points="21.77 13.2 21.77 8.74 17.76 8.74 17.76 12.99 19.71 11.96 21.77 13.2"/>
</svg>