<?xml version="1.0" encoding="UTF-8"?>
<svg id="Layer_1" xmlns="http://www.w3.org/2000/svg" viewBox="0 0 34.06 24">
  <defs>
    <style>
      .cls-1 {
        fill: none;
      }

      .cls-2 {
        fill: #fff;
      }

      .cls-3 {
        fill: #6db33f;
      }
    </style>
  </defs>
  <path class="cls-1" d="M23.76,17.61l.33-.82c-.79-.02-1.3-.22-1.88-.72-.19.68-.45,1.33-.78,1.96.77.02,1.28.23,1.86.77l.47-1.18Z"/>
  <path class="cls-3" d="M33.78,20.19c-.22-.52-.64-.92-1.16-1.12l-7.78-3.08c-.05-.02-.11-.03-.17-.03,0,0,0,0,0,0-1.11.06-1.53-.08-2.26-.81.14-.77.2-1.56.17-2.36-.13-2.75-1.33-5.29-3.37-7.14-2.04-1.85-4.68-2.8-7.43-2.67-2.75.13-5.29,1.33-7.14,3.37-1.85,2.04-2.8,4.68-2.67,7.43.13,2.75,1.33,5.29,3.37,7.14,1.92,1.74,4.36,2.68,6.93,2.68.17,0,.34,0,.51-.01,2.75-.13,5.29-1.33,7.14-3.37.39-.43.73-.89,1.04-1.36,1.05-.07,1.42.1,2.19.95,0,0,0,0,.01,0,.02.02.05.04.08.06.02.01.03.03.05.03,0,0,0,0,0,0l7.78,3.08c.25.1.52.15.78.15.84,0,1.64-.51,1.97-1.33h0c.21-.53.2-1.1-.03-1.62ZM12.18,6.8c.04.3.06.39.16.44.1.05.19.02.45-.13.29-.16.72-.39,1.22-.13.49.26.55.75.59,1.07.04.3.06.39.16.44.09.05.19.01.45-.13.29-.16.72-.39,1.22-.13s.55.75.59,1.07c.04.3.06.39.16.44.09.05.19.02.45-.13.29-.15.72-.39,1.22-.13.2.1.28.35.17.55s-.35.28-.55.17c-.09-.05-.19-.02-.45.13-.2.1-.46.25-.76.25-.14,0-.3-.03-.46-.12-.49-.26-.55-.75-.59-1.07-.04-.3-.06-.39-.16-.44-.09-.05-.19-.02-.45.13-.29.15-.72.39-1.22.13-.49-.26-.55-.75-.59-1.07-.04-.3-.06-.39-.16-.44-.1-.05-.19-.02-.45.13-.29.16-.72.39-1.22.13-.49-.26-.55-.75-.59-1.07-.04-.3-.06-.39-.16-.44-.2-.1-.28-.35-.17-.55.1-.2.35-.28.55-.17.5.26.55.75.59,1.07ZM11.29,8.3c.47.24.49.73.5,1.06,0,.14.02.34.06.37.04.02.22-.08.34-.16.27-.17.69-.44,1.15-.19.47.24.49.73.51,1.06,0,.14.02.34.07.37.05.03.22-.08.34-.16.27-.17.69-.43,1.15-.19.2.1.28.35.17.55-.11.2-.36.28-.55.17-.05-.03-.22.08-.34.16-.19.12-.46.29-.76.29-.12,0-.26-.03-.39-.1-.47-.24-.49-.73-.51-1.06,0-.14-.02-.34-.07-.37-.05-.02-.22.08-.34.16-.27.17-.69.43-1.15.19-.47-.24-.49-.73-.5-1.06,0-.14-.02-.34-.06-.37-.06-.02-.23.09-.33.16-.27.18-.69.44-1.15.2-.47-.24-.49-.73-.5-1.06,0-.14-.01-.34-.06-.37-.2-.1-.28-.35-.17-.55.11-.2.35-.28.55-.17.47.24.49.73.5,1.06,0,.14.02.34.06.37.04.02.22-.09.33-.16.27-.17.68-.44,1.15-.2ZM8.92,10.7c.29-.15.73-.39,1.22-.13.5.26.56.75.6,1.07.04.3.06.4.16.45.1.05.19.02.46-.12.29-.15.73-.39,1.22-.13.5.26.56.75.6,1.07.04.3.06.4.17.45.1.05.19.02.46-.12.29-.15.73-.39,1.22-.13.2.1.28.35.17.55-.1.2-.35.28-.55.17-.1-.05-.19-.02-.46.12-.2.1-.46.24-.76.24-.15,0-.3-.03-.46-.12-.5-.26-.56-.75-.6-1.08-.04-.3-.06-.4-.16-.45-.1-.05-.19-.02-.46.12-.29.15-.73.39-1.22.13-.5-.26-.56-.75-.6-1.07-.04-.3-.06-.4-.16-.45-.1-.05-.19-.02-.46.12-.29.15-.73.39-1.22.13-.5-.26-.56-.75-.6-1.07-.04-.3-.06-.4-.16-.45-.2-.1-.28-.35-.17-.55.11-.2.35-.28.55-.17.5.26.56.75.6,1.07.04.3.06.4.16.45.1.05.19.02.46-.12ZM9.57,19.49c.19.12.25.37.13.56-.08.12-.21.19-.35.19-.07,0-.15-.02-.22-.06-.45-.28-.75-.71-.87-1.23-.12-.51-.03-1.04.25-1.49.58-.92,1.79-1.2,2.71-.62.19.12.25.37.13.56-.12.19-.37.25-.56.13-.54-.33-1.25-.17-1.58.36s-.17,1.25.36,1.58ZM10.67,13.84c.09-.21.33-.3.54-.21.21.09.3.33.21.54-.26.58,0,1.26.59,1.52.28.12.59.13.88.02.29-.11.51-.33.64-.61.09-.21.33-.3.54-.21.21.09.3.33.21.54-.21.48-.6.85-1.09,1.04-.23.09-.47.13-.71.13-.27,0-.54-.06-.8-.17-.99-.44-1.44-1.6-1-2.6ZM7.71,12.58l.85.37c.79.35,1.15,1.28.8,2.08l-.24.55c-.35.79-1.28,1.15-2.08.8l-.85-.37c-.79-.35-1.15-1.28-.8-2.08l.24-.55c.35-.79,1.28-1.15,2.08-.8ZM12.16,18.93c-.14-.24-.02-.55.24-.64l3.77-1.31c.26-.09.55.08.58.36.14,1.14-.53,2.26-1.65,2.65-1.13.39-2.34-.07-2.94-1.05ZM16.46,14.16c-.27-.83.18-1.73,1.02-2,.83-.27,1.73.18,2,1.02.27.83-.18,1.73-1.02,2-.83.27-1.73-.18-2-1.02ZM21.43,18.03c.33-.63.59-1.28.78-1.96.58.5,1.1.69,1.88.72l-.33.82-.47,1.18c-.58-.54-1.09-.75-1.86-.77Z"/>
  <path class="cls-2" d="M8.46,10.82c-.1-.05-.12-.15-.16-.45-.04-.33-.1-.82-.6-1.07-.2-.1-.45-.03-.55.17-.1.2-.03.45.17.55.1.05.12.15.16.45.04.33.1.82.6,1.07.49.26.93.03,1.22-.13.27-.14.36-.17.46-.12.1.05.13.15.16.45.04.33.1.82.6,1.07.49.26.93.03,1.22-.13.27-.14.36-.17.46-.12.1.05.13.15.16.45.04.33.1.82.6,1.08.16.08.32.12.46.12.3,0,.57-.14.76-.24.27-.14.36-.17.46-.12.2.11.45.03.55-.17.1-.2.03-.45-.17-.55-.5-.26-.93-.03-1.22.13-.27.14-.36.18-.46.12-.1-.05-.13-.15-.17-.45-.04-.33-.1-.82-.6-1.07-.5-.26-.93-.03-1.22.13-.27.14-.36.17-.46.12-.1-.05-.12-.15-.16-.45-.04-.33-.1-.82-.6-1.07-.49-.26-.93-.03-1.22.13-.27.14-.36.18-.46.12Z"/>
  <path class="cls-2" d="M10.14,8.5c-.11.07-.29.18-.33.16-.05-.02-.06-.23-.06-.37-.01-.32-.04-.81-.5-1.06-.2-.1-.45-.03-.55.17-.1.2-.03.45.17.55.05.02.06.23.06.37.01.32.04.81.5,1.06.47.25.88-.02,1.15-.2.11-.07.27-.18.33-.16.05.03.06.23.06.37.01.32.04.81.5,1.06.46.24.88-.02,1.15-.19.12-.07.29-.18.34-.16.05.03.06.22.07.37.01.32.04.81.51,1.06.13.07.27.1.39.1.3,0,.57-.17.76-.29.12-.08.29-.19.34-.16.2.1.45.03.55-.17.1-.2.03-.45-.17-.55-.46-.24-.88.02-1.15.19-.12.08-.29.18-.34.16-.05-.03-.06-.22-.07-.37-.01-.32-.04-.81-.51-1.06-.46-.24-.88.02-1.15.19-.12.07-.29.17-.34.16-.05-.03-.06-.23-.06-.37-.01-.32-.04-.81-.5-1.06-.47-.24-.88.02-1.15.2Z"/>
  <path class="cls-2" d="M11.03,5.9c-.1.2-.03.45.17.55.09.05.12.14.16.44.04.33.1.82.59,1.07.5.26.93.02,1.22-.13.26-.14.36-.18.45-.13.1.05.12.14.16.44.04.33.1.82.59,1.07.5.26.93.02,1.22-.13.27-.14.36-.17.45-.13.1.05.12.15.16.44.04.33.1.82.59,1.07.16.08.31.12.46.12.3,0,.57-.14.76-.25.27-.14.36-.18.45-.13.2.1.45.03.55-.17s.03-.45-.17-.55c-.5-.26-.93-.02-1.22.13-.27.14-.36.18-.45.13-.1-.05-.12-.15-.16-.44-.04-.33-.1-.82-.59-1.07s-.93-.02-1.22.13c-.26.14-.36.18-.45.13-.1-.05-.12-.14-.16-.44-.04-.33-.1-.82-.59-1.07-.5-.26-.93-.02-1.22.13-.26.14-.35.18-.45.13-.09-.05-.12-.14-.16-.44-.04-.33-.1-.82-.59-1.07-.2-.1-.45-.03-.55.17Z"/>
  <path class="cls-2" d="M7.07,12.45h.6c.87,0,1.57.71,1.57,1.57v.92c0,.87-.71,1.57-1.57,1.57h-.6c-.87,0-1.57-.71-1.57-1.57v-.92c0-.87.71-1.57,1.57-1.57Z" transform="translate(-8.86 15.35) rotate(-66.1)"/>
  <path class="cls-2" d="M15.1,19.99c1.13-.39,1.79-1.51,1.65-2.65-.03-.27-.32-.45-.58-.36l-3.77,1.31c-.26.09-.38.4-.24.64.6.98,1.81,1.44,2.94,1.05Z"/>
  <path class="cls-2" d="M10.79,17.54c.19.12.45.06.56-.13.12-.19.06-.44-.13-.56-.92-.58-2.13-.3-2.71.62-.28.45-.37.97-.25,1.49.12.51.43.95.87,1.23.07.04.14.06.22.06.14,0,.27-.07.35-.19.12-.19.06-.44-.13-.56-.54-.34-.7-1.05-.36-1.58s1.05-.7,1.58-.36Z"/>
  <path class="cls-2" d="M12.46,16.61c.24,0,.48-.04.71-.13.49-.19.88-.56,1.09-1.04.09-.21,0-.45-.21-.54-.21-.09-.45,0-.54.21-.12.28-.35.5-.64.61-.29.11-.6.1-.88-.02-.58-.26-.84-.94-.59-1.52.09-.21,0-.45-.21-.54-.21-.09-.45,0-.54.21-.44.99,0,2.16,1,2.6.25.11.53.17.8.17Z"/>
  <path class="cls-2" d="M18.45,15.18c.83-.27,1.29-1.17,1.02-2-.27-.83-1.17-1.29-2-1.02-.83.27-1.29,1.17-1.02,2,.27.83,1.17,1.29,2,1.02Z"/>
</svg>