<?xml version="1.0" encoding="UTF-8"?>
<svg id="Layer_1" xmlns="http://www.w3.org/2000/svg" viewBox="0 0 34.06 24">
  <defs>
    <style>
      .cls-1 {
        fill: none;
      }

      .cls-2 {
        fill: #fff;
      }

      .cls-3 {
        fill: #6db33f;
      }
    </style>
  </defs>
  <path class="cls-1" d="M16.95,9.86c0-1.78-.98-3.41-2.56-4.24-.18-.09-.26-.3-.2-.49l.33-1-.76-.26-.33.99c-.06.19-.25.31-.46.27-.27-.05-.54-.07-.82-.07-2.64,0-4.79,2.15-4.79,4.79v.1h9.58v-.1Z"/>
  <path class="cls-1" d="M26.63,8.91l.54-1.3-.12.04c-.17.06-.36,0-.46-.15l-.42-.58-.68.22c-.17.06-.36,0-.46-.15l-.42-.59-.68.22c-.17.06-.36,0-.46-.15l-.08-.11-.35,1.36,3.59,1.2Z"/>
  <polygon class="cls-1" points="16.93 11.91 17.76 11.91 17.76 10.78 6.58 10.78 6.58 11.91 7.37 11.91 16.93 11.91"/>
  <path class="cls-1" d="M19.19,19.21l-.54,1.3.12-.04c.17-.06.36,0,.46.15l.42.59.68-.22c.17-.06.36,0,.46.15l.42.59.68-.22s.08-.02.13-.02c.13,0,.26.06.33.17l.08.11.35-1.36-3.59-1.2Z"/>
  <path class="cls-3" d="M28.19,6.66c-.11-.12-.28-.16-.43-.11l-.68.22-.42-.58c-.1-.15-.29-.21-.46-.15l-.68.22-.42-.59c-.1-.15-.29-.21-.46-.15l-.68.22-.42-.59c-.09-.13-.25-.19-.41-.17-.16.03-.28.15-.32.3l-.66,2.57-3.58,10.7-1.02,2.46c-.06.15-.03.32.08.44.11.12.27.16.43.11l.68-.22.42.59c.1.15.29.21.46.15l.68-.22.42.59c.1.15.29.21.46.15l.68-.22.42.58c.08.11.2.17.33.17.02,0,.05,0,.07,0,.16-.03.28-.15.32-.3l.66-2.57,3.58-10.71,1.02-2.46c.06-.15.03-.32-.08-.43ZM23.39,6.35l.08.11c.1.15.29.21.46.15l.68-.22.42.59c.1.15.29.21.46.15l.68-.22.42.58c.1.15.29.21.46.15l.12-.04-.54,1.3-3.59-1.2.35-1.36ZM22.43,21.77l-.08-.11c-.08-.11-.2-.17-.33-.17-.04,0-.08,0-.13.02l-.68.22-.42-.59c-.1-.15-.29-.21-.46-.15l-.68.22-.42-.59c-.1-.15-.29-.21-.46-.15l-.12.04.54-1.3,3.59,1.2-.35,1.36Z"/>
  <path class="cls-3" d="M17.31,12.73h.86c.23,0,.41-.18.41-.41v-1.96c0-.23-.18-.41-.41-.41h-.4v-.1c0-1.97-1.02-3.77-2.69-4.79l.36-1.06c.04-.1.03-.22-.02-.31-.05-.1-.13-.17-.24-.21l-1.54-.52c-.1-.04-.22-.03-.31.02-.1.05-.17.13-.21.24l-.36,1.06c-.2-.02-.41-.03-.61-.03-3.09,0-5.61,2.52-5.61,5.61v.1h-.38c-.23,0-.41.18-.41.41v1.96c0,.23.18.41.41.41h.82l.86,10.5c.02.21.2.38.41.38h7.79c.21,0,.39-.16.41-.38l.16-1.97s.01-.04.02-.06l.39-4.88s0,0,0,0l.29-3.58ZM16.17,16.7l-.32,4.06h-7.37l-.33-4.06h8.03ZM7.37,9.86c0-2.64,2.15-4.79,4.79-4.79.28,0,.55.02.82.07.2.03.39-.08.46-.27l.33-.99.76.26-.33,1c-.06.19.02.4.2.49,1.58.83,2.56,2.46,2.56,4.24v.1H7.37v-.1ZM6.58,10.78h11.18v1.14H6.58v-1.14Z"/>
  <polygon class="cls-2" points="8.47 20.76 15.84 20.76 16.17 16.7 8.14 16.7 8.47 20.76"/>
</svg>