<?xml version="1.0" encoding="UTF-8"?>
<svg id="Layer_1" xmlns="http://www.w3.org/2000/svg" viewBox="0 0 34.06 24">
  <defs>
    <style>
      .cls-1 {
        fill: #6db33f;
      }
    </style>
  </defs>
  <path class="cls-1" d="M26.81,11.11c-.04-.17-.19-.3-.36-.31-.19-.01-.34.08-.41.25-.32.75-1.06,1.23-1.87,1.23-.44,0-.87-.14-1.22-.4-.09-.07-.22-.1-.33-.07-.11.02-.21.09-.27.19-.3.51-.84.82-1.43.82-.91,0-1.66-.74-1.66-1.66,0-.08,0-.16.02-.23.03-.2-.09-.4-.29-.45-.85-.26-1.45-1.06-1.45-1.95,0-.45.15-.88.42-1.24.09-.12.11-.28.05-.42-.12-.27-.18-.55-.18-.84,0-.69.35-1.33.93-1.71.14-.09.21-.26.18-.43-.04-.17-.17-.29-.34-.32-.51-.08-1.04-.12-1.56-.12-5.55,0-10.07,4.52-10.07,10.07s4.52,10.07,10.07,10.07,10.07-4.52,10.07-10.07c0-.81-.1-1.63-.29-2.42ZM17.03,22.78c-5.1,0-9.25-4.15-9.25-9.25s4.15-9.25,9.25-9.25c.19,0,.38,0,.57.02-.38.49-.59,1.1-.59,1.74,0,.33.05.65.16.95-.3.46-.45.99-.45,1.54,0,.04,0,.08,0,.13l-1.14-.35c-.27-.08-.58-.01-.79.18-.21.2-.3.49-.24.78l.37,1.59c.07.28.28.51.55.59.08.02.16.04.24.04.21,0,.4-.08.55-.22l1.06-.99c.29.37.67.68,1.11.88v.02c0,1.37,1.11,2.48,2.47,2.48.73,0,1.43-.33,1.89-.88,1.09.59,2.54.36,3.39-.51.06.42.09.85.09,1.28,0,5.1-4.15,9.25-9.25,9.25ZM16.91,9.55l-1.18,1.1-.38-1.56,1.56.46Z"/>
  <path class="cls-1" d="M11,10.06h2.04c.29,0,.56-.15.7-.41.14-.25.14-.56,0-.81l-1.02-1.76c-.29-.5-1.11-.5-1.41,0l-1.02,1.76c-.15.25-.15.56,0,.81.14.25.41.41.7.41ZM12.01,7.49l1.03,1.75h-2.02l1-1.75Z"/>
  <path class="cls-1" d="M10.87,15.36c.28-.08.5-.3.57-.57l.53-1.97c.07-.28,0-.58-.21-.79-.21-.2-.5-.29-.78-.21l-1.96.53c-.28.07-.5.29-.57.57-.08.28,0,.58.21.78l1.44,1.44c.15.15.36.24.57.24.07,0,.13,0,.21-.03ZM9.22,13.15l1.96-.54-.52,1.96-1.44-1.42Z"/>
  <path class="cls-1" d="M15.35,15.3c.21,0,.4-.08.55-.22.21-.2.3-.49.24-.78l-.36-1.59c-.07-.28-.28-.51-.55-.59-.28-.08-.58-.01-.79.18l-1.19,1.11c-.21.2-.3.49-.24.78.07.28.28.51.55.59l1.56.48c.08.02.16.04.24.04ZM14.98,12.91l.36,1.57-1.54-.46,1.18-1.11Z"/>
  <path class="cls-1" d="M20.83,14.02c-.23-.16-.54-.19-.81-.07l-1.85.86c-.26.12-.44.38-.47.67-.02.29.11.57.34.73l1.67,1.17c.14.1.3.15.47.15.12,0,.24-.03.34-.08.26-.12.44-.38.47-.66l.18-2.03c.02-.29-.11-.57-.34-.73ZM20.18,16.7l-1.66-1.15,1.83-.87-.18,2.02Z"/>
  <path class="cls-1" d="M17.13,17.09l-1.92-.7c-.27-.1-.58-.04-.8.14-.22.19-.33.48-.28.76l.35,2c.05.28.25.52.52.62.09.03.18.05.28.05.19,0,.38-.07.52-.19l1.56-1.31c.22-.19.33-.48.28-.76-.05-.28-.25-.52-.52-.62ZM15.3,19.14l-.36-1.98,1.91.68-1.55,1.3Z"/>
  <path class="cls-1" d="M20.19,18.75s-.09,0-.11,0l-1.61.22c-.29.04-.53.23-.64.5-.11.27-.07.57.11.8l1,1.28c.15.2.39.31.64.31.02,0,.09,0,.11,0,.29-.04.53-.23.64-.5l.61-1.51c.11-.27.07-.57-.11-.8-.15-.2-.39-.31-.64-.31ZM19.58,21.05l-1-1.26,1.6-.23-.61,1.5Z"/>
  <path class="cls-1" d="M12.11,16.42c-.2-.2-.51-.29-.78-.21-.28.07-.5.29-.57.57l-.42,1.57c-.08.28,0,.58.21.78.15.15.36.24.57.24.07,0,.14,0,.21-.03l1.57-.42c.28-.07.5-.29.57-.57.07-.28,0-.58-.21-.78l-1.15-1.15ZM11.13,18.55l.4-1.56,1.15,1.14-1.56.42Z"/>
  <path class="cls-1" d="M24.36,14.36c-.29-.5-1.12-.5-1.41,0l-.82,1.41c-.14.25-.14.56,0,.81.15.25.41.4.7.4h1.63c.29,0,.56-.16.7-.41.14-.25.14-.56,0-.81l-.81-1.41ZM22.85,16.17l.79-1.4.82,1.4h-1.62Z"/>
</svg>