<?xml version="1.0" encoding="UTF-8"?>
<svg id="Layer_1" xmlns="http://www.w3.org/2000/svg" viewBox="0 0 34.06 24">
  <defs>
    <style>
      .cls-1 {
        fill: #6db33f;
      }
    </style>
  </defs>
  <path class="cls-1" d="M28.49,8.03h0s-5.47-4.98-5.47-4.98c-.08-.07-.17-.11-.28-.11H5.85c-.23,0-.41.18-.41.41v14.87c0,.12.05.23.13.3l5.47,4.98h0c.07.06.17.11.27.11h16.89c.23,0,.41-.18.41-.41v-14.87c0-.12-.05-.23-.14-.3ZM27.15,7.92h-5.22l-4.57-4.16h5.22l4.57,4.16ZM6.91,3.76h5.22l4.57,4.16h-5.22L6.91,3.76ZM17.92,7.92l-4.57-4.16h2.79l4.57,4.16h-2.79ZM18.17,8.74h3.19v3.73l-1.44-.86c-.12-.07-.28-.08-.4-.01l-1.35.72v-3.57ZM6.26,4.28l4.65,4.23v13.76l-4.65-4.23V4.28ZM27.8,22.78H11.73v-14.05h5.62v4.25c0,.14.08.28.2.35.12.07.28.08.4.01l1.75-.93,1.86,1.12c.06.04.14.06.21.06.07,0,.14-.02.2-.05.13-.07.21-.21.21-.36v-4.46h5.62v14.05Z"/>
</svg>