<?xml version="1.0" encoding="UTF-8"?>
<svg id="Layer_1" xmlns="http://www.w3.org/2000/svg" viewBox="0 0 34.06 24">
  <defs>
    <style>
      .cls-1 {
        fill: #6db33f;
      }
    </style>
  </defs>
  <g id="Leaf">
    <path class="cls-1" d="M11.44,23.6c-.12,0-.24-.06-.32-.15-.08-.1-.11-.23-.08-.36.46-1.78,2.19-7.2,7.18-12.96-5.11,4.58-7.73,9.88-8.73,12.3-.07.16-.23.26-.4.25-.17-.01-.32-.13-.37-.3-.54-1.97-1.39-7.1,2.21-12.16,4.47-6.28,13.63-7.23,14.02-7.27.21-.03.39.11.44.31.09.38,2.17,9.32-3.22,15.37-3.65,4.09-8.28,4.88-10.71,4.98,0,0-.01,0-.02,0ZM22.5,6.02c.13,0,.25.06.33.17.13.17.1.41-.06.55-7.38,6.41-10,13.33-10.78,16.01,2.4-.19,6.38-1.1,9.57-4.67,4.52-5.07,3.43-12.56,3.11-14.27-1.74.25-9.3,1.6-13.07,6.89-2.82,3.96-2.75,7.96-2.35,10.27,1.68-3.61,5.6-10.32,13.05-14.88.07-.04.14-.06.21-.06Z"/>
  </g>
</svg>