<?xml version="1.0" encoding="UTF-8"?>
<svg id="Layer_1" xmlns="http://www.w3.org/2000/svg" viewBox="0 0 34.06 24">
  <defs>
    <style>
      .cls-1 {
        fill: #fff;
      }

      .cls-2 {
        fill: #6db33f;
      }
    </style>
  </defs>
  <path class="cls-2" d="M26.81,11.11c-.04-.17-.19-.3-.36-.31-.19-.02-.34.08-.41.25-.32.75-1.06,1.23-1.87,1.23-.44,0-.87-.14-1.22-.41-.09-.07-.21-.1-.33-.07-.11.02-.21.09-.27.19-.3.51-.84.82-1.43.82-.91,0-1.66-.74-1.66-1.66,0-.08,0-.16.02-.23.03-.2-.09-.4-.29-.45-.85-.26-1.45-1.06-1.45-1.95,0-.45.15-.88.42-1.24.09-.12.11-.28.05-.42-.12-.26-.18-.55-.18-.84,0-.69.35-1.33.92-1.71.14-.09.21-.26.18-.43-.04-.17-.17-.29-.34-.32-.51-.08-1.04-.12-1.56-.12-5.55,0-10.07,4.52-10.07,10.07s4.52,10.07,10.07,10.07,10.07-4.52,10.07-10.07c0-.81-.1-1.63-.29-2.42ZM23.65,14.37c.14,0,.28.08.35.2l.81,1.41c.07.12.07.28,0,.4-.07.12-.2.2-.35.2h-1.63c-.14,0-.28-.08-.35-.2-.07-.12-.07-.28,0-.4l.81-1.41c.07-.12.2-.2.35-.2ZM20.59,16.75c-.01.14-.1.27-.23.33-.05.03-.11.04-.17.04-.08,0-.16-.02-.23-.07l-1.67-1.17c-.12-.08-.18-.22-.17-.36.01-.14.1-.27.23-.33l1.85-.86c.05-.03.11-.04.17-.04.08,0,.16.02.23.07.12.08.18.22.17.36l-.18,2.03ZM20.56,19.71l-.61,1.51c-.05.13-.17.23-.32.25-.02,0-.04,0-.06,0-.12,0-.24-.06-.32-.15l-1-1.28c-.09-.11-.11-.26-.06-.4.05-.13.17-.23.32-.25l1.61-.22s.04,0,.06,0c.12,0,.24.06.32.15.09.11.11.26.06.4ZM14.72,12.61c.08-.07.17-.11.27-.11.04,0,.08,0,.12.02.14.04.24.15.27.29l.36,1.59c.03.14-.01.29-.12.38-.08.07-.17.11-.27.11-.04,0-.08,0-.12-.02l-1.56-.48c-.14-.04-.24-.15-.27-.29s.01-.29.12-.38l1.19-1.11ZM10.65,9.05l1.02-1.76c.07-.12.2-.2.35-.2s.28.08.35.2l1.02,1.76c.07.12.07.28,0,.4-.07.12-.2.2-.35.2h-2.04c-.14,0-.28-.08-.35-.2-.07-.12-.07-.28,0-.4ZM13.07,18.25c-.04.14-.15.25-.28.28l-1.57.42s-.07.01-.1.01c-.11,0-.21-.04-.28-.12-.1-.1-.14-.25-.1-.39l.42-1.57c.04-.14.15-.25.28-.28.03,0,.07-.01.1-.01.11,0,.21.04.28.12l1.15,1.15c.1.1.14.25.1.39ZM11.08,12.22s.07-.01.1-.01c.11,0,.21.04.28.12.1.1.14.25.1.39l-.53,1.97c-.04.14-.15.25-.28.28-.03,0-.07.01-.1.01-.11,0-.21-.04-.28-.12l-1.44-1.44c-.1-.1-.14-.25-.1-.39.04-.14.15-.25.28-.28l1.97-.53ZM15.29,19.56s-.09,0-.14-.02c-.13-.05-.23-.17-.26-.31l-.35-2.01c-.02-.14.03-.29.14-.38.07-.06.17-.09.26-.09.05,0,.09,0,.14.02l1.91.7c.13.05.23.17.26.31.02.14-.03.29-.14.38l-1.56,1.31c-.07.06-.17.09-.26.09ZM16,10.96c-.08.07-.17.11-.27.11-.04,0-.08,0-.12-.02-.14-.04-.24-.15-.27-.29l-.37-1.59c-.03-.14.01-.29.12-.38.08-.07.17-.11.27-.11.04,0,.08,0,.12.02l1.56.47c.14.04.24.15.27.29.03.14-.01.29-.12.38l-1.19,1.11Z"/>
  <path class="cls-1" d="M11,9.65h2.04c.14,0,.28-.08.35-.2.07-.12.07-.28,0-.4l-1.02-1.76c-.07-.12-.2-.2-.35-.2s-.28.08-.35.2l-1.02,1.76c-.07.12-.07.28,0,.4.07.12.2.2.35.2Z"/>
  <path class="cls-1" d="M8.83,13.04c-.04.14,0,.29.1.39l1.44,1.44c.08.08.18.12.28.12.03,0,.07,0,.1-.01.14-.04.25-.15.28-.28l.53-1.97c.04-.14,0-.29-.1-.39-.08-.08-.18-.12-.28-.12-.03,0-.07,0-.1.01l-1.97.53c-.14.04-.25.15-.28.28Z"/>
  <path class="cls-1" d="M13.68,14.4l1.56.48s.08.02.12.02c.1,0,.2-.04.27-.11.11-.1.15-.24.12-.38l-.36-1.59c-.03-.14-.14-.25-.27-.29-.04-.01-.08-.02-.12-.02-.1,0-.2.04-.27.11l-1.19,1.11c-.11.1-.15.24-.12.38s.14.25.27.29Z"/>
  <path class="cls-1" d="M20.6,14.35c-.07-.05-.15-.07-.23-.07-.06,0-.12.01-.17.04l-1.85.86c-.13.06-.22.19-.23.33-.01.14.05.28.17.36l1.67,1.17c.07.05.15.07.23.07.06,0,.12-.01.17-.04.13-.06.22-.19.23-.33l.18-2.03c.01-.14-.05-.28-.17-.36Z"/>
  <path class="cls-1" d="M17.25,17.78c-.02-.14-.12-.26-.26-.31l-1.91-.7s-.09-.02-.14-.02c-.09,0-.18.03-.26.09-.11.09-.16.24-.14.38l.35,2.01c.02.14.12.26.26.31.04.02.09.02.14.02.09,0,.18-.03.26-.09l1.56-1.31c.11-.09.16-.24.14-.38Z"/>
  <path class="cls-1" d="M20.19,19.15s-.04,0-.06,0l-1.61.22c-.14.02-.26.11-.32.25-.05.13-.03.28.06.4l1,1.28c.08.1.19.15.32.15.02,0,.04,0,.06,0,.14-.02.26-.11.32-.25l.61-1.51c.05-.13.03-.28-.06-.4-.08-.1-.19-.15-.32-.15Z"/>
  <path class="cls-1" d="M11.54,16.59s-.07,0-.1.01c-.14.04-.25.15-.28.28l-.42,1.57c-.04.14,0,.29.1.39.08.08.18.12.28.12.03,0,.07,0,.1-.01l1.57-.42c.14-.04.25-.15.28-.28.04-.14,0-.29-.1-.39l-1.15-1.15c-.08-.08-.18-.12-.28-.12Z"/>
  <path class="cls-1" d="M22.49,16.38c.07.12.2.2.35.2h1.63c.14,0,.28-.08.35-.2.07-.12.07-.28,0-.4l-.81-1.41c-.07-.12-.2-.2-.35-.2s-.28.08-.35.2l-.81,1.41c-.07.12-.07.28,0,.4Z"/>
  <path class="cls-1" d="M17.3,9.46c-.03-.14-.14-.25-.27-.29l-1.56-.47s-.08-.02-.12-.02c-.1,0-.2.04-.27.11-.1.1-.15.24-.12.38l.37,1.59c.03.14.14.25.27.29.04.01.08.02.12.02.1,0,.2-.04.27-.11l1.19-1.11c.1-.1.15-.24.12-.38Z"/>
</svg>