<?xml version="1.0" encoding="UTF-8"?>
<svg id="Layer_1" xmlns="http://www.w3.org/2000/svg" viewBox="0 0 34.06 24">
  <defs>
    <style>
      .cls-1 {
        fill: #6db33f;
      }
    </style>
  </defs>
  <path class="cls-1" d="M32.62,19.07l-7.78-3.08c-.05-.02-.11-.03-.16-.03,0,0,0,0,0,0-1.12.06-1.53-.08-2.26-.81.14-.77.2-1.56.17-2.36-.13-2.75-1.33-5.29-3.37-7.14-2.04-1.85-4.67-2.8-7.43-2.67-2.75.13-5.29,1.33-7.14,3.37s-2.8,4.68-2.67,7.43c.13,2.75,1.33,5.29,3.37,7.14,1.92,1.74,4.36,2.68,6.93,2.68.17,0,.34,0,.51-.01,2.75-.13,5.29-1.33,7.14-3.37.39-.43.73-.89,1.04-1.36,1.05-.07,1.42.1,2.19.95,0,0,0,0,.01,0,.02.02.05.04.08.06.02.01.03.03.05.03,0,0,0,0,0,0l7.78,3.08c.25.1.52.15.77.15.84,0,1.64-.51,1.97-1.33h0c.43-1.08-.1-2.31-1.19-2.74ZM19.3,19.67c-1.71,1.88-4.04,2.98-6.58,3.1-2.53.12-4.96-.75-6.84-2.46-1.88-1.71-2.98-4.04-3.1-6.58s.75-4.97,2.46-6.84,4.04-2.98,6.58-3.1c2.53-.13,4.96.75,6.84,2.46,1.88,1.71,2.98,4.04,3.1,6.58.12,2.54-.75,4.97-2.46,6.84ZM21.43,18.03c.33-.63.59-1.28.77-1.96.58.49,1.1.69,1.88.72l-.79,2.01c-.58-.54-1.09-.75-1.86-.77ZM33.05,21.51c-.26.66-1.01.99-1.68.73l-7.4-2.93.48-1.2.48-1.2,7.4,2.93c.66.26.99,1.02.73,1.68Z"/>
  <path class="cls-1" d="M7.32,10.03c.1.05.12.15.16.45.04.32.1.82.6,1.07.49.26.93.03,1.22-.13.27-.14.36-.18.46-.12.1.05.13.15.16.45.04.32.1.82.6,1.07.5.26.93.03,1.22-.13.27-.14.36-.18.46-.12.1.05.13.15.16.45.04.33.1.82.6,1.07.16.08.32.12.46.12.3,0,.57-.14.76-.24.27-.14.36-.18.46-.12.2.11.45.03.55-.17.1-.2.03-.45-.17-.55-.5-.26-.93-.03-1.22.13-.27.14-.36.18-.46.12-.1-.05-.13-.15-.16-.45-.04-.33-.1-.82-.6-1.07-.49-.26-.93-.03-1.22.13-.27.14-.36.18-.46.12-.1-.05-.12-.15-.16-.45-.04-.33-.1-.82-.6-1.07-.5-.26-.93-.03-1.22.13-.27.14-.36.17-.46.12-.1-.05-.12-.15-.16-.45-.04-.32-.1-.82-.6-1.07-.2-.1-.45-.03-.55.17-.1.2-.03.45.17.55Z"/>
  <path class="cls-1" d="M8.86,7.96s.06.23.06.37c.01.32.04.81.5,1.06.47.24.88-.02,1.15-.2.11-.07.27-.19.33-.16.05.02.06.23.06.37.01.32.04.81.5,1.06.46.24.88-.02,1.15-.19.12-.07.29-.18.34-.16.05.03.06.22.07.37.01.32.04.81.51,1.06.13.07.27.1.39.1.3,0,.57-.17.76-.29.12-.08.29-.18.34-.16.2.1.45.03.55-.17.1-.2.03-.45-.17-.55-.46-.24-.88.02-1.15.19-.12.08-.29.18-.34.16-.05-.03-.06-.22-.07-.37-.01-.32-.04-.81-.51-1.06-.46-.24-.88.02-1.15.19-.12.07-.29.18-.34.16-.05-.02-.06-.23-.06-.37-.01-.32-.04-.81-.5-1.06-.47-.24-.88.02-1.15.2-.11.07-.28.18-.33.16-.05-.02-.06-.23-.06-.37-.01-.32-.04-.81-.5-1.06-.2-.1-.45-.03-.55.17-.1.2-.03.45.17.55Z"/>
  <path class="cls-1" d="M11.21,6.45c.09.05.12.14.16.44.04.33.1.82.59,1.07.49.26.93.02,1.22-.13.27-.14.36-.17.45-.13.09.05.12.14.16.44.04.32.1.82.59,1.07.49.26.93.02,1.22-.13.27-.14.36-.17.45-.13.1.05.12.15.16.44.04.32.1.82.59,1.07.16.08.31.12.46.12.3,0,.57-.14.76-.25.27-.14.36-.17.45-.13.2.11.45.03.55-.17.1-.2.03-.45-.17-.55-.5-.26-.93-.02-1.22.13-.27.14-.36.18-.45.13-.1-.05-.12-.15-.16-.44-.04-.33-.1-.82-.59-1.07-.49-.26-.93-.02-1.22.13-.27.14-.36.18-.45.13-.1-.05-.12-.14-.16-.44-.04-.32-.1-.82-.59-1.07-.49-.26-.93-.02-1.22.13-.27.14-.36.18-.45.13-.09-.05-.12-.14-.16-.44-.04-.33-.1-.82-.59-1.07-.2-.11-.45-.03-.55.17-.1.2-.03.45.17.55Z"/>
  <path class="cls-1" d="M9.48,15.75l.25-.55c.44-1,0-2.17-1.01-2.62l-.85-.37c-.49-.22-1.02-.23-1.52-.04-.49.19-.88.56-1.1,1.05l-.25.55c-.44,1,0,2.17,1.01,2.62l.85.38c.26.12.53.17.8.17.76,0,1.49-.44,1.82-1.18ZM8.98,14.87l-.25.55c-.26.59-.95.85-1.54.59l-.85-.38c-.59-.26-.85-.95-.59-1.54l.25-.55c.19-.43.62-.69,1.07-.69.16,0,.32.03.47.1l.85.37c.59.26.85.95.59,1.54Z"/>
  <path class="cls-1" d="M16.77,16.68c-.22-.14-.49-.17-.73-.08l-3.77,1.31c-.24.08-.44.27-.52.52-.09.24-.06.5.07.72.53.88,1.49,1.38,2.48,1.38.31,0,.63-.05.94-.16,1.28-.44,2.09-1.74,1.92-3.08-.03-.25-.17-.47-.39-.61ZM14.96,19.6c-.91.32-1.95-.05-2.45-.9,0,0,0-.02.02-.02l3.81-1.29c.12.96-.46,1.89-1.38,2.21Z"/>
  <path class="cls-1" d="M11.22,16.85c-.92-.58-2.14-.3-2.71.62-.28.45-.37.97-.25,1.49.12.51.43.95.87,1.23.07.04.14.06.22.06.14,0,.27-.07.35-.19.12-.19.06-.44-.13-.56-.26-.16-.44-.42-.51-.72-.07-.3-.02-.61.15-.87.34-.54,1.05-.7,1.58-.36.19.12.45.06.57-.13.12-.19.06-.44-.13-.56Z"/>
  <path class="cls-1" d="M13.17,16.48c.49-.19.88-.56,1.09-1.04.09-.21,0-.45-.21-.54-.21-.09-.45,0-.54.21-.12.28-.35.5-.64.61-.29.11-.6.1-.88-.02-.58-.26-.84-.94-.59-1.52.09-.21,0-.45-.21-.54-.21-.09-.45,0-.54.21-.44.99,0,2.16,1,2.6.25.11.53.17.8.17.24,0,.48-.04.71-.13Z"/>
  <path class="cls-1" d="M19.86,13.05c-.34-1.04-1.46-1.62-2.51-1.28-1.04.34-1.62,1.47-1.28,2.51.17.51.52.92.99,1.16.28.14.59.22.9.22.21,0,.42-.03.62-.1,1.04-.34,1.62-1.47,1.28-2.51ZM19.01,14.2c-.14.28-.38.49-.68.58-.3.1-.62.07-.9-.07-.28-.14-.49-.38-.58-.68-.2-.62.14-1.28.75-1.48.12-.04.24-.06.36-.06.5,0,.96.32,1.12.81.1.3.07.62-.07.9Z"/>
</svg>