<?xml version="1.0" encoding="UTF-8"?>
<svg id="Layer_1" xmlns="http://www.w3.org/2000/svg" viewBox="0 0 34.06 24">
  <defs>
    <style>
      .cls-1 {
        fill: #6db33f;
      }
    </style>
  </defs>
  <path class="cls-1" d="M17.03,15.82c-1.09,0-4.9-.07-7.61-1.02l1.23,5.78c.14.93.78,1.7,1.68,2,1.36.47,2.81.7,4.33.7s3.25-.25,4.98-.76c.94-.28,1.64-1.08,1.78-2.01l1.22-5.71c-2.71.95-6.52,1.02-7.61,1.02ZM20.72,17.12c.04-.22.25-.37.47-.34.22.04.37.25.34.47l-.69,4.17c-.03.2-.21.34-.4.34-.02,0-.04,0-.07,0-.22-.04-.37-.25-.34-.47l.69-4.17ZM16.62,17.19c0-.23.18-.41.41-.41s.41.18.41.41v4.17c0,.23-.18.41-.41.41s-.41-.18-.41-.41v-4.17ZM12.87,16.79c.22-.04.43.11.47.34l.69,4.17c.04.22-.11.43-.34.47-.02,0-.04,0-.07,0-.2,0-.37-.14-.4-.34l-.69-4.17c-.04-.22.11-.43.34-.47Z"/>
  <path class="cls-1" d="M21.61,5.46c.08.49-.24,1-1.28,1.44-2.51,1.07-2.63-1-2.17-2.27-.37-.03-.75-.05-1.13-.05-5.33,0-9.65,3.3-9.65,7.37,0,2.03,4.83,3.05,9.65,3.05s9.65-1.02,9.65-3.05c0-2.81-2.05-5.24-5.08-6.49ZM18.58,10.06c.67-.7,5.21-.04,2.55,2.41s-3.21-1.71-2.55-2.41ZM12.11,7.85c.86-.44,4.92,1.71,1.59,3.13-3.33,1.42-2.45-2.69-1.59-3.13Z"/>
</svg>