<?xml version="1.0" encoding="UTF-8"?>
<svg id="Layer_1" xmlns="http://www.w3.org/2000/svg" viewBox="0 0 34.06 24">
  <defs>
    <style>
      .cls-1 {
        fill: #6db33f;
      }
    </style>
  </defs>
  <path class="cls-1" d="M12.27,23.6c-3.58,0-6.49-2.91-6.49-6.49s2.91-6.49,6.49-6.49,6.49,2.91,6.49,6.49-2.91,6.49-6.49,6.49ZM12.27,11.44c-3.13,0-5.67,2.54-5.67,5.67s2.55,5.67,5.67,5.67,5.67-2.55,5.67-5.67-2.54-5.67-5.67-5.67Z"/>
  <path class="cls-1" d="M12.27,21c-2.15,0-3.89-1.75-3.89-3.89s1.75-3.89,3.89-3.89,3.89,1.75,3.89,3.89-1.75,3.89-3.89,3.89ZM12.27,14.04c-1.69,0-3.07,1.38-3.07,3.07s1.38,3.07,3.07,3.07,3.07-1.38,3.07-3.07-1.38-3.07-3.07-3.07Z"/>
  <path class="cls-1" d="M23.18,23.6c-1.98,0-3.58-1.61-3.58-3.58s1.61-3.58,3.58-3.58,3.58,1.61,3.58,3.58-1.61,3.58-3.58,3.58ZM23.18,17.25c-1.52,0-2.76,1.24-2.76,2.76s1.24,2.76,2.76,2.76,2.76-1.24,2.76-2.76-1.24-2.76-2.76-2.76Z"/>
  <path class="cls-1" d="M14.44,10.01c-1.98,0-3.58-1.61-3.58-3.58s1.61-3.58,3.58-3.58,3.58,1.61,3.58,3.58-1.61,3.58-3.58,3.58ZM14.44,3.67c-1.52,0-2.76,1.24-2.76,2.76s1.24,2.76,2.76,2.76,2.76-1.24,2.76-2.76-1.24-2.76-2.76-2.76Z"/>
  <path class="cls-1" d="M23.32,15.55c-2.73,0-4.96-2.23-4.96-4.96s2.23-4.96,4.96-4.96,4.96,2.23,4.96,4.96-2.23,4.96-4.96,4.96ZM23.32,6.45c-2.28,0-4.14,1.86-4.14,4.14s1.86,4.14,4.14,4.14,4.14-1.86,4.14-4.14-1.86-4.14-4.14-4.14Z"/>
  <path class="cls-1" d="M23.32,13.48c-1.59,0-2.89-1.3-2.89-2.89s1.3-2.89,2.89-2.89,2.89,1.29,2.89,2.89-1.29,2.89-2.89,2.89ZM23.32,8.52c-1.14,0-2.07.93-2.07,2.07s.93,2.07,2.07,2.07,2.07-.93,2.07-2.07-.93-2.07-2.07-2.07Z"/>
</svg>