<?xml version="1.0" encoding="UTF-8"?>
<svg id="Layer_1" xmlns="http://www.w3.org/2000/svg" viewBox="0 0 34.06 24">
  <defs>
    <style>
      .cls-1 {
        fill: #6db33f;
      }
    </style>
  </defs>
  <path class="cls-1" d="M27.09,11.95c0-2.91-2.08-5.45-5.15-6.78-.14-.41-.47-.81-.98-1.16-.74-.51-1.83-.89-2.41-.6-.25.12-.47.42-.65.79-.29-.02-.58-.03-.88-.03-5.55,0-10.06,3.49-10.06,7.78,0,.98.8,1.77,2.35,2.36l1.34,6.26c.14.93.78,1.7,1.68,2,1.36.47,2.81.7,4.33.7s3.25-.25,4.98-.76c.94-.28,1.64-1.08,1.78-2.01l1.33-6.21c1.43-.56,2.35-1.33,2.35-2.35ZM12.6,21.81c-.6-.21-1.04-.73-1.14-1.38l-1.24-5.82s.04.01.06.02c1.79.5,4.18.78,6.75.78s4.93-.26,6.81-.81l-1.23,5.76c-.1.65-.57,1.18-1.21,1.37-3.27.96-6.15.98-8.81.07ZM17.03,14.59c-5.18,0-9.24-1.16-9.24-2.64,0-3.84,4.15-6.96,9.24-6.96.2,0,.4.01.61.02-.13.61-.13,1.26.09,1.75.17.37.55.85,1.38.85.36,0,.82-.09,1.37-.33.78-.33,1.25-.75,1.44-1.23,2.61,1.23,4.35,3.41,4.35,5.89,0,1.48-4.06,2.64-9.24,2.64ZM18.92,4.14c.16-.07.95.08,1.66.6.42.31.65.65.62.9-.03.3-.4.61-1.04.88-.91.39-1.48.35-1.69-.11-.35-.76.16-2.13.45-2.28Z"/>
  <path class="cls-1" d="M19.65,13.65c.46,0,1.04-.22,1.76-.88.76-.71,1.08-1.37.92-1.98-.15-.58-.7-1.03-1.58-1.26-.87-.23-2.03-.22-2.47.25-.57.61-.48,2.59.35,3.44.21.21.54.44,1.01.44ZM18.88,10.34c.13-.12.93-.24,1.77.01.5.15.83.39.89.64.07.29-.18.71-.69,1.18-.73.67-1.28.83-1.63.47-.59-.59-.56-2.06-.34-2.3Z"/>
  <path class="cls-1" d="M12.48,11.69c.36,0,.82-.09,1.37-.33.96-.41,1.47-.93,1.54-1.56.06-.6-.32-1.21-1.06-1.72-.74-.51-1.83-.89-2.41-.6-.74.38-1.33,2.28-.82,3.35.17.37.55.85,1.38.85ZM12.29,8.22c.16-.07.95.08,1.66.6.42.31.65.65.62.9-.03.3-.4.61-1.04.88-.91.39-1.48.35-1.69-.11-.35-.76.16-2.13.45-2.28Z"/>
  <path class="cls-1" d="M12.87,16.32c-.22.04-.37.25-.34.47l.69,4.17c.03.2.21.34.4.34.02,0,.04,0,.07,0,.22-.04.37-.25.34-.47l-.69-4.17c-.04-.22-.25-.37-.47-.34Z"/>
  <path class="cls-1" d="M17.03,16.32c-.23,0-.41.18-.41.41v4.17c0,.23.18.41.41.41s.41-.18.41-.41v-4.17c0-.23-.18-.41-.41-.41Z"/>
  <path class="cls-1" d="M21.19,16.32c-.22-.04-.43.11-.47.34l-.69,4.17c-.04.22.11.43.34.47.02,0,.04,0,.07,0,.2,0,.37-.14.4-.34l.69-4.17c.04-.22-.11-.43-.34-.47Z"/>
</svg>