<?xml version="1.0" encoding="UTF-8"?>
<svg id="Layer_1" xmlns="http://www.w3.org/2000/svg" viewBox="0 0 34.06 24">
  <defs>
    <style>
      .cls-1 {
        fill: #6db33f;
      }
    </style>
  </defs>
  <path class="cls-1" d="M6.62,12.4h20.82c.23,0,.41-.18.41-.41,0-4.77-4.85-8.66-10.82-8.66S6.21,7.22,6.21,11.99c0,.23.18.41.41.41ZM17.03,4.16c5.34,0,9.72,3.3,9.99,7.43H7.04c.27-4.13,4.65-7.43,9.99-7.43Z"/>
  <path class="cls-1" d="M19.5,6.05c0-.1-.05-.21-.12-.29-.12-.11-.3-.15-.45-.08-.05.02-.09.05-.13.08-.04.04-.07.09-.09.14-.02.05-.03.1-.03.15,0,.11.04.22.12.29.04.04.08.07.13.09s.11.03.16.03c.1,0,.21-.04.29-.12.07-.07.12-.18.12-.29Z"/>
  <path class="cls-1" d="M22.35,6.94c-.11-.12-.29-.15-.45-.09-.05.02-.09.05-.13.09-.04.03-.07.08-.09.13-.02.05-.03.1-.03.16,0,.1.04.21.12.29.04.03.08.06.13.08.05.03.11.04.16.04.11,0,.21-.05.29-.12.08-.08.12-.19.12-.29,0-.06,0-.11-.03-.16-.02-.05-.05-.1-.09-.13Z"/>
  <path class="cls-1" d="M24.44,9.31c-.15-.06-.33-.03-.44.09-.08.08-.13.18-.13.29s.05.21.13.29c.07.07.18.12.28.12.06,0,.11,0,.16-.03s.1-.05.13-.09c.04-.04.07-.08.09-.13.02-.05.03-.11.03-.16,0-.11-.04-.21-.12-.29-.03-.04-.08-.07-.13-.09Z"/>
  <path class="cls-1" d="M19.44,7.89c-.06.02-.1.05-.14.09-.04.03-.07.08-.09.13-.02.05-.03.1-.03.16,0,.1.05.21.12.29.04.03.08.06.14.08.05.03.1.04.15.04.11,0,.21-.05.29-.12.08-.08.12-.19.12-.29,0-.11-.04-.22-.12-.29-.11-.12-.29-.15-.44-.09Z"/>
  <path class="cls-1" d="M21.24,9.25s-.1.05-.14.08c-.03.04-.06.09-.08.14-.03.05-.04.1-.04.15,0,.06,0,.11.04.16.02.05.05.1.08.13.04.04.09.07.14.09.05.02.1.03.15.03.11,0,.22-.04.29-.12.04-.03.07-.08.09-.13.02-.05.03-.1.03-.16,0-.1-.04-.21-.12-.29-.11-.11-.29-.15-.44-.08Z"/>
  <path class="cls-1" d="M6.62,14.9c1,0,1.52-.37,1.98-.7.41-.29.76-.55,1.5-.55s1.09.25,1.5.55c.46.33.98.7,1.98.7s1.52-.37,1.97-.7c.41-.29.76-.55,1.5-.55s1.09.25,1.5.55c.46.33.97.7,1.97.7s1.52-.37,1.97-.7c.41-.29.76-.55,1.5-.55s1.09.25,1.49.55c.46.33.97.7,1.97.7.23,0,.41-.18.41-.41s-.18-.41-.41-.41c-.73,0-1.09-.25-1.49-.55-.46-.33-.97-.7-1.97-.7s-1.52.37-1.97.7c-.41.29-.76.55-1.5.55s-1.09-.25-1.5-.55c-.46-.33-.97-.7-1.97-.7s-1.52.37-1.97.7c-.41.29-.76.55-1.5.55s-1.09-.25-1.5-.55c-.46-.33-.98-.7-1.98-.7s-1.52.37-1.98.7c-.41.29-.76.55-1.5.55-.23,0-.41.18-.41.41s.18.41.41.41Z"/>
  <path class="cls-1" d="M27.86,19.47c-.14-.2-.34-.35-.56-.42.34-.39.56-.9.56-1.46,0-1.23-1-2.22-2.22-2.22H8.43c-1.23,0-2.22,1-2.22,2.22,0,.56.21,1.07.56,1.46-.23.07-.43.21-.56.42-.19.29-.23.66-.09.98l.39.93c.54,1.29,1.8,2.12,3.2,2.12h14.65c1.4,0,2.66-.83,3.2-2.12l.39-.93c.14-.32.1-.69-.09-.98ZM8.43,16.2h17.2c.77,0,1.41.63,1.41,1.4s-.63,1.4-1.41,1.4H8.43c-.77,0-1.4-.63-1.4-1.4s.63-1.4,1.4-1.4ZM27.19,20.14l-.39.93c-.42.99-1.38,1.62-2.45,1.62h-14.65c-1.07,0-2.03-.64-2.44-1.62l-.39-.94c-.04-.1,0-.18.02-.21s.08-.1.19-.1h19.91c.11,0,.17.07.19.1.02.03.06.11.02.21Z"/>
</svg>