<?xml version="1.0" encoding="UTF-8"?>
<svg id="Layer_1" xmlns="http://www.w3.org/2000/svg" viewBox="0 0 34.06 24">
  <defs>
    <style>
      .cls-1 {
        fill: none;
      }

      .cls-2 {
        fill: #6db33f;
      }
    </style>
  </defs>
  <path class="cls-1" d="M8.43,19.11h17.2c.77,0,1.41-.63,1.41-1.41s-.63-1.4-1.41-1.4H8.43c-.77,0-1.4.63-1.4,1.4s.63,1.41,1.4,1.41Z"/>
  <path class="cls-2" d="M6.62,12.51h20.82c.23,0,.41-.18.41-.41,0-4.77-4.85-8.66-10.82-8.66S6.21,7.33,6.21,12.1c0,.23.18.41.41.41ZM19.38,6.45c-.08.07-.18.12-.29.12s-.22-.05-.29-.12c-.08-.08-.12-.18-.12-.29s.04-.21.12-.29c.11-.12.29-.16.44-.09.05.02.1.05.14.09.07.08.12.18.12.29s-.05.21-.12.29ZM19.88,8.08c.08.08.12.18.12.29,0,.05-.01.11-.03.16-.02.05-.05.09-.09.13-.08.08-.18.12-.29.12s-.21-.04-.29-.12c-.03-.04-.07-.08-.09-.13-.02-.05-.03-.11-.03-.16,0-.11.05-.21.12-.29.16-.15.43-.15.58,0ZM21.68,9.44c.08.08.12.18.12.29,0,.05,0,.11-.03.16-.02.05-.05.09-.09.13-.07.08-.18.12-.28.12-.06,0-.11,0-.16-.03-.05-.02-.1-.05-.14-.09-.03-.04-.06-.08-.08-.13-.03-.05-.03-.11-.03-.16,0-.11.04-.21.11-.29.04-.04.09-.07.14-.09.15-.06.33-.02.44.09ZM21.65,7.33c0-.1.05-.21.12-.29.04-.03.09-.07.14-.09.15-.06.32-.02.44.09.08.08.12.19.12.29,0,.11-.04.21-.12.29s-.18.12-.29.12-.21-.04-.29-.12c-.07-.08-.12-.18-.12-.29ZM23.88,9.79c0-.1.04-.21.11-.28.04-.04.09-.07.14-.09.1-.05.21-.05.31,0,.05.02.1.05.13.09.08.07.12.18.12.28,0,.11-.04.22-.12.29-.03.04-.08.07-.13.09-.05.02-.1.03-.16.03-.05,0-.1-.01-.15-.03-.05-.02-.1-.05-.14-.09-.07-.07-.11-.18-.11-.29Z"/>
  <path class="cls-2" d="M6.62,15c1,0,1.52-.37,1.98-.7.41-.29.76-.55,1.5-.55s1.09.25,1.5.55c.46.33.98.7,1.98.7s1.52-.37,1.97-.7c.41-.29.76-.55,1.5-.55s1.09.25,1.5.55c.46.33.97.7,1.97.7s1.52-.37,1.97-.7c.41-.29.76-.55,1.5-.55s1.09.25,1.49.55c.46.33.97.7,1.97.7.23,0,.41-.18.41-.41s-.18-.41-.41-.41c-.73,0-1.09-.25-1.49-.55-.46-.33-.97-.7-1.97-.7s-1.52.37-1.97.7c-.41.29-.76.55-1.5.55s-1.09-.25-1.5-.55c-.46-.33-.97-.7-1.97-.7s-1.52.37-1.97.7c-.41.29-.76.55-1.5.55s-1.09-.25-1.5-.55c-.46-.33-.98-.7-1.98-.7s-1.52.37-1.98.7c-.41.29-.76.55-1.5.55-.23,0-.41.18-.41.41s.18.41.41.41Z"/>
  <path class="cls-2" d="M27.86,19.58c-.14-.2-.34-.35-.56-.42.34-.39.56-.9.56-1.46,0-1.23-1-2.22-2.22-2.22H8.43c-1.23,0-2.22,1-2.22,2.22,0,.56.21,1.07.56,1.46-.23.07-.43.21-.56.42-.19.29-.23.66-.09.98l.39.93c.54,1.29,1.8,2.12,3.2,2.12h14.65c1.4,0,2.66-.83,3.2-2.12l.39-.93c.14-.32.1-.69-.09-.98ZM8.43,16.3h17.2c.77,0,1.41.63,1.41,1.4s-.63,1.41-1.41,1.41H8.43c-.77,0-1.4-.63-1.4-1.41s.63-1.4,1.4-1.4Z"/>
</svg>