<svg width="32" height="32" viewBox="0 0 32 32" fill="none" xmlns="http://www.w3.org/2000/svg">
<g id="diabetic" clip-path="url(#clip0_1272_3555)">
<path id="Vector" d="M29.3 0H2.59C1.15958 0 0 1.15958 0 2.59V29.3C0 30.7304 1.15958 31.89 2.59 31.89H29.3C30.7304 31.89 31.89 30.7304 31.89 29.3V2.59C31.89 1.15958 30.7304 0 29.3 0Z" fill="#00AEEF"/>
<path id="Vector_2" d="M7.90991 6.78003H14.9599C16.2099 6.78003 17.3799 7.03003 18.4699 7.53003C19.5599 8.03003 20.5199 8.70003 21.3399 9.53003C22.1599 10.36 22.7999 11.34 23.2699 12.45C23.7399 13.56 23.9799 14.72 23.9799 15.94C23.9799 17.16 23.7499 18.29 23.2899 19.4C22.8299 20.51 22.1899 21.49 21.3699 22.33C20.5499 23.17 19.5999 23.84 18.4999 24.35C17.4099 24.85 16.2299 25.1 14.9599 25.1H7.90991V6.78003ZM12.6699 21.07H13.7599C14.5899 21.07 15.3199 20.94 15.9699 20.68C16.6199 20.42 17.1599 20.06 17.6099 19.61C18.0599 19.16 18.3999 18.62 18.6299 17.99C18.8599 17.36 18.9799 16.68 18.9799 15.94C18.9799 15.2 18.8599 14.53 18.6199 13.9C18.3799 13.27 18.0299 12.73 17.5899 12.27C17.1399 11.82 16.5999 11.46 15.9499 11.2C15.2999 10.94 14.5699 10.81 13.7599 10.81H12.6699V21.07Z" fill="white"/>
</g>
<defs>
<clipPath id="clip0_1272_3555">
<rect width="31.89" height="31.89" fill="white"/>
</clipPath>
</defs>
</svg>
