<svg width="33" height="28" viewBox="0 0 33 28" fill="none" xmlns="http://www.w3.org/2000/svg">
<g id="Layer_1">
<path id="Vector" d="M31.446 12.9457H27.2861L29.6331 10.6409C30.0547 10.2334 30.0547 9.57284 29.6471 9.15123C29.2396 8.72962 28.5791 8.72962 28.1574 9.13718L24.2787 12.9457H21.3415C21.1166 11.9198 20.5685 11.0204 19.8237 10.3458L21.2993 7.78803L26.5413 6.32646C27.1034 6.17187 27.4267 5.59567 27.2721 5.03353C27.1175 4.47139 26.5272 4.14816 25.9791 4.30274L22.8171 5.18812L24.897 1.5904C25.1921 1.08448 25.0094 0.438011 24.5176 0.156939C24.0116 -0.138186 23.3652 0.0445104 23.0841 0.536386L21.0042 4.14816L20.1891 0.957993C20.0485 0.39585 19.4583 0.058564 18.9102 0.1991C18.348 0.339636 18.0108 0.915832 18.1513 1.47798L19.5004 6.74807L18.0248 9.30582C17.547 9.15123 17.0551 9.05285 16.5211 9.05285C15.987 9.05285 15.4952 9.15123 15.0173 9.30582L13.5417 6.74807L14.8909 1.47798C15.0314 0.915832 14.6941 0.339636 14.132 0.1991C13.5698 0.058564 12.9936 0.39585 12.8531 0.957993L12.038 4.14816L9.94401 0.536386C9.64888 0.0304568 9.00242 -0.138186 8.51054 0.156939C8.00461 0.452064 7.83597 1.09853 8.13109 1.5904L10.211 5.18812L7.04897 4.30274C6.48682 4.14816 5.91063 4.47139 5.75604 5.03353C5.60145 5.59567 5.92468 6.17187 6.48682 6.32646L11.7288 7.78803L13.2044 10.3458C12.4596 11.0204 11.9115 11.9198 11.6866 12.9457H8.74945L4.87066 9.13718C4.44906 8.72962 3.78854 8.72962 3.38098 9.15123C2.97343 9.57284 2.97343 10.2334 3.39504 10.6409L5.74199 12.9457H1.55402C0.977822 12.9457 0.5 13.4235 0.5 13.9997C0.5 14.5759 0.977822 15.0537 1.55402 15.0537H5.71388L3.36693 17.3585C2.94532 17.7661 2.94532 18.4266 3.35288 18.8482C3.56368 19.059 3.8307 19.1714 4.11177 19.1714C4.39284 19.1714 4.64581 19.0731 4.84256 18.8763L8.72134 15.0678H11.6585C11.8834 16.0937 12.4315 16.9931 13.1763 17.6677L11.7007 20.2254L6.45872 21.687C5.89657 21.8416 5.57334 22.4178 5.72793 22.98C5.88252 23.5421 6.47277 23.8653 7.02086 23.7107L10.1829 22.8254L8.10299 26.4231C7.80786 26.929 7.99056 27.5755 8.48243 27.8565C8.65108 27.9549 8.83377 27.9971 9.00242 27.9971C9.36781 27.9971 9.71915 27.8144 9.9159 27.463L11.9958 23.8653L12.8109 27.0555C12.9374 27.5333 13.359 27.8425 13.8368 27.8425C13.9212 27.8425 14.0055 27.8425 14.1039 27.8144C14.666 27.6738 15.0033 27.0976 14.8628 26.5355L13.5136 21.2654L14.9892 18.7077C15.4671 18.8623 15.9589 18.9606 16.493 18.9606C17.027 18.9606 17.5189 18.8623 17.9967 18.7077L19.4723 21.2654L18.1232 26.5355C17.9827 27.0976 18.3199 27.6738 18.8821 27.8144C18.9664 27.8425 19.0507 27.8425 19.1491 27.8425C19.6129 27.8425 20.0485 27.5333 20.175 27.0555L20.9901 23.8653L23.07 27.4771C23.2668 27.8144 23.6181 28.0111 23.9835 28.0111C24.1662 28.0111 24.3489 27.969 24.5035 27.8706C25.0094 27.5755 25.1781 26.929 24.883 26.4371L22.803 22.8394L25.9651 23.7248C26.5272 23.8794 27.1034 23.5561 27.258 22.994C27.4126 22.4319 27.0894 21.8557 26.5272 21.7011L21.2852 20.2395L19.8096 17.6818C20.5545 17.0072 21.1025 16.1077 21.3274 15.0818H24.2646L28.1434 18.8904C28.3542 19.0871 28.6212 19.1855 28.8742 19.1855C29.1271 19.1855 29.4223 19.0731 29.6331 18.8623C30.0406 18.4406 30.0406 17.7801 29.619 17.3726L27.2721 15.0678H31.4319C32.0081 15.0678 32.4859 14.59 32.4859 14.0138C32.4859 13.4376 32.0081 12.9597 31.4319 12.9597L31.446 12.9457ZM13.6542 13.9997C13.6542 12.4257 14.933 11.1468 16.507 11.1468C18.081 11.1468 19.3599 12.4257 19.3599 13.9997C19.3599 15.5737 18.081 16.8526 16.507 16.8526C14.933 16.8526 13.6542 15.5737 13.6542 13.9997Z" fill="#016A95"/>
</g>
</svg>
