<svg width="59" height="32" viewBox="0 0 59 32" fill="none" xmlns="http://www.w3.org/2000/svg">
<g id="Layer_1">
<g id="Group">
<path id="Vector" d="M42.2513 0H16.5073C7.68127 0 0.5 7.18127 0.5 16.0073C0.5 24.8334 7.68127 32.0147 16.5073 32.0147H42.2659C51.092 32.0147 58.2586 24.8334 58.2586 16.0073C58.2586 7.18127 51.0773 0 42.2513 0ZM42.2513 29.7972H16.5073C8.90018 29.7972 2.70285 23.6145 2.70285 15.9927C2.70285 8.37081 8.8855 2.20285 16.5073 2.20285H42.2659C49.8731 2.20285 56.0558 8.3855 56.0558 16.0073C56.0558 23.6292 49.8731 29.8118 42.2659 29.8118L42.2513 29.7972Z" fill="#016A95"/>
<path id="Vector_2" d="M13.7754 17.5349H16.1105C16.0664 17.7552 16.0077 17.9754 15.8755 18.1517C15.6993 18.416 15.4496 18.6363 15.1265 18.7831C14.8181 18.93 14.451 19.0034 14.0398 19.0034C13.467 19.0034 12.9677 18.8713 12.5565 18.6216C12.1307 18.372 11.8076 18.0195 11.5873 17.5642C11.367 17.1237 11.2495 16.6097 11.2495 16.0369C11.2495 15.4642 11.367 14.9502 11.602 14.5096C11.8369 14.0691 12.16 13.7313 12.5565 13.4816C12.9677 13.232 13.4377 13.1145 13.9664 13.1145C14.2307 13.1145 14.495 13.1586 14.7447 13.2614C15.009 13.3641 15.244 13.4963 15.4643 13.6725C15.6846 13.8488 15.8608 14.0397 16.0077 14.2747L18.3574 12.8795C18.0783 12.4243 17.7259 12.0131 17.3147 11.6606C16.9035 11.3082 16.4335 11.0291 15.8755 10.8235C15.3174 10.6179 14.686 10.5151 13.9664 10.5151C12.8649 10.5151 11.8957 10.7501 11.0586 11.22C10.2215 11.69 9.56067 12.3508 9.07604 13.1732C8.59142 13.9956 8.35645 14.9502 8.35645 16.0369C8.35645 17.1237 8.59142 18.0636 9.07604 18.9006C9.56067 19.723 10.2215 20.3839 11.0586 20.8538C11.9104 21.3238 12.8796 21.5587 13.9664 21.5587C14.9209 21.5587 15.758 21.3825 16.4923 21.0301C17.2266 20.6776 17.7846 20.1342 18.2105 19.4146C18.5923 18.7538 18.7686 17.9314 18.8126 16.9768H18.842V15.3908H13.7754V17.5202V17.5349Z" fill="#016A95"/>
<path id="Vector_3" d="M22.8079 10.7061H19.9883V21.3825H27.1989V18.7832H22.8079V10.7061Z" fill="#016A95"/>
<path id="Vector_4" d="M34.9814 11.176C34.3646 10.8676 33.645 10.7061 32.852 10.7061H28.4316V21.3825H31.2513V18.181H32.852C33.6597 18.181 34.3646 18.0195 34.9814 17.6964C35.5982 17.3733 36.0829 16.9328 36.4353 16.3747C36.7878 15.8167 36.964 15.1558 36.964 14.4362C36.964 13.7166 36.7878 13.0558 36.4353 12.4977C36.0829 11.9396 35.5982 11.4991 34.9814 11.1907V11.176ZM33.7185 15.2586C33.4835 15.4789 33.1604 15.5817 32.7786 15.5817H31.2513V13.276H32.7786C33.1604 13.276 33.4835 13.3788 33.7185 13.5991C33.9534 13.8194 34.0709 14.0838 34.0709 14.4215C34.0709 14.7593 33.9534 15.053 33.7185 15.2586Z" fill="#016A95"/>
<path id="Vector_5" d="M42.3983 15.6841H37.8164V17.975H42.3983V15.6841Z" fill="#016A95"/>
<path id="Vector_6" d="M46.1136 10.6763C45.908 10.8966 45.673 11.1315 45.4086 11.3665C45.1443 11.6015 44.8653 11.7924 44.5716 11.9245C44.2779 12.0714 43.9841 12.1301 43.6904 12.0861V14.6561C44.2485 14.7148 44.7772 14.6561 45.2618 14.4505C45.4527 14.377 45.6436 14.2742 45.8198 14.1715V21.3821H48.4926V10.7056H46.1429L46.1136 10.6763Z" fill="#016A95"/>
</g>
</g>
</svg>
