<svg width="33" height="32" viewBox="0 0 33 32" fill="none" xmlns="http://www.w3.org/2000/svg">
<g id="Layer_1">
<g id="Group">
<g id="Group_2">
<path id="Vector" d="M19.1692 6.72461H15.9692V14.9974H10.8964V6.72461H7.68164V24.8776H10.8964V17.9467H15.9692V24.8776H19.1692V6.72461Z" fill="#016A95"/>
<path id="Vector_2" d="M25.3183 6.72461H22.1035V24.8776H25.3183V6.72461Z" fill="#016A95"/>
</g>
<path id="Vector_3" d="M29.3 32H3.7C1.93041 32 0.5 30.5696 0.5 28.8V3.2C0.5 1.43041 1.93041 0 3.7 0H29.3C31.0696 0 32.5 1.43041 32.5 3.2V28.8C32.5 30.5696 31.0696 32 29.3 32ZM3.7 2.21198C3.15438 2.21198 2.71198 2.65438 2.71198 3.2V28.8C2.71198 29.3456 3.15438 29.788 3.7 29.788H29.3C29.8456 29.788 30.288 29.3456 30.288 28.8V3.2C30.288 2.65438 29.8456 2.21198 29.3 2.21198H3.7Z" fill="#016A95"/>
</g>
</g>
</svg>
