<svg width="34" height="32" viewBox="0 0 34 32" fill="none" xmlns="http://www.w3.org/2000/svg">
<g id="Layer_1">
<g id="Group">
<path id="Vector" d="M23.1844 4.03876C19.5584 4.03876 17.0526 5.02632 15.0333 7.23728C13.0729 9.38929 10.3903 12.3225 7.17702 13.3101C3.89005 14.3271 0.514648 15.8453 0.514648 19.3386V26.6201C0.514648 29.627 3.58052 31.9853 7.50129 31.9853H16.8168C25.8081 31.9853 33.119 26.5464 33.119 19.8692V11.5118C33.119 7.38468 28.6676 4.00928 23.1844 4.00928V4.03876ZM30.8933 11.5413V12.6026C30.8933 13.2806 30.7901 13.9439 30.6132 14.5777L18.4529 7.29624C19.7058 6.58873 21.224 6.24972 23.1844 6.24972C27.4442 6.24972 30.908 8.62282 30.908 11.5413H30.8933ZM16.6105 8.77022L29.6846 16.597C28.9476 17.7615 27.9011 18.808 26.6187 19.6924L13.5593 11.895C14.709 10.8485 15.7408 9.74304 16.6252 8.77022H16.6105ZM11.7463 13.3838L24.393 20.9305C22.7569 21.6675 20.8702 22.1686 18.8656 22.3897L7.42759 15.5652C7.56025 15.521 7.67817 15.4768 7.81083 15.4326C9.24058 14.9904 10.5524 14.2534 11.7463 13.3838ZM4.86288 16.6118L14.7385 22.5077H7.48655C4.89235 22.5077 2.71087 21.0632 2.71087 19.3534C2.71087 18.5279 3.03515 17.5993 4.86288 16.6118ZM16.8021 29.7891H7.48655C4.89235 29.7891 2.71087 28.3446 2.71087 26.6348V23.2741C3.94901 24.1585 5.6146 24.7039 7.48655 24.7039H16.8021C17.4211 24.7039 18.0255 24.6744 18.6151 24.6302C21.8136 24.3649 24.7468 23.4068 27.1052 21.9623C27.1494 21.9476 27.1789 21.9181 27.2231 21.8886C28.6823 20.9747 29.9205 19.884 30.8785 18.6606V19.884C30.8785 25.3377 24.5552 29.7891 16.7873 29.7891H16.8021Z" fill="#016A95"/>
<path id="Vector_2" d="M1.60548 6.75081H5.03984V10.1852C5.03984 10.7895 5.541 11.2906 6.14532 11.2906C6.74965 11.2906 7.25081 10.7895 7.25081 10.1852V6.75081H10.6852C11.2895 6.75081 11.7906 6.24965 11.7906 5.64532C11.7906 5.041 11.2895 4.53984 10.6852 4.53984H7.25081V1.10548C7.25081 0.501152 6.74965 0 6.14532 0C5.541 0 5.03984 0.501152 5.03984 1.10548V4.53984H1.60548C1.00115 4.53984 0.5 5.041 0.5 5.64532C0.5 6.24965 1.00115 6.75081 1.60548 6.75081Z" fill="#016A95"/>
</g>
</g>
</svg>
