<svg width="32" height="32" viewBox="0 0 32 32" fill="none" xmlns="http://www.w3.org/2000/svg">
<g id="vegetarian" clip-path="url(#clip0_1278_3601)">
<path id="Vector" d="M29.3 0H2.59C1.15958 0 0 1.15958 0 2.59V29.3C0 30.7304 1.15958 31.89 2.59 31.89H29.3C30.7304 31.89 31.89 30.7304 31.89 29.3V2.59C31.89 1.15958 30.7304 0 29.3 0Z" fill="#4BC649"/>
<path id="Vector_2" d="M25.63 4.77009C25.43 4.18009 24.79 3.86009 24.2 4.06009C19.31 5.71009 16.33 8.15009 15.34 11.2901C15.2 11.7301 15.12 12.1601 15.06 12.5801C13.3 11.0801 10.65 10.3001 7.13003 10.2801C6.83003 10.2801 6.55003 10.4001 6.34003 10.6101C6.12003 10.8201 6.00003 11.1101 6.00003 11.4101C5.98003 15.3101 7.05003 18.1301 9.18003 19.8101C10.68 20.9901 12.4 21.3501 13.77 21.4101C12.91 23.0501 12.49 25.0501 12.94 27.7901C13.03 28.3401 13.51 28.7301 14.05 28.7301C14.11 28.7301 14.17 28.7301 14.23 28.7201C14.84 28.6201 15.26 28.0401 15.16 27.4301C14.66 24.3801 15.42 22.5701 16.79 20.9501C16.82 20.9201 16.84 20.8901 16.87 20.8601C17.24 20.4301 17.67 20.0101 18.12 19.5801C19.3 19.4101 23.09 18.6401 25.21 15.4101C26.97 12.7401 27.11 9.17009 25.62 4.79009L25.63 4.77009ZM8.28003 12.5701C11.22 12.7501 13.24 13.5801 14.31 15.0301C15.34 16.4401 15.25 18.1801 15.1 19.1101C14.08 19.2201 12.08 19.2301 10.55 18.0201C9.20003 16.9501 8.43003 15.1201 8.27003 12.5701H8.28003ZM23.35 14.1301C21.95 16.2701 19.43 17.0101 18.24 17.2501C17.7 16.2701 16.79 14.1401 17.49 11.9501C18.19 9.75009 20.33 7.95009 23.84 6.58009C24.72 9.75009 24.56 12.2801 23.35 14.1301Z" fill="white"/>
</g>
<defs>
<clipPath id="clip0_1278_3601">
<rect width="31.89" height="31.89" fill="white"/>
</clipPath>
</defs>
</svg>
