<svg width="18" height="18" viewBox="0 0 18 18" fill="none" xmlns="http://www.w3.org/2000/svg">
<circle cx="9" cy="9" r="9" fill="#1D4321"/>
<path fill-rule="evenodd" clip-rule="evenodd" d="M13.8872 6.78406L8.30458 12.8389C8.16991 12.9876 7.9846 13.0725 7.79038 13.0745C7.59532 13.0769 7.40847 12.9912 7.27618 12.8389L4.12175 9.42072C3.91408 9.19538 3.85195 8.86063 3.96355 8.56838C4.07515 8.27612 4.33923 8.08203 4.63595 8.07416C4.83102 8.07184 5.01787 8.15747 5.15016 8.30981L7.79087 11.1723L12.8505 5.67315C12.9852 5.52442 13.1705 5.4395 13.3647 5.4375C13.77 5.44487 14.0942 5.79762 14.0914 6.22834C14.0957 6.43508 14.0222 6.63508 13.8872 6.78406V6.78406Z" fill="#B5F25B"/>
</svg>
