<svg width="14" height="12" viewBox="0 0 14 12" fill="none" xmlns="http://www.w3.org/2000/svg">
<path d="M4.98124 6.88375L11.405 0.460005C11.465 0.400004 11.5325 0.370005 11.6075 0.370005C11.6825 0.370005 11.7462 0.400004 11.7987 0.460005L13.79 2.45125C13.85 2.50375 13.88 2.5675 13.88 2.6425C13.88 2.7175 13.85 2.785 13.79 2.845L4.98124 11.665C4.92874 11.725 4.86312 11.755 4.78437 11.755C4.70562 11.755 4.63999 11.725 4.58749 11.665L0.26749 7.345C0.20749 7.285 0.17749 7.2175 0.17749 7.1425C0.17749 7.0675 0.20749 7.00375 0.26749 6.95125L2.25874 4.96C2.31124 4.9 2.37499 4.87 2.44999 4.87C2.52499 4.87 2.59249 4.9 2.65249 4.96L4.57624 6.88375C4.62874 6.93625 4.69624 6.9625 4.77874 6.9625C4.86124 6.9625 4.92874 6.93625 4.98124 6.88375Z" fill="#64A535"/>
</svg>
