<svg width="25" height="24" viewBox="0 0 25 24" fill="none" xmlns="http://www.w3.org/2000/svg">
<g id="Food Card Tag" clip-path="url(#clip0_4133_24254)">
<path id="Carb" fill-rule="evenodd" clip-rule="evenodd" d="M24.2148 6.30769C24.2148 7.71282 23.5173 8.98462 22.3686 9.75385L22.3584 9.74359L22.4814 12.9538C23.5481 14.1231 24.2045 15.6821 24.2045 17.3949C24.2045 21.0359 21.2404 24 17.5994 24C15.5378 24 13.6917 23.0564 12.4814 21.5692H4.72759C3.97887 21.5692 3.2917 21.2821 2.76862 20.7385C2.24554 20.2051 1.97887 19.4974 2.00964 18.7487L2.36862 9.75385C1.2199 8.99487 0.522465 7.71282 0.522465 6.30769V6.11282L0.522462 6.08897C0.522384 5.06328 0.522267 3.52832 1.81477 2.22564C3.30195 0.728205 6.10195 0 10.3686 0H14.3686C18.6353 0 21.4353 0.728205 22.9225 2.22564C24.2155 3.51872 24.2151 5.04065 24.2148 6.0662L24.2148 6.11282V6.30769ZM22.7071 6.07072C22.7072 5.16571 22.7073 4.14384 21.8558 3.29231H21.8661C21.1891 2.60513 20.0507 2.11282 18.4814 1.82564C18.6455 1.94872 18.7891 2.08205 18.9327 2.22564C20.2258 3.51872 20.2253 5.04065 20.225 6.06619C20.225 6.08185 20.225 6.09739 20.225 6.11282V6.30769C20.225 7.71282 19.5276 8.98462 18.3789 9.75385L18.4199 10.8513C19.3327 10.9641 20.184 11.2615 20.943 11.7026L20.8507 9.3641C20.8404 9.06667 20.9943 8.78974 21.2609 8.65641C22.1532 8.20513 22.7071 7.30256 22.7071 6.30769V6.10256L22.7071 6.07072ZM4.73785 20.0718H11.5686H11.5891C11.2302 19.2513 11.025 18.3487 11.025 17.4051C11.025 14.0103 13.6096 11.2 16.9225 10.841L16.8609 9.3641C16.8507 9.06667 17.0045 8.78974 17.2712 8.65641C18.1635 8.20513 18.7173 7.30256 18.7173 6.30769V6.10256L18.7173 6.07072C18.7175 5.16571 18.7176 4.14384 17.8661 3.29231C16.6866 2.11282 14.1737 1.50769 10.3789 1.50769C6.584 1.50769 4.07118 2.11282 2.8917 3.29231C2.04016 4.14384 2.04029 5.16571 2.04041 6.07072C2.04041 6.08135 2.04041 6.09197 2.04041 6.10256V6.30769C2.04041 7.30256 2.59426 8.20513 3.48657 8.65641C3.74298 8.78974 3.90708 9.06667 3.89682 9.3641L3.52759 18.8103C3.51734 19.1487 3.64041 19.4667 3.86605 19.7026C4.0917 19.9385 4.40964 20.0718 4.73785 20.0718ZM17.6096 22.5026C20.4199 22.5026 22.7071 20.2154 22.7071 17.4051C22.7071 14.5949 20.4199 12.3077 17.6096 12.3077C14.7994 12.3077 12.5122 14.5949 12.5122 17.4051C12.5122 20.2154 14.7994 22.5026 17.6096 22.5026ZM18.3687 18.9126L19.3841 17.8972C19.6815 17.5998 20.1533 17.5998 20.4507 17.8972C20.7482 18.1947 20.7482 18.6665 20.4507 18.9639L18.143 21.2716C17.9995 21.4254 17.8046 21.4972 17.6097 21.4972C17.4148 21.4972 17.22 21.4152 17.0764 21.2716L14.7687 18.9639C14.4713 18.6665 14.4713 18.1947 14.7687 17.8972C15.0661 17.5998 15.5379 17.5998 15.8354 17.8972L16.8507 18.9126V14.7998C16.8507 14.3793 17.1892 14.0408 17.6097 14.0408C18.0302 14.0408 18.3687 14.3793 18.3687 14.7998V18.9126Z" fill="#016A95"/>
</g>
<defs>
<clipPath id="clip0_4133_24254">
<rect width="23.6822" height="24" fill="white" transform="translate(0.522461)"/>
</clipPath>
</defs>
</svg>
