<svg width="20" height="21" viewBox="0 0 20 21" fill="none" xmlns="http://www.w3.org/2000/svg">
<rect y="0.219727" width="20" height="20" rx="10" fill="#006B00"/>
<path fill-rule="evenodd" clip-rule="evenodd" d="M15.7591 7.63027L9.18023 13.9728C9.02153 14.1286 8.80315 14.2176 8.57427 14.2197C8.34439 14.2221 8.1242 14.1324 7.9683 13.9728L4.25094 10.3922C4.00621 10.1562 3.93299 9.80551 4.06451 9.49938C4.19602 9.19324 4.50723 8.98992 4.85691 8.98168C5.08678 8.97925 5.30697 9.06895 5.46287 9.22852L8.57484 12.227L14.5374 6.46657C14.6961 6.31078 14.9145 6.22182 15.1434 6.21973C15.621 6.22745 16.003 6.59696 15.9998 7.04815C16.0048 7.26471 15.9182 7.47422 15.7591 7.63027V7.63027Z" fill="white"/>
</svg>
