<svg width="11" height="12" viewBox="0 0 11 12" fill="none" xmlns="http://www.w3.org/2000/svg">
<g id="Group">
<path id="filter" d="M0.75 2.68221e-07H9.75C9.89 2.68221e-07 10.0083 0.0483336 10.105 0.145C10.2017 0.241667 10.25 0.36 10.25 0.5C10.25 0.64 10.2017 0.758334 10.105 0.855C10.0083 0.951667 9.89 1 9.75 1H0.75C0.61 1 0.491667 0.951667 0.395 0.855C0.298333 0.758334 0.25 0.64 0.25 0.5C0.25 0.36 0.298333 0.241667 0.395 0.145C0.491667 0.0483336 0.61 2.68221e-07 0.75 2.68221e-07ZM6.25 7V10L4.25 12V7L0.75 2H9.75L6.25 7Z" fill="#006B00"/>
</g>
</svg>
