<svg width="89" height="72" viewBox="0 0 89 72" fill="none" xmlns="http://www.w3.org/2000/svg">
<g id="Layer_1" clip-path="url(#clip0_607_62236)">
<g id="Salad">
<path id="Vector" d="M58.1038 68.0178V63.6929H35.7768V68.0178H58.1038ZM59.8433 59.0167C69.0483 55.3252 76.774 48.5407 81.7409 39.8043H11.9445C16.7249 48.4583 24.455 55.2471 33.8638 59.0167H59.839H59.8433ZM83.784 35.1324C84.2178 33.7876 84.6169 32.3518 84.8295 30.8075H8.87767C9.0642 32.2086 9.41123 33.6575 9.91008 35.1324H83.784ZM84.8555 26.1356C84.4304 23.7151 82.2615 21.8108 79.7411 21.8108C78.6393 21.8108 77.6069 21.0083 77.3423 19.9411C76.8868 17.8156 75.425 16.3537 73.3298 15.9069C72.9697 15.8332 72.6053 15.7941 72.2453 15.7941C69.8204 15.7941 67.773 17.4859 67.2611 19.9151C66.9618 21.0994 66.0465 21.8151 64.8579 21.8151C62.2769 21.9539 60.1643 23.7888 59.7436 26.14H84.8598L84.8555 26.1356ZM54.9112 26.1356C54.4861 23.7151 52.3171 21.8108 49.7968 21.8108C48.695 21.8108 47.6669 21.0083 47.398 19.9411C46.9512 18.0021 45.2941 16.345 43.3681 15.9026C43.0254 15.8288 42.6567 15.7898 42.2966 15.7898C39.8718 15.7898 37.8243 17.4816 37.3124 19.9108C37.0391 21.0083 36.0067 21.8108 34.9092 21.8108C33.5558 21.8108 32.1504 22.4484 31.0963 23.5372C31.0789 24.4655 30.9878 25.3201 30.8837 26.14H54.9112V26.1356ZM9.55438 26.1356L7.25964 24.6044C6.82152 24.3137 6.50919 23.8192 6.39207 23.2553C6.27928 22.687 6.37905 22.1101 6.67403 21.6763C7.04709 21.1124 7.74115 20.7653 8.48292 20.7653C8.89936 20.7653 9.28543 20.8781 9.60643 21.0907L14.7121 24.4178C14.3304 23.9016 13.9617 23.3507 13.6016 22.8085C13.4368 22.4962 13.3804 22.3356 13.3283 22.1708C13.3066 22.1101 13.2893 22.0493 13.2589 21.9799C13.1505 21.8845 13.0464 21.8064 12.9379 21.7283C12.734 21.5765 12.5302 21.4204 12.3263 21.2165C11.2678 20.5051 9.51534 20.093 7.23361 20.093C6.32266 20.093 5.35532 20.158 4.29688 20.2925C4.80007 22.1968 5.77175 24.0838 7.3117 26.1443H9.56305L9.55438 26.1356ZM17.5144 10.6798C16.9331 13.1827 16.2304 17.6464 17.6879 20.5528C18.8721 22.3183 20.4728 23.8756 22.3598 25.0945L18.0523 17.0218C17.7616 16.3103 17.7139 15.69 17.8788 15.1391C18.0696 14.4971 18.5338 13.9983 19.1888 13.7336C19.5185 13.6035 19.8568 13.5384 20.1952 13.5384C21.1278 13.5384 21.9564 14.0373 22.3598 14.8441L26.1554 22.1578C26.1945 22.0797 26.2335 21.9973 26.2725 21.9192C26.4027 20.0366 26.0643 18.1496 25.2965 16.4535C23.9301 13.8594 20.0086 11.7122 17.5144 10.6798ZM51.4756 17.0521C53.8267 17.4859 55.8785 18.6658 57.2927 20.3923C58.2643 19.3252 59.3922 18.4836 60.6068 17.9197C60.7456 16.9133 60.8757 15.8896 60.8757 14.8875C60.8757 8.98801 57.8045 3.81293 54.2995 3.81293C51.2023 3.81293 48.3957 7.61291 47.7754 12.5581C49.5539 13.7857 50.7685 15.2693 51.4799 17.0565L51.4756 17.0521ZM39.2384 3.80859C35.7334 3.80859 32.6622 8.98368 32.6622 14.8832C32.6622 15.6857 32.7446 16.4882 32.8444 17.2343C32.9182 17.217 32.9919 17.2039 33.0656 17.1909C34.4928 13.5081 38.0759 11.0745 42.1491 11.0745C42.5135 11.0745 42.8822 11.0962 43.2423 11.1353C43.4896 10.0768 43.7802 8.93596 44.1879 7.67798C42.969 5.27913 41.095 3.80859 39.2341 3.80859H39.2384Z" fill="white"/>
<g id="Path_2099">
<path id="Vector_2" d="M88.7381 28.5562C88.7381 28.3827 88.7381 28.2092 88.5646 28.0357C88.5646 27.6886 88.7381 27.3416 88.7381 26.9989C88.7381 22.5005 85.2764 18.6919 80.7781 18.1713C79.2208 13.4995 74.0283 10.9011 69.3564 12.6319C67.4521 13.3259 65.7213 14.5362 64.6846 16.267V15.0568C64.6846 6.57621 60.0127 0 54.1262 0C51.0116 0.173515 48.2397 1.73081 46.6824 4.49837C45.2986 1.90433 42.3575 0.173515 39.4121 0C33.5256 0 29.0272 6.4027 28.8537 14.7097C25.9127 8.99675 16.738 6.22918 16.391 6.05567C15.5278 5.88215 14.6602 6.22918 14.4867 7.09242C13.4499 10.554 12.9294 14.1892 13.1029 17.8243C8.43102 15.7465 1.68129 17.1303 1.33426 17.1303C0.6402 17.3038 0.123993 17.9935 0.297508 18.6876C0.991568 22.3227 2.54886 25.6108 4.79588 28.5519C4.79588 31.6665 5.48994 34.7811 6.52669 37.553C6.52669 37.7265 6.70021 38.0735 6.70021 38.247C10.6824 48.1113 20.0262 57.4595 31.6213 62.4784V70.4384C31.6213 71.3016 32.3153 71.9957 33.1786 71.9957H60.1775C61.0407 71.9957 61.7348 71.3016 61.7348 70.4384V62.4784C73.3299 57.4595 82.6781 48.1113 86.6559 38.247C86.8294 38.0735 86.8294 37.9 86.8294 37.553C88.0397 34.6119 88.7337 31.6665 88.7337 28.5519L88.7381 28.5562ZM7.91047 29.9443H85.797C85.6235 32.0222 85.1029 33.9265 84.4132 36H9.29426C8.6002 34.0957 8.08399 32.0178 7.91047 29.9443ZM48.2397 19.7286C48.4132 20.4227 49.1029 20.9389 49.797 20.9389C53.0851 20.9389 55.8526 23.7065 55.8526 26.9946H29.8905C30.064 25.7843 30.2375 24.5697 30.2375 23.1859C31.4478 21.8021 33.1786 20.9346 34.9094 20.9346C35.6035 20.9346 36.2932 20.414 36.4667 19.7243C37.1608 16.4362 40.2753 14.3584 43.5635 15.0524C45.8148 15.573 47.7191 17.4773 48.2353 19.7243L48.2397 19.7286ZM66.411 19.7286C67.1051 16.4405 70.2197 14.3627 73.5078 15.0568C75.9327 15.5773 77.6635 17.3081 78.1797 19.7286C78.3532 20.4227 79.0429 20.9389 79.737 20.9389C83.0251 20.9389 85.7926 23.7065 85.7926 26.9946H58.7937C58.7937 23.7065 61.5613 21.1081 64.8494 20.9389C65.7126 20.9389 66.2332 20.4184 66.4067 19.7286H66.411ZM54.2954 2.94108C58.2775 2.94108 61.7391 8.48054 61.7391 14.8832C61.7391 16.0935 61.5656 17.3081 61.3921 18.5184C59.6613 19.2124 58.2775 20.4227 57.2364 21.8065C55.8526 19.5551 53.4278 18.1713 50.8337 17.8243C50.1397 15.7465 48.7559 14.1892 46.8516 12.9789C47.3721 7.43945 50.4867 2.94108 54.2954 2.94108ZM39.2386 2.94108C41.49 2.94108 43.737 4.67189 45.1251 7.61297C44.6045 9.17026 44.2619 10.554 43.9148 12.1113C39.59 11.2481 35.0872 13.6686 33.7035 17.9978C33.1829 17.9978 32.6667 18.1713 32.1462 18.3449C31.9727 17.3081 31.7991 16.0935 31.7991 14.8832C31.7991 8.48054 35.2608 2.94108 39.2429 2.94108H39.2386ZM16.9116 9.51729C19.3364 10.3805 24.3554 12.8054 26.0862 16.0935C26.9494 17.9978 27.2964 20.0757 27.1229 22.1492C26.7759 22.8432 26.4289 23.533 26.2597 24.227L21.5878 15.2259C21.2408 14.5319 20.3775 14.1892 19.5099 14.5319C18.6424 14.8746 18.4732 15.7421 18.8159 16.6097L24.3554 26.9946H24.0083C21.0672 25.6108 18.6424 23.533 16.9116 20.9389C15.1808 17.4773 16.2175 12.1113 16.9116 9.51729ZM12.9294 20.5962C13.2764 20.9432 13.6235 21.1168 13.9661 21.4595C14.1397 21.8065 14.1397 21.98 14.3132 22.3227C15.0072 23.3594 15.697 24.4005 16.5645 25.2638C16.9116 25.7843 17.0851 26.474 17.4278 26.9946H17.0807L9.12074 21.8021C8.6002 21.4551 7.73696 21.6286 7.38993 22.1492C7.0429 22.6697 7.21642 23.533 7.73696 23.88L12.4088 26.9946H6.86939C5.13857 24.7432 3.75479 22.3227 3.23425 19.5508C5.4856 19.2038 10.1575 18.6876 12.9251 20.5875L12.9294 20.5962ZM58.7981 68.8854H34.9137V62.8297H58.9716V68.8854H58.7981ZM60.0083 59.8843H33.6991C23.6613 55.9022 15.3543 48.4627 10.5089 38.9411H83.2029C78.184 48.4584 70.0505 55.9022 60.0127 59.8843H60.0083Z" fill="#29353A"/>
</g>
<path id="Vector_3" d="M48.2398 19.7287C48.4133 20.4228 49.1031 20.939 49.7971 20.939C53.0852 20.939 55.8528 23.7066 55.8528 26.9947H29.8906C30.0641 25.7844 30.2377 24.5698 30.2377 23.186C31.4479 21.8023 33.1787 20.9347 34.9095 20.9347C35.6036 20.9347 36.2933 20.4141 36.4668 19.7244C37.1609 16.4363 40.2755 14.3585 43.5636 15.0525C45.815 15.5731 47.7193 17.4774 48.2355 19.7244L48.2398 19.7287Z" fill="#FFE9AA"/>
<path id="Vector_4" d="M66.4103 19.7286C67.1043 16.4405 70.2189 14.3626 73.507 15.0567C75.9319 15.5772 77.6627 17.308 78.1789 19.7286C78.3524 20.4226 79.0422 20.9388 79.7362 20.9388C83.0243 20.9388 85.7919 23.7064 85.7919 26.9945H58.793C58.793 23.7064 61.5605 21.108 64.8486 20.9388C65.7119 20.9388 66.2324 20.4183 66.4059 19.7286H66.4103Z" fill="#FFE9AA"/>
<path id="Vector_5" d="M60.0073 59.8844H33.6981C23.6602 55.9022 15.3532 48.4628 10.5078 38.9412H83.2019C78.183 48.4585 70.0494 55.9022 60.0116 59.8844H60.0073Z" fill="#FFE9AA"/>
<path id="Vector_6" d="M7.91016 29.9443H85.7967C85.6231 32.0222 85.1026 33.9265 84.4129 36H9.29394C8.59988 34.0957 8.08367 32.0178 7.91016 29.9443Z" fill="white"/>
<path id="Vector_7" d="M54.2954 2.94116C58.2775 2.94116 61.7391 8.48062 61.7391 14.8833C61.7391 16.0936 61.5656 17.3082 61.3921 18.5185C59.6613 19.2125 58.2775 20.4228 57.2364 21.8066C55.8526 19.5552 53.4278 18.1714 50.8337 17.8244C50.1397 15.7466 48.7559 14.1893 46.8516 12.979C47.3721 7.43953 50.4867 2.94116 54.2954 2.94116Z" fill="white"/>
<path id="Vector_8" d="M39.2383 2.94116C41.4896 2.94116 43.7367 4.67197 45.1248 7.61305C44.6042 9.17035 44.2615 10.5541 43.9145 12.1114C39.5896 11.2482 35.0869 13.6687 33.7032 17.9979C33.1826 17.9979 32.6664 18.1714 32.1459 18.3449C31.9723 17.3082 31.7988 16.0936 31.7988 14.8833C31.7988 8.48062 35.2605 2.94116 39.2426 2.94116H39.2383Z" fill="white"/>
<path id="Vector_9" d="M16.9106 9.51733C19.3355 10.3806 24.3544 12.8054 26.0852 16.0935C26.9484 17.9979 27.2955 20.0757 27.1219 22.1492C26.7749 22.8433 26.4279 23.533 26.2587 24.2271L21.5868 15.226C21.2398 14.5319 20.3766 14.1892 19.509 14.5319C18.6414 14.8746 18.4722 15.7422 18.8149 16.6098L24.3544 26.9946H24.0074C21.0663 25.6108 18.6414 23.533 16.9106 20.9389C15.1798 17.4773 16.2165 12.1114 16.9106 9.51733Z" fill="white"/>
<path id="Vector_10" d="M12.9295 20.5961C13.2766 20.9432 13.6236 21.1167 13.9663 21.4594C14.1398 21.8064 14.1398 21.9799 14.3133 22.3226C15.0074 23.3594 15.6971 24.4005 16.5647 25.2637C16.9117 25.7842 17.0852 26.474 17.4279 26.9945H17.0809L9.12087 21.8021C8.60032 21.455 7.73709 21.6286 7.39006 22.1491C7.04303 22.6697 7.21654 23.5329 7.73709 23.8799L12.409 26.9945H6.86951C5.1387 24.7432 3.75492 22.3226 3.23438 19.5507C5.48573 19.2037 10.1576 18.6875 12.9252 20.5875L12.9295 20.5961Z" fill="white"/>
<path id="Vector_11" d="M58.7964 68.8854H34.9121V62.8254H58.9656V68.8854H58.7964Z" fill="white"/>
</g>
</g>
<defs>
<clipPath id="clip0_607_62236">
<rect width="88.4753" height="72" fill="white" transform="translate(0.261719)"/>
</clipPath>
</defs>
</svg>
