<?xml version="1.0" encoding="UTF-8" standalone="no"?>
<!-- Created with Keyshape -->
<svg xmlns="http://www.w3.org/2000/svg" id="home_icon" viewBox="0 0 24.59 24.59" onpointerenter="document.getElementById('home_icon').getAnimations({subtree:true}).forEach(function(a){a.play()})">
    <style>
@keyframes a0_t { 0% { transform: translate(12.3px,12.3px) scale(1,1); animation-timing-function: cubic-bezier(0,0,0.58,1); } 21.4285% { transform: translate(12.3px,12.3px) scale(0.8,0.8); } 50% { transform: translate(12.3px,12.3px) scale(0.8,0.8); animation-timing-function: cubic-bezier(0.42,0,1,1); } 71.4285% { transform: translate(12.3px,12.3px) scale(1,1); animation-timing-function: cubic-bezier(0,0,0.58,1); } 100% { transform: translate(12.3px,12.3px) scale(1,1); } }
@keyframes a0_s { 0% { stroke: #7e7e7f; } 21.4286% { stroke: #d64394; } 50% { stroke: #d64394; animation-timing-function: cubic-bezier(0.42,0,1,1); } 71.4286% { stroke: #7e7e7f; } 100% { stroke: #7e7e7f; } }
@keyframes j_t { 0% { transform: translate(13.127058px,12.7914px) rotate(0deg) scale(1,1) translate(-3.977305px,-9.1786px); animation-timing-function: cubic-bezier(0,0,0.58,1); } 21.4285% { transform: translate(13.127058px,12.7914px) rotate(12deg) scale(1.2,1.2) translate(-3.977305px,-9.1786px); } 50% { transform: translate(13.127058px,12.7914px) rotate(12deg) scale(1.2,1.2) translate(-3.977305px,-9.1786px); animation-timing-function: cubic-bezier(0.42,0,1,1); } 71.4285% { transform: translate(13.127058px,12.7914px) rotate(0deg) scale(1,1) translate(-3.977305px,-9.1786px); animation-timing-function: cubic-bezier(0,0,0.58,1); } 100% { transform: translate(13.127058px,12.7914px) rotate(0deg) scale(1,1) translate(-3.977305px,-9.1786px); } }
@keyframes a1_f { 0% { fill: #7e7e7f; } 21.4286% { fill: #d64394; } 50% { fill: #d64394; } 71.4286% { fill: #7e7e7f; } 100% { fill: #7e7e7f; } }
@keyframes a2_f { 0% { fill: #7e7e7f; } 21.4286% { fill: #d64394; } 50% { fill: #d64394; } 71.4286% { fill: #7e7e7f; } 100% { fill: #7e7e7f; } }
    </style>
    <g id="Layer_1-2" data-name="Layer_1" transform="translate(12.3,12.3) translate(-12.3,-12.3)">
        <g transform="translate(12.3,12.3) translate(-12.3,-12.3)">
            <ellipse class="cls-2" rx="11.68" ry="11.68" stroke-width="1.24px" stroke-linecap="round" stroke-linejoin="round" stroke="#7e7e7f" fill="none" transform="translate(12.3,12.3)" style="animation: 1.4s linear both a0_t, 1.4s linear both a0_s; animation-play-state: paused;"/>
            <g transform="translate(13.1271,12.7914) translate(-13.1271,-12.7914)">
                <g id="j" transform="translate(13.1271,12.7914) translate(-3.97731,-9.1786)" style="animation: 1.4s linear both j_t; animation-play-state: paused;">
                    <path class="cls-1" d="M16.72,9.25C16.47,9.27,16.26,9.39,16.08,9.49L15.96,9.56C15.74,9.68,15.53,9.81,15.31,9.96C15.04,10.15,14.76,10.38,14.44,10.67L13.98,11.09L14,11.09C13.86,11.22,13.73,11.36,13.58,11.51C13.47,11.62,13.36,11.72,13.24,11.82C13.17,11.66,13.07,11.52,12.97,11.39C12.76,11.1,12.55,10.82,12.6,10.25C12.62,10.06,12.74,9.88,12.87,9.69C13.06,9.41,13.3,9.06,13.17,8.6C13.06,8.21,12.8,7.94,12.45,7.87C12.05,7.79,11.6,7.97,11.31,8.34C10.95,8.79,10.88,9.41,11.14,10.04C11.03,10.26,10.79,10.57,10.52,10.76C10.51,10.76,10.49,10.76,10.43,10.76C10.35,10.76,10.21,10.74,10.09,10.84C9.97,10.94,9.94,11.1,9.93,11.2C9.93,11.25,9.91,11.41,10,11.56C10.33,12.15,11.04,11.78,11.43,11.58C11.47,11.56,11.51,11.54,11.55,11.52C11.69,11.88,11.82,12.1,11.96,12.33C12.06,12.5,12.17,12.67,12.28,12.92C12.03,13.32,11.71,13.74,11.38,14.18C10.33,15.56,9.13,17.13,9.15,19.13C9.15,20.03,9.55,20.88,10.2,21.42C10.64,21.78,11.17,21.97,11.72,21.97C11.88,21.97,12.05,21.95,12.22,21.92C12.9,21.79,13.44,21.34,13.84,20.59C14.91,18.56,14.58,14.77,13.88,13.05C13.89,13.03,13.91,13.01,13.94,12.98C13.99,12.91,14.03,12.84,14.08,12.77L14.13,12.7C14.25,12.51,14.38,12.32,14.53,12.15C15.07,11.48,15.74,10.91,16.39,10.36L16.82,9.99C16.89,9.93,16.97,9.86,17.04,9.76C17.15,9.6,17.09,9.46,17.07,9.42C17.04,9.36,16.95,9.26,16.76,9.27ZM10.67,19C10.57,17.5,11.75,15.86,12.52,14.78C12.62,14.65,12.71,14.52,12.79,14.4C13.32,15.81,13.31,18.6,12.53,19.79C12.26,20.2,11.94,20.38,11.51,20.34L11.51,20.34C11.01,20.28,10.71,19.62,10.67,18.99Z" fill="#7e7e7f" transform="translate(3.97731,11.2978) translate(-13.1271,-14.9106)" style="animation: 1.4s linear both a1_f; animation-play-state: paused;"/>
                    <path class="cls-1" d="M12.91,6.16C12.91,6.16,12.99,6.16,13.03,6.16C13.4,6.16,13.76,5.98,14.09,5.62C14.21,5.49,14.3,5.33,14.34,5.16L14.41,4.86L14.38,4.86C14.41,4.28,14.07,3.83,13.47,3.67C12.76,3.48,11.84,3.76,11.59,4.56C11.52,4.79,11.51,4.98,11.67,5.24C11.82,5.49,12.25,6.08,12.9,6.14Z" fill="#7e7e7f" transform="translate(3.8261,1.2736) translate(-12.9759,-4.8864)" style="animation: 1.4s linear both a2_f; animation-play-state: paused;"/>
                </g>
            </g>
        </g>
    </g>
    <g/>
    <g/>

</svg>
