<svg width="56" height="25" viewBox="0 0 56 25" fill="none" xmlns="http://www.w3.org/2000/svg">
<g id="Layer_1">
<g id="Group">
<path id="Vector" d="M54.88 24.23H0V0H54.98C55.73 0 56.19 0.81 55.81 1.46L49.09 12.75L55.69 22.74C56.11 23.38 55.65 24.23 54.89 24.23H54.88Z" fill="#64A535"/>
<g id="Group_2">
<path id="Vector_2" d="M9.25 6.20996H11.42L14.88 13.05V6.20996H17.2V17.98H15.03L11.56 11.17V17.98H9.26V6.20996H9.25Z" fill="white"/>
<path id="Vector_3" d="M19.3799 6.20996H25.9899V8.42996H21.6799V11.1H24.8699V13.1H21.6799V15.77H25.9899V17.97H19.3799V6.20996Z" fill="white"/>
<path id="Vector_4" d="M26.7598 6.20996H29.0598L30.7798 14.22L32.4298 6.20996H34.4998L36.1498 14.22L37.8698 6.20996H40.1898L37.4198 17.98H35.0698L33.4698 10.18L31.8698 17.98H29.5198L26.7698 6.20996H26.7598Z" fill="white"/>
</g>
</g>
</g>
</svg>
