<svg width="51" height="50" viewBox="0 0 51 50" fill="none" xmlns="http://www.w3.org/2000/svg">
<g clip-path="url(#clip0_2050_23749)">
<mask id="mask0_2050_23749" style="mask-type:luminance" maskUnits="userSpaceOnUse" x="0" y="0" width="51" height="50">
<path d="M50.471 0H0.483887V49.9871H50.471V0Z" fill="white"/>
</mask>
<g mask="url(#mask0_2050_23749)">
<path d="M1.21216 43.0062H19.604L15.9023 42.0065L16.8417 40.4767L22.2541 40.3604V24.9937H1.21216V43.0062Z" fill="#FBEAE3"/>
<path d="M1.28971 43.5405H8.54646C8.99462 43.5405 9.35228 43.1785 9.35228 42.7347C9.35228 42.2908 8.99031 41.9288 8.54646 41.9288H2.09985V25.8037H21.4483V37.8954C21.4483 38.3436 21.8103 38.7012 22.2541 38.7012C22.698 38.7012 23.0599 38.3393 23.0599 37.8954V24.9936C23.0599 24.5454 22.698 24.1877 22.2541 24.1877H1.28971C0.845862 24.1877 0.483887 24.5454 0.483887 24.9936V42.7304C0.483887 43.1785 0.845862 43.5362 1.28971 43.5362V43.5405Z" fill="#2A353B"/>
<path d="M9.3523 32.2504H14.1916C14.6397 32.2504 14.9974 31.8884 14.9974 31.4446V24.998C14.9974 24.5498 14.6354 24.1921 14.1916 24.1921C13.7477 24.1921 13.3857 24.5541 13.3857 24.998V30.6431H10.1624V24.998C10.1624 24.5498 9.80046 24.1921 9.35661 24.1921C8.91276 24.1921 8.55078 24.5541 8.55078 24.998V31.4446C8.55078 31.8927 8.91276 32.2504 9.35661 32.2504H9.3523Z" fill="#2A353B"/>
<path d="M40.7968 11.2859C41.2061 11.2859 41.5509 10.9799 41.5983 10.5705C42.0464 6.675 41.5466 4.07222 40.034 2.37439C38.5904 0.754115 36.2721 0 32.7342 0C28.3603 0 26.5806 1.43928 25.0638 6.35611C24.7923 6.46385 24.5984 6.54141 24.5165 6.57589C24.1071 6.74395 23.9089 7.21365 24.0769 7.62734C24.245 8.03672 24.7147 8.23494 25.1284 8.06688C25.3051 7.99362 25.499 7.91606 25.7058 7.83418C25.9041 7.83418 26.0937 7.76092 26.2359 7.63165C27.7355 7.06283 29.5928 6.45092 30.3081 6.45092C33.1565 6.45092 34.2597 7.57563 35.4275 8.76497C36.5866 9.9457 37.9053 11.2902 40.7881 11.2902L40.7968 11.2859ZM32.7342 1.61596C35.7765 1.61596 37.7157 2.19771 38.8318 3.45169C39.9263 4.68413 40.3271 6.66207 40.0728 9.64406C38.3793 9.46738 37.5778 8.64432 36.5866 7.63596C35.3025 6.32595 33.846 4.83927 30.3167 4.83927C29.554 4.83927 28.2095 5.2271 27.0072 5.64078C28.2655 2.21494 29.6617 1.61165 32.7385 1.61165L32.7342 1.61596Z" fill="#2A353B"/>
<path d="M37.5691 6.44655H37.6251C38.069 6.41638 38.4051 6.02855 38.375 5.5847C38.0862 1.46939 34.3027 0.124907 34.1433 0.0731961C33.721 -0.0733178 33.2642 0.150762 33.1177 0.573067C32.9755 0.995371 33.1953 1.45215 33.6133 1.59866C33.7382 1.64176 36.5478 2.67166 36.759 5.70105C36.7892 6.12766 37.1425 6.45086 37.5605 6.45086L37.5691 6.44655Z" fill="#2A353B"/>
<path d="M32.7343 20.1544C35.0009 20.1544 36.9703 19.215 38.4311 17.4396C39.1723 16.5346 39.6075 15.634 39.81 15.1384C40.883 14.6687 41.6027 13.669 41.6027 12.596C41.6027 10.1613 40.5469 9.75189 40.2237 9.69156C39.7885 9.60106 39.3619 9.88547 39.2714 10.3207C39.1938 10.6999 39.3964 11.0748 39.7368 11.2256C39.823 11.3377 39.9867 11.7341 39.9867 12.6046C39.9867 13.0786 39.5386 13.5699 38.9525 13.7422C38.6939 13.8155 38.4914 14.018 38.4138 14.2723C38.3621 14.4446 37.0004 18.5427 32.7343 18.5427C30.8985 18.5427 29.4334 17.4482 28.382 15.2936C27.4296 13.3372 27.0892 11.0447 27.0892 9.67863C27.0892 9.23047 26.7272 8.8728 26.2834 8.8728C25.8395 8.8728 25.4775 9.23478 25.4775 9.67863C25.4775 11.2213 25.8611 13.8026 26.9297 16.0003C28.2527 18.7194 30.2608 20.1544 32.73 20.1544H32.7343Z" fill="#2A353B"/>
<path d="M31.9285 10.4801H37.7287C38.1768 10.4801 38.5345 10.1181 38.5345 9.67423C38.5345 9.23038 38.1725 8.86841 37.7287 8.86841H31.9371C31.8681 8.83393 31.6958 8.66156 31.5665 8.53229C30.7951 7.75231 29.5024 6.45093 25.4818 6.45093C25.2405 6.45093 24.9906 6.47247 24.7105 6.51988C24.6674 6.52849 24.6243 6.53711 24.5812 6.55004C23.2281 6.83876 22.2585 7.79972 22.2585 8.87272C22.2585 9.94571 23.1936 10.4456 23.8228 10.4844L23.9176 8.87272H23.9348C23.9348 8.87272 23.8874 8.8641 23.8659 8.85548C23.8831 8.68311 24.2063 8.2565 24.9734 8.11429C24.9992 8.11429 25.0251 8.10567 25.0466 8.09705C25.2061 8.07551 25.3483 8.06689 25.4775 8.06689C28.8258 8.06689 29.7825 9.03647 30.4159 9.67423C30.7951 10.0578 31.2217 10.4887 31.9241 10.4887L31.9285 10.4801Z" fill="#2A353B"/>
<path d="M31.1225 33.0562C31.4457 33.0562 31.7387 32.8666 31.8637 32.565L34.2036 27.0965C34.5268 26.8208 35.324 26.1313 36.1299 25.3168C38.1423 23.2786 38.3793 22.3133 38.3793 21.766V20.1501C38.3793 19.7019 38.0173 19.3442 37.5734 19.3442C37.1296 19.3442 36.7676 19.7062 36.7676 20.1501V21.766C36.7676 21.7919 36.7461 22.3995 34.9922 24.1749C34.0226 25.1574 33.0401 25.9718 33.0272 25.9805C32.9281 26.0623 32.8505 26.1658 32.7988 26.2821L31.2733 29.8415L30.2865 26.3941C30.265 26.3123 30.2348 26.239 30.1874 26.1701C29.5497 25.1445 29.2653 24.3257 29.4979 22.6796C29.541 22.3822 29.4118 22.0849 29.1704 21.9125C28.9291 21.7359 28.6059 21.7143 28.3388 21.8436L25.1155 23.4596C24.9086 23.563 24.7578 23.7483 24.6975 23.968C23.9649 26.6872 25.5248 29.3201 25.5895 29.4321C25.736 29.6735 25.9945 29.82 26.279 29.82H26.2876C26.572 29.82 26.8348 29.6648 26.977 29.4192C27.3218 28.8289 28.1578 27.7515 28.9162 27.4585L30.3426 32.4615C30.4331 32.789 30.7261 33.0217 31.0665 33.0433H31.1225V33.0562ZM28.2698 25.9977C27.5459 26.2993 26.921 26.8811 26.4513 27.4197C26.21 26.6958 26.0032 25.7176 26.1755 24.7394L27.8087 23.9206C27.8346 24.7222 27.9983 25.3858 28.2655 25.9977H28.2698Z" fill="#2A353B"/>
<path d="M28.705 23.3776C28.9032 23.3776 29.0971 23.3043 29.2566 23.1578C29.3643 23.0544 30.3166 22.1279 30.3166 20.9601C30.3166 20.512 29.9546 20.1543 29.5108 20.1543C29.0669 20.1543 28.705 20.5163 28.705 20.9601C28.705 21.3652 28.2956 21.8478 28.1534 21.99C27.8302 22.296 27.8173 22.8088 28.1232 23.1277C28.2827 23.2957 28.4938 23.3819 28.7093 23.3819L28.705 23.3776Z" fill="#2A353B"/>
<path d="M37.5691 29.8328C37.7759 29.8328 37.9742 29.7553 38.1207 29.6131C39.1204 28.665 41.9559 24.3127 42.2748 23.8214C42.3911 23.6405 42.4299 23.4164 42.3868 23.2009C42.3351 22.9855 42.2058 22.8045 42.0162 22.6924L37.9871 20.275C37.6036 20.0466 37.108 20.1715 36.8796 20.5507C36.6512 20.9343 36.7762 21.4298 37.1554 21.6582L40.4692 23.6491C39.5298 25.0754 38.3275 26.8336 37.5605 27.8118C36.7503 27.0017 35.2637 25.8037 33.54 25.8037C33.0918 25.8037 32.7341 26.1657 32.7341 26.6095C32.7341 27.0534 33.0961 27.4153 33.54 27.4153C35.2809 27.4153 36.9141 29.4967 36.927 29.5139C37.0649 29.6949 37.2761 29.8113 37.5001 29.8285H37.5648V29.8371L37.5691 29.8328Z" fill="#2A353B"/>
<path d="M47.2477 43.5405C47.5752 43.5405 47.8769 43.3423 47.9975 43.032C48.0966 42.7735 50.471 36.6716 50.471 30.643C50.471 29.0917 49.0447 27.3206 46.1015 25.222C44.0675 23.7741 42.0637 22.714 41.9775 22.6709C41.5854 22.4641 41.0941 22.6192 40.8873 23.0113C40.6804 23.4035 40.8356 23.8947 41.2277 24.1016C44.395 25.7649 48.8594 28.8977 48.8594 30.643C48.8594 35.3314 47.2908 40.2138 46.7091 41.8599C45.2008 41.6401 41.2019 40.8645 38.5345 38.5073L40.7322 33.3793C40.9088 32.97 40.7192 32.4959 40.3055 32.3236C39.8919 32.1512 39.4222 32.3365 39.2498 32.7502L36.8323 38.3953C36.703 38.6969 36.772 39.0503 37.0047 39.283C40.702 42.9803 46.9202 43.5233 47.1831 43.5448H47.252L47.2477 43.5405Z" fill="#2A353B"/>
<path d="M35.9576 49.9872C37.3796 49.9872 39.3489 48.7892 41.9776 46.3329C43.8262 44.6006 45.2914 42.9028 45.356 42.8295C45.6447 42.4891 45.6102 41.9849 45.2698 41.6962C44.9294 41.4075 44.4252 41.4419 44.1322 41.7824C41.9345 44.3334 37.7804 48.3798 35.9576 48.3798C34.1348 48.3798 28.6448 46.4407 25.7318 45.4021C23.5944 44.6394 23.3186 44.5532 23.06 44.5532C22.9868 44.5532 21.2157 44.5618 19.5092 45.1479L17.0444 45.1608L13.4849 44.6092C12.9549 44.5274 12.5757 44.0792 12.5757 43.5492H19.8324C20.2806 43.5492 20.6382 43.1872 20.6382 42.7433C20.6382 42.2995 20.2763 41.9375 19.8324 41.9375H16.6091C16.6091 41.4894 16.9711 41.1317 17.4149 41.1317H20.2418C20.44 41.1317 20.6382 41.1575 20.8279 41.2049L23.6676 41.916C23.6935 41.9246 23.7193 41.9246 23.7409 41.9289L34.2727 43.5449C34.3114 43.5535 34.3545 43.5578 34.3933 43.5578C34.8199 43.5578 35.3155 43.3983 36.9961 41.4032C37.789 40.4638 38.4871 39.5373 38.5172 39.4985C38.7844 39.1451 38.7155 38.6366 38.3621 38.3695C38.0088 38.1023 37.5003 38.1712 37.2331 38.5246C36.1773 39.9208 34.807 41.5324 34.2856 41.9203L24.0167 40.3474L21.2157 39.6493C20.8968 39.5717 20.565 39.5287 20.2375 39.5287H17.4106C16.0748 39.5287 14.9932 40.6146 14.9932 41.9461H12.5757C11.688 41.9461 10.9597 42.6701 10.9597 43.5578C10.9597 44.8936 11.9164 46.0097 13.2393 46.2166L16.8591 46.7768C16.9021 46.7854 16.9452 46.7897 16.9883 46.7897L19.6514 46.7768C19.7462 46.7768 19.8367 46.7595 19.9229 46.7251C21.2157 46.2554 22.6765 46.1907 22.9954 46.1821C23.2712 46.2554 24.2451 46.6001 25.1888 46.9405C29.5454 48.4918 33.9624 50.013 35.9576 50.013V50.0001V49.9872Z" fill="#2A353B"/>
<path d="M44.8258 49.9871C45.274 49.9871 45.6317 49.6251 45.6317 49.1812V45.9579C45.6317 45.5098 45.2697 45.1521 44.8258 45.1521C44.382 45.1521 44.02 45.5141 44.02 45.9579V49.1812C44.02 49.6294 44.382 49.9871 44.8258 49.9871Z" fill="#2A353B"/>
<path d="M22.2541 49.9871C22.6979 49.9871 23.0599 49.6252 23.0599 49.1813V47.5653C23.0599 47.1172 22.6979 46.7595 22.2541 46.7595C21.8102 46.7595 21.4482 47.1215 21.4482 47.5653V49.1813C21.4482 49.6295 21.8102 49.9871 22.2541 49.9871Z" fill="#2A353B"/>
</g>
</g>
<defs>
<clipPath id="clip0_2050_23749">
<rect width="49.9871" height="50" fill="white" transform="translate(0.483887)"/>
</clipPath>
</defs>
</svg>
