<svg width="62" height="50" viewBox="0 0 62 50" fill="none" xmlns="http://www.w3.org/2000/svg">
<g clip-path="url(#clip0_2050_23715)">
<path d="M40.17 47.2348V44.2276H24.6654V47.2348H40.17ZM41.3749 40.9835C47.7653 38.4191 53.1309 33.7075 56.5809 27.6416H8.1154C11.4367 33.6508 16.8023 38.3676 23.3368 40.9835H41.3749ZM58.0021 24.3975C58.3008 23.4655 58.5788 22.4665 58.7282 21.3903H5.98358C6.11231 22.3635 6.35433 23.3676 6.69934 24.3975H58.0021ZM58.7488 18.1514C58.4553 16.4727 56.9465 15.1442 55.1957 15.1442C54.4285 15.1442 53.7127 14.588 53.5325 13.8465C53.2184 12.3687 52.204 11.3542 50.7467 11.0453C50.4995 10.9938 50.2421 10.968 49.9949 10.968C48.3111 10.968 46.8899 12.1421 46.5346 13.8311C46.3286 14.655 45.6901 15.1493 44.8662 15.1493C43.0742 15.242 41.6067 16.519 41.3131 18.1565H58.7591L58.7488 18.1514ZM37.9506 18.1514C37.6571 16.4727 36.1484 15.1442 34.3976 15.1442C33.6355 15.1442 32.9197 14.588 32.7344 13.8465C32.4254 12.4974 31.2719 11.3491 29.9383 11.0401C29.6962 10.9886 29.4439 10.9629 29.1916 10.9629C27.5078 10.9629 26.0866 12.1369 25.7313 13.8259C25.5407 14.588 24.825 15.1442 24.0629 15.1442C23.1206 15.1442 22.1473 15.587 21.4161 16.3439C21.4058 16.9876 21.344 17.5798 21.2668 18.1514H37.9506ZM6.45217 18.1514L4.85588 17.0906C4.55206 16.8898 4.33579 16.5448 4.2534 16.1534C4.17616 15.7621 4.24825 15.3604 4.44908 15.0566C4.70654 14.6653 5.19058 14.4232 5.70551 14.4232C5.99388 14.4232 6.26679 14.5005 6.48821 14.6498L10.031 16.9619C9.76319 16.6014 9.51087 16.2204 9.25855 15.8445C9.14527 15.6282 9.10407 15.5149 9.06803 15.4016C9.05258 15.3604 9.04228 15.3141 9.02168 15.2677C8.94959 15.2008 8.87235 15.1493 8.80026 15.0927C8.65608 14.9845 8.51705 14.8764 8.37287 14.7374C7.63651 14.243 6.42127 13.9598 4.83528 13.9598C4.20191 13.9598 3.5325 14.0062 2.79614 14.0988C3.1463 15.4222 3.82086 16.7301 4.88677 18.1617H6.45217V18.1514ZM11.9825 7.41501C11.5809 9.15548 11.0917 12.2554 12.101 14.2739C12.9249 15.4995 14.032 16.5808 15.3451 17.4305L12.3533 11.8228C12.1525 11.3285 12.1216 10.896 12.2297 10.5149C12.3636 10.0669 12.6829 9.72191 13.1411 9.54168C13.3677 9.44899 13.6046 9.40265 13.8415 9.40265C14.4903 9.40265 15.067 9.74766 15.3451 10.3089L17.9815 15.3862C18.0073 15.3295 18.0382 15.278 18.0639 15.2214C18.1566 13.9135 17.9197 12.6055 17.3842 11.4263C16.4316 9.62407 13.7127 8.13591 11.9774 7.41501H11.9825ZM35.5665 11.8434C37.1988 12.1421 38.6252 12.966 39.6036 14.1606C40.2781 13.4191 41.0608 12.8373 41.9053 12.4459C42.0031 11.7456 42.0907 11.035 42.0907 10.3398C42.0907 6.24096 39.9589 2.64673 37.5232 2.64673C35.3708 2.64673 33.4244 5.28834 32.9918 8.71779C34.2277 9.57258 35.0721 10.5973 35.5613 11.8434H35.5665ZM27.0649 2.64673C24.6293 2.64673 22.4975 6.24096 22.4975 10.3398C22.4975 10.896 22.5541 11.4572 22.6262 11.9722C22.6777 11.9619 22.7292 11.9516 22.7807 11.9413C23.7745 9.3872 26.2616 7.69307 29.0886 7.69307C29.3409 7.69307 29.5984 7.70852 29.8456 7.73427C30.0155 6.99791 30.2215 6.20492 30.4995 5.33468C29.6551 3.67145 28.3523 2.64673 27.0598 2.64673H27.0649Z" fill="white"/>
<path d="M61.4417 19.8301C61.4417 19.7116 61.4417 19.5881 61.3233 19.4696C61.3233 19.2276 61.4417 18.9907 61.4417 18.7487C61.4417 15.6231 59.037 12.9815 55.9114 12.621C54.83 9.37693 51.2255 7.57467 47.9762 8.77446C46.6529 9.25335 45.4531 10.0978 44.7322 11.2976V10.4583C44.7322 4.56746 41.4881 0 37.3995 0C35.2368 0.118435 33.3109 1.19979 32.2296 3.12564C31.2667 1.32338 29.2224 0.118435 27.1832 0C23.0947 0 19.969 4.44902 19.8506 10.2163C17.8063 6.25129 11.4366 4.32544 11.1946 4.207C10.5921 4.08857 9.99478 4.32544 9.8712 4.92791C9.15029 7.33265 8.78984 9.85582 8.90827 12.379C5.66419 10.9372 0.973153 11.9001 0.736284 11.9001C0.257396 12.0185 -0.103057 12.5026 0.0153776 12.9815C0.494265 15.5046 1.57562 17.7909 3.14102 19.8301C3.14102 21.9928 3.61991 24.1555 4.34082 26.0814C4.34082 26.1998 4.45925 26.4418 4.45925 26.5602C7.22444 33.4089 13.7126 39.9022 21.7661 43.3883V48.9186C21.7661 49.5211 22.245 50 22.8475 50H41.5962C42.1987 50 42.6776 49.5211 42.6776 48.9186V43.3883C50.7311 39.9022 57.2193 33.414 59.9845 26.5602C60.1029 26.4418 60.1029 26.3182 60.1029 26.0814C60.9423 24.0371 61.4263 21.9928 61.4263 19.8301H61.4417ZM5.31404 20.793H59.4026C59.2842 22.2348 58.9237 23.5582 58.4397 25H6.27181C5.79293 23.6766 5.43247 22.2348 5.30889 20.793H5.31404ZM33.3161 13.7024C33.4345 14.1813 33.9186 14.5417 34.3975 14.5417C36.6786 14.5417 38.6045 16.4624 38.6045 18.7487H20.5767C20.6951 17.9094 20.8187 17.0649 20.8187 16.102C21.658 15.139 22.863 14.5417 24.0628 14.5417C24.5416 14.5417 25.0257 14.1813 25.1441 13.7024C25.623 11.4212 27.7909 9.97425 30.072 10.4583C31.6323 10.8187 32.9556 12.1421 33.3161 13.7024ZM45.9371 13.7024C46.416 11.4212 48.5839 9.97425 50.865 10.4583C52.5488 10.8187 53.7486 12.0185 54.1091 13.7024C54.2275 14.1813 54.7116 14.5417 55.1905 14.5417C57.4716 14.5417 59.3975 16.4624 59.3975 18.7487H40.6487C40.6487 16.4676 42.5694 14.6601 44.8557 14.5417C45.4582 14.5417 45.8187 14.1813 45.9371 13.7024ZM37.5231 2.04428C40.2883 2.04428 42.693 5.89083 42.693 10.3399C42.693 11.1792 42.5746 12.0237 42.451 12.863C41.2512 13.3419 40.2883 14.1864 39.5674 15.1442C38.6045 13.5839 36.9206 12.621 35.1184 12.379C34.6395 10.9372 33.6766 9.85582 32.3532 9.01133C32.7136 5.16478 34.8763 2.03913 37.5231 2.03913V2.04428ZM27.0648 2.04428C28.6251 2.04428 30.1905 3.24408 31.1534 5.28836C30.7929 6.36972 30.5509 7.33265 30.314 8.41401C27.3068 7.81153 24.1863 9.49537 23.2234 12.5026C22.863 12.5026 22.5025 12.621 22.1421 12.7446C22.0236 12.0237 21.9 11.1843 21.9 10.3399C21.9 5.89083 24.3048 2.04428 27.07 2.04428H27.0648ZM11.5602 6.61174C13.244 7.21421 16.7301 8.89289 17.9299 11.1792C18.5324 12.5026 18.7692 13.9444 18.6508 15.3862C18.4088 15.8651 18.1719 16.3491 18.0483 16.828L14.8043 10.5767C14.5622 10.0978 13.9649 9.85582 13.3624 10.0978C12.76 10.3399 12.6415 10.9372 12.8836 11.5396L16.7301 18.7539H16.4881C14.4438 17.7909 12.76 16.3491 11.5602 14.5469C10.3604 12.1421 11.0813 8.41916 11.5602 6.61174ZM8.79499 14.3048C9.03701 14.5469 9.27387 14.6653 9.51589 14.9073C9.63433 15.1493 9.63433 15.2678 9.75791 15.5098C10.2368 16.2307 10.7208 16.9516 11.3182 17.5541C11.5602 17.9145 11.6786 18.3934 11.9206 18.7539H11.6786L6.14823 15.1493C5.78778 14.9073 5.18531 15.0309 4.94844 15.3913C4.70642 15.7518 4.83 16.3543 5.19045 16.5911L8.43453 18.7539H4.58798C3.38819 17.1936 2.42526 15.5098 2.06481 13.5839C3.62506 13.3419 6.87429 12.9815 8.79499 14.3048ZM40.6487 47.8373H24.0628V43.6303H40.7723V47.8373H40.6539H40.6487ZM41.4881 41.586H23.2183C16.2461 38.8208 10.4788 33.6509 7.11116 27.0443H57.5952C54.1091 33.656 48.4603 38.8208 41.4881 41.586Z" fill="#2A353B"/>
<path d="M33.3161 13.7024C33.4345 14.1812 33.9186 14.5417 34.3975 14.5417C36.6786 14.5417 38.6045 16.4624 38.6045 18.7487H20.5767C20.6951 17.9094 20.8187 17.0649 20.8187 16.1019C21.658 15.139 22.863 14.5417 24.0628 14.5417C24.5416 14.5417 25.0257 14.1812 25.1441 13.7024C25.623 11.4212 27.7909 9.97424 30.072 10.4583C31.6323 10.8187 32.9556 12.1421 33.3161 13.7024Z" fill="#FBEAE3"/>
<path d="M45.9373 13.7024C46.4162 11.4212 48.584 9.97424 50.8652 10.4583C52.549 10.8187 53.7488 12.0185 54.1093 13.7024C54.2277 14.1812 54.7117 14.5417 55.1906 14.5417C57.4718 14.5417 59.3976 16.4624 59.3976 18.7487H40.6489C40.6489 16.4675 42.5696 14.6601 44.8559 14.5417C45.4584 14.5417 45.8189 14.1812 45.9373 13.7024Z" fill="#FBEAE3"/>
<path d="M41.4883 41.5859H23.2184C16.2462 38.8207 10.479 33.6508 7.11133 27.0442H57.5954C54.1093 33.6559 48.4605 38.8207 41.4883 41.5859Z" fill="#FBEAE3"/>
<path d="M5.31423 20.793H59.4028C59.2844 22.2348 58.9239 23.5582 58.4399 25H6.27201C5.79312 23.6766 5.43267 22.2348 5.30908 20.793H5.31423Z" fill="white"/>
<path d="M37.5232 2.04421C40.2884 2.04421 42.6931 5.89076 42.6931 10.3398C42.6931 11.1791 42.5747 12.0236 42.4511 12.863C41.2513 13.3418 40.2884 14.1863 39.5675 15.1441C38.6046 13.5839 36.9207 12.6209 35.1185 12.3789C34.6396 10.9371 33.6766 9.85575 32.3533 9.01126C32.7137 5.16471 34.8764 2.03906 37.5232 2.03906V2.04421Z" fill="white"/>
<path d="M27.0649 2.04419C28.6252 2.04419 30.1906 3.24398 31.1535 5.28827C30.793 6.36963 30.551 7.33255 30.3142 8.41391C27.3069 7.81144 24.1864 9.49527 23.2235 12.5025C22.8631 12.5025 22.5026 12.6209 22.1422 12.7445C22.0237 12.0236 21.9001 11.1843 21.9001 10.3398C21.9001 5.89074 24.3049 2.04419 27.0701 2.04419H27.0649Z" fill="white"/>
<path d="M11.5603 6.61182C13.2442 7.21429 16.7303 8.89297 17.9301 11.1793C18.5325 12.5027 18.7694 13.9445 18.651 15.3863C18.409 15.8652 18.1721 16.3492 18.0485 16.8281L14.8044 10.5768C14.5624 10.0979 13.9651 9.8559 13.3626 10.0979C12.7601 10.3399 12.6417 10.9373 12.8837 11.5397L16.7303 18.7539H16.4883C14.444 17.791 12.7601 16.3492 11.5603 14.5469C10.3606 12.1422 11.0815 8.41923 11.5603 6.61182Z" fill="white"/>
<path d="M8.79512 14.3048C9.03713 14.5468 9.274 14.6652 9.51602 14.9072C9.63446 15.1493 9.63446 15.2677 9.75804 15.5097C10.2369 16.2306 10.721 16.9515 11.3183 17.554C11.5603 17.9144 11.6787 18.3933 11.9208 18.7538H11.6787L6.14836 15.1493C5.78791 14.9072 5.18544 15.0308 4.94857 15.3913C4.70655 15.7517 4.83013 16.3542 5.19058 16.5911L8.43466 18.7538H4.58811C3.38832 17.1935 2.42539 15.5097 2.06494 13.5839C3.62519 13.3418 6.87442 12.9814 8.79512 14.3048Z" fill="white"/>
<path d="M40.6487 47.8374H24.0627V43.6304H40.7672V47.8374H40.6487Z" fill="white"/>
</g>
<defs>
<clipPath id="clip0_2050_23715">
<rect width="61.4418" height="50" fill="white"/>
</clipPath>
</defs>
</svg>
