<svg width="63" height="50" viewBox="0 0 63 50" fill="none" xmlns="http://www.w3.org/2000/svg">
<g clip-path="url(#clip0_2050_23800)">
<mask id="mask0_2050_23800" style="mask-type:luminance" maskUnits="userSpaceOnUse" x="0" y="0" width="63" height="50">
<path d="M62.9999 0H0.95459V49.9914H62.9999V0Z" fill="white"/>
</mask>
<g mask="url(#mask0_2050_23800)">
<path d="M60.1684 49.9915H15.9303C14.534 49.9915 13.3575 48.9917 13.1334 47.6126L7.13442 10.5802C6.94049 9.39076 7.28095 8.17546 8.06098 7.2532C8.84533 6.33526 9.98738 5.80518 11.1898 5.80518H52.8291C54.859 5.80518 56.5656 7.25751 56.8931 9.26148L62.9653 46.7119C63.0989 47.5307 62.8662 48.3668 62.3232 49.0003C61.7888 49.6338 61.0001 49.9958 60.1684 49.9958L60.177 49.9872L60.1684 49.9915Z" fill="#FBEAE3"/>
<path d="M60.1684 49.9915H15.9303C14.534 49.9915 13.3575 48.9917 13.1334 47.6126L7.13442 10.5802C6.94049 9.39076 7.28095 8.17546 8.06098 7.2532C8.84533 6.33526 9.98738 5.80518 11.1898 5.80518H52.8291C54.859 5.80518 56.5656 7.25751 56.8931 9.26148L62.9653 46.7119C63.0989 47.5307 62.8662 48.3668 62.3232 49.0003C61.7888 49.6338 61.0001 49.9958 60.1684 49.9958L60.177 49.9872L60.1684 49.9915ZM11.1941 8.46851C10.7631 8.46851 10.3666 8.64951 10.0865 8.97704C9.80637 9.30457 9.69001 9.7226 9.75897 10.1449L15.7622 47.186C15.7752 47.2679 15.8441 47.3239 15.9303 47.3239H60.1684C60.2158 47.3239 60.2675 47.3023 60.2934 47.2679C60.3278 47.2248 60.3408 47.186 60.3278 47.1343L54.2556 9.68382C54.1436 8.98135 53.5402 8.46851 52.8248 8.46851H11.1941Z" fill="#2A353B"/>
<path d="M10.3064 48.483H3.78597C2.94991 48.483 2.16556 48.121 1.63117 47.4875C1.09678 46.854 0.859748 46.0179 0.993346 45.1991L6.97938 9.76554C7.35001 7.47714 9.31088 5.80933 11.6381 5.80933C12.375 5.80933 12.9654 6.40836 12.9654 7.13668C12.9654 7.86501 12.3664 8.46404 11.6381 8.46404C10.621 8.46404 9.76769 9.19236 9.59962 10.1965L3.61789 45.63C3.61789 45.6731 3.61789 45.7206 3.66099 45.755C3.69547 45.7981 3.73856 45.8111 3.78597 45.8111H10.3021C11.039 45.8111 11.6294 46.4101 11.6294 47.1384C11.6294 47.8667 11.0304 48.4658 10.3021 48.4658V48.4787L10.3064 48.483Z" fill="#2A353B"/>
<path d="M15.8916 12.8211C15.2451 12.8211 14.6763 12.3471 14.5771 11.6963C14.4651 10.968 14.965 10.2914 15.689 10.1793C15.9734 10.0414 16.6199 8.60632 16.2579 6.24897C15.9045 3.94764 14.9004 2.77112 14.5384 2.672C14.4478 2.73664 14.185 3.04693 14.0083 3.81835C13.8488 4.53375 13.1334 4.98625 12.4137 4.8268C11.6983 4.66734 11.2458 3.95195 11.4053 3.23225C11.8233 1.39636 12.8188 0.228453 14.1332 0.0259019C14.8228 -0.0775286 16.1631 0.0129732 17.3956 1.80577C18.1196 2.85731 18.6497 4.28379 18.8824 5.83525C19.1195 7.3867 19.0419 8.90799 18.6669 10.1276C18.0291 12.2091 16.775 12.6961 16.0855 12.8039C16.0165 12.8125 15.9476 12.8168 15.8829 12.8168L15.8916 12.8211Z" fill="#2A353B"/>
<path d="M26.9716 12.821C26.3252 12.821 25.7563 12.347 25.6572 11.6962C25.5452 10.9679 26.0451 10.2913 26.7691 10.1792C27.0535 10.0413 27.7 8.60624 27.338 6.24889C26.9846 3.94757 25.9804 2.77104 25.6184 2.67192C25.5279 2.74088 25.265 3.04686 25.0883 3.81828C24.9289 4.53367 24.2135 4.98618 23.4938 4.82672C22.7784 4.66727 22.3259 3.95187 22.4853 3.23217C22.8948 1.4049 23.8903 0.232689 25.2047 0.0344468C25.8942 -0.0689836 27.2345 0.0215181 28.4671 1.81431C29.1911 2.86586 29.7212 4.29233 29.9539 5.84379C30.1909 7.39525 30.1133 8.91654 29.7384 10.1362C29.1006 12.2177 27.8465 12.7047 27.157 12.8124C27.088 12.821 27.0191 12.8253 26.9544 12.8253L26.963 12.8167L26.9716 12.821Z" fill="#2A353B"/>
<path d="M37.8921 12.821C37.2456 12.821 36.6767 12.347 36.5776 11.6962C36.4656 10.9679 36.9655 10.2913 37.6895 10.1792C37.9739 10.0413 38.6204 8.60624 38.2584 6.24889C37.905 3.94757 36.9008 2.77104 36.5388 2.67192C36.4483 2.74088 36.1854 3.04686 36.0088 3.81828C35.8493 4.53367 35.1339 4.98618 34.4142 4.82672C33.6988 4.66727 33.2463 3.95187 33.4058 3.23217C33.8152 1.4049 34.8107 0.232689 36.1251 0.0344468C36.8147 -0.0689836 38.1549 0.0215181 39.3875 1.81431C40.1115 2.86586 40.6416 4.29233 40.8743 5.84379C41.1113 7.39525 41.0338 8.91654 40.6588 10.1362C40.021 12.2177 38.7669 12.7047 38.0774 12.8124C38.0084 12.821 37.9395 12.8253 37.8748 12.8253L37.8834 12.8167L37.8921 12.821Z" fill="#2A353B"/>
<path d="M48.373 12.821C47.7266 12.821 47.1577 12.347 47.0586 11.6962C46.9465 10.9679 47.4464 10.2913 48.1705 10.1792C48.4549 10.0413 49.1013 8.60624 48.7393 6.24889C48.3859 3.94757 47.3818 2.77104 47.0198 2.67192C46.9293 2.73657 46.6664 3.04686 46.4897 3.81828C46.3303 4.53367 45.6149 4.98618 44.8952 4.82672C44.1798 4.66727 43.7273 3.95187 43.8867 3.23217C44.2961 1.4049 45.2916 0.232689 46.6061 0.0344468C47.2956 -0.0689836 48.6359 0.0215181 49.8684 1.81431C50.5925 2.86586 51.1182 4.29233 51.3553 5.84379C51.5923 7.39525 51.5147 8.91654 51.1398 10.1362C50.502 12.2177 49.2479 12.7047 48.5583 12.8124C48.4894 12.821 48.4204 12.8253 48.3558 12.8253L48.3644 12.8167L48.373 12.821Z" fill="#2A353B"/>
<path d="M23.7481 39.2475H22.4768C21.7398 39.2475 21.1494 38.6485 21.1494 37.9201C21.1494 37.1918 21.7484 36.5928 22.4768 36.5928H23.7481C24.485 36.5928 25.0755 37.1918 25.0755 37.9201C25.0755 38.6485 24.4764 39.2475 23.7481 39.2475Z" fill="#2A353B"/>
<path d="M22.7481 33.3608H21.4768C20.7398 33.3608 20.1494 32.7617 20.1494 32.0334C20.1494 31.3051 20.7484 30.7061 21.4768 30.7061H22.7481C23.485 30.7061 24.0755 31.3051 24.0755 32.0334C24.0755 32.7617 23.4764 33.3608 22.7481 33.3608Z" fill="#2A353B"/>
<path d="M21.7527 27.3703H20.4814C19.7445 27.3703 19.1541 26.7713 19.1541 26.0429C19.1541 25.3146 19.7531 24.7156 20.4814 24.7156H21.7527C22.4897 24.7156 23.0801 25.3146 23.0801 26.0429C23.0801 26.7713 22.4811 27.3703 21.7527 27.3703Z" fill="#2A353B"/>
<path d="M30.6563 39.2475H29.385C28.648 39.2475 28.0576 38.6485 28.0576 37.9201C28.0576 37.1918 28.6567 36.5928 29.385 36.5928H30.6563C31.3932 36.5928 31.9837 37.1918 31.9837 37.9201C31.9837 38.6485 31.3846 39.2475 30.6563 39.2475Z" fill="#2A353B"/>
<path d="M29.6607 33.3608H28.3894C27.6524 33.3608 27.062 32.7617 27.062 32.0334C27.062 31.3051 27.661 30.7061 28.3894 30.7061H29.6607C30.3976 30.7061 30.9881 31.3051 30.9881 32.0334C30.9881 32.7617 30.389 33.3608 29.6607 33.3608Z" fill="#2A353B"/>
<path d="M28.6609 27.3703H27.3896C26.6527 27.3703 26.0623 26.7713 26.0623 26.0429C26.0623 25.3146 26.6613 24.7156 27.3896 24.7156H28.6609C29.3979 24.7156 29.9883 25.3146 29.9883 26.0429C29.9883 26.7713 29.3893 27.3703 28.6609 27.3703Z" fill="#2A353B"/>
<path d="M27.493 21.3757H26.2216C25.4847 21.3757 24.8943 20.7766 24.8943 20.0483C24.8943 19.32 25.4933 18.7209 26.2216 18.7209H27.493C28.2299 18.7209 28.8203 19.32 28.8203 20.0483C28.8203 20.7766 28.2213 21.3757 27.493 21.3757Z" fill="#2A353B"/>
<path d="M37.5689 39.2475H36.2976C35.5606 39.2475 34.9702 38.6485 34.9702 37.9201C34.9702 37.1918 35.5693 36.5928 36.2976 36.5928H37.5689C38.3058 36.5928 38.8963 37.1918 38.8963 37.9201C38.8963 38.6485 38.2972 39.2475 37.5689 39.2475Z" fill="#2A353B"/>
<path d="M36.5691 33.3608H35.2978C34.5609 33.3608 33.9705 32.7617 33.9705 32.0334C33.9705 31.3051 34.5695 30.7061 35.2978 30.7061H36.5691C37.3061 30.7061 37.8965 31.3051 37.8965 32.0334C37.8965 32.7617 37.2975 33.3608 36.5691 33.3608Z" fill="#2A353B"/>
<path d="M35.5694 27.3703H34.2981C33.5611 27.3703 32.9707 26.7713 32.9707 26.0429C32.9707 25.3146 33.5697 24.7156 34.2981 24.7156H35.5694C36.3063 24.7156 36.8968 25.3146 36.8968 26.0429C36.8968 26.7713 36.2977 27.3703 35.5694 27.3703Z" fill="#2A353B"/>
<path d="M34.4056 21.3757H33.1342C32.3973 21.3757 31.8069 20.7766 31.8069 20.0483C31.8069 19.32 32.4059 18.7209 33.1342 18.7209H34.4056C35.1425 18.7209 35.7329 19.32 35.7329 20.0483C35.7329 20.7766 35.1339 21.3757 34.4056 21.3757Z" fill="#2A353B"/>
<path d="M44.4771 39.2475H43.2058C42.4688 39.2475 41.8784 38.6485 41.8784 37.9201C41.8784 37.1918 42.4775 36.5928 43.2058 36.5928H44.4771C45.214 36.5928 45.8045 37.1918 45.8045 37.9201C45.8045 38.6485 45.2054 39.2475 44.4771 39.2475Z" fill="#2A353B"/>
<path d="M43.4774 33.3608H42.206C41.4691 33.3608 40.8787 32.7617 40.8787 32.0334C40.8787 31.3051 41.4777 30.7061 42.206 30.7061H43.4774C44.2143 30.7061 44.8047 31.3051 44.8047 32.0334C44.8047 32.7617 44.2057 33.3608 43.4774 33.3608Z" fill="#2A353B"/>
<path d="M42.482 27.3703H41.2107C40.4737 27.3703 39.8833 26.7713 39.8833 26.0429C39.8833 25.3146 40.4823 24.7156 41.2107 24.7156H42.482C43.2189 24.7156 43.8093 25.3146 43.8093 26.0429C43.8093 26.7713 43.2103 27.3703 42.482 27.3703Z" fill="#2A353B"/>
<path d="M41.314 21.3757H40.0427C39.3057 21.3757 38.7153 20.7766 38.7153 20.0483C38.7153 19.32 39.3144 18.7209 40.0427 18.7209H41.314C42.051 18.7209 42.6414 19.32 42.6414 20.0483C42.6414 20.7766 42.0423 21.3757 41.314 21.3757Z" fill="#2A353B"/>
<path d="M50.3858 33.3608H49.1145C48.3775 33.3608 47.7871 32.7617 47.7871 32.0334C47.7871 31.3051 48.3861 30.7061 49.1145 30.7061H50.3858C51.1227 30.7061 51.7132 31.3051 51.7132 32.0334C51.7132 32.7617 51.1141 33.3608 50.3858 33.3608Z" fill="#2A353B"/>
<path d="M49.3902 27.3703H48.1189C47.3819 27.3703 46.7915 26.7713 46.7915 26.0429C46.7915 25.3146 47.3905 24.7156 48.1189 24.7156H49.3902C50.1271 24.7156 50.7176 25.3146 50.7176 26.0429C50.7176 26.7713 50.1185 27.3703 49.3902 27.3703Z" fill="#2A353B"/>
<path d="M48.2222 21.3757H46.9509C46.214 21.3757 45.6235 20.7766 45.6235 20.0483C45.6235 19.32 46.2226 18.7209 46.9509 18.7209H48.2222C48.9592 18.7209 49.5496 19.32 49.5496 20.0483C49.5496 20.7766 48.9505 21.3757 48.2222 21.3757Z" fill="#2A353B"/>
</g>
</g>
<defs>
<clipPath id="clip0_2050_23800">
<rect width="62.0453" height="50" fill="white" transform="translate(0.95459)"/>
</clipPath>
</defs>
</svg>
