<svg width="12" height="12" viewBox="0 0 12 12" fill="none" xmlns="http://www.w3.org/2000/svg">
<path d="M4.2501 9.00001H5.7501C5.8901 9.00001 5.97343 9.03668 6.0001 9.11001C6.02677 9.18334 5.99343 9.26668 5.9001 9.36001L3.6001 11.86C3.50677 11.96 3.3901 12.01 3.2501 12.01C3.1101 12.01 2.99343 11.96 2.9001 11.86L0.6001 9.36001C0.506767 9.26668 0.473433 9.18334 0.5001 9.11001C0.526766 9.03668 0.6101 9.00001 0.7501 9.00001H2.2501V1.00341e-05H4.2501V9.00001ZM9.6001 0.16001L11.9001 2.65001C11.9934 2.74334 12.0268 2.82501 12.0001 2.89501C11.9734 2.96501 11.8901 3.00001 11.7501 3.00001H10.2501V12H8.2501V3.00001H6.7501C6.6101 3.00001 6.52677 2.96501 6.5001 2.89501C6.47343 2.82501 6.50677 2.74334 6.6001 2.65001L8.9001 0.16001C8.99343 0.06001 9.1101 0.01001 9.2501 0.01001C9.3901 0.01001 9.50677 0.06001 9.6001 0.16001Z" fill="#006B00"/>
</svg>
