<svg width="11" height="10" viewBox="0 0 11 10" fill="none" xmlns="http://www.w3.org/2000/svg">
<g id="Group">
<path id="remove" d="M8.53961 0.169903L10.3196 1.9599C10.3729 2.01324 10.3996 2.0749 10.3996 2.1449C10.3996 2.2149 10.3729 2.27324 10.3196 2.3199L7.64961 4.9999L10.3196 7.6799C10.3729 7.72657 10.3996 7.7849 10.3996 7.8549C10.3996 7.9249 10.3729 7.98657 10.3196 8.0399L8.53961 9.8199C8.48628 9.87324 8.42461 9.8999 8.35461 9.8999C8.28461 9.8999 8.22627 9.87324 8.17961 9.8199L5.49961 7.1499L2.81961 9.8199C2.77294 9.87324 2.71461 9.8999 2.64461 9.8999C2.57461 9.8999 2.51294 9.87324 2.45961 9.8199L0.679609 8.0399C0.626276 7.98657 0.599609 7.9249 0.599609 7.8549C0.599609 7.7849 0.626276 7.72657 0.679609 7.6799L3.34961 4.9999L0.679609 2.3199C0.626276 2.27324 0.599609 2.2149 0.599609 2.1449C0.599609 2.0749 0.626276 2.01324 0.679609 1.9599L2.45961 0.179903C2.51294 0.126569 2.57461 0.0999022 2.64461 0.0999022C2.71461 0.0999022 2.77294 0.126569 2.81961 0.179903L5.49961 2.8499L8.17961 0.169903C8.22627 0.123236 8.28461 0.0999022 8.35461 0.0999022C8.42461 0.0999022 8.48628 0.123236 8.53961 0.169903Z" fill="#29353A"/>
</g>
</svg>
