<svg width="32" height="32" viewBox="0 0 32 32" fill="none" xmlns="http://www.w3.org/2000/svg">
<g id="Property 1=Carb Conscious" clip-path="url(#clip0_3903_741)">
<path id="Carb" fill-rule="evenodd" clip-rule="evenodd" d="M31.5898 8.41026C31.5898 10.2838 30.6598 11.9795 29.1282 13.0051L29.1145 12.9915L29.2786 17.2718C30.7009 18.8308 31.5761 20.9094 31.5761 23.1932C31.5761 28.0479 27.6239 32 22.7692 32C20.0205 32 17.559 30.7419 15.9453 28.759H5.60684C4.60855 28.759 3.69231 28.3761 2.99488 27.6513C2.29744 26.9402 1.94189 25.9966 1.98291 24.9983L2.46154 13.0051C0.929919 11.9932 4.90179e-06 10.2838 4.90179e-06 8.41026V8.15043L1.61468e-06 8.11862C-0.000101922 6.75103 -0.000259334 4.70443 1.72308 2.96752C3.70599 0.97094 7.43932 0 13.1282 0H18.4615C24.1504 0 27.8838 0.97094 29.8667 2.96752C31.5908 4.69163 31.5902 6.72087 31.5898 8.08826C31.5898 8.10914 31.5898 8.12986 31.5898 8.15043V8.41026ZM29.5795 8.09429C29.5797 6.88762 29.5798 5.52512 28.4445 4.38974H28.4581C27.5556 3.4735 26.0376 2.81709 23.9453 2.43419C24.1641 2.59829 24.3556 2.77607 24.547 2.96752C26.2711 4.69162 26.2705 6.72086 26.2701 8.08825C26.2701 8.10913 26.2701 8.12986 26.2701 8.15043V8.41026C26.2701 10.2838 25.3402 11.9795 23.8086 13.0051L23.8633 14.4684C25.0804 14.6188 26.2154 15.0154 27.2274 15.6034L27.1043 12.4855C27.0906 12.0889 27.2957 11.7197 27.6513 11.5419C28.841 10.9402 29.5795 9.73675 29.5795 8.41026V8.13675L29.5795 8.09429ZM5.62052 26.7624H14.7282H14.7556C14.2769 25.6684 14.0034 24.465 14.0034 23.2068C14.0034 18.6803 17.4496 14.9333 21.8667 14.4547L21.7846 12.4855C21.7709 12.0889 21.9761 11.7197 22.3316 11.5419C23.5214 10.9402 24.2598 9.73675 24.2598 8.41026V8.13675L24.2598 8.09429C24.26 6.88762 24.2602 5.52512 23.1248 4.38974C21.5521 2.81709 18.2017 2.01026 13.1419 2.01026C8.08206 2.01026 4.73163 2.81709 3.15898 4.38974C2.0236 5.52513 2.02378 6.88762 2.02393 8.09429C2.02393 8.10847 2.02394 8.12262 2.02394 8.13675V8.41026C2.02394 9.73675 2.7624 10.9402 3.95214 11.5419C4.29402 11.7197 4.51283 12.0889 4.49915 12.4855L4.00684 25.0803C3.99317 25.5316 4.15727 25.9556 4.45812 26.2701C4.75898 26.5846 5.18291 26.7624 5.62052 26.7624ZM22.7829 30.0034C26.5299 30.0034 29.5795 26.9538 29.5795 23.2068C29.5795 19.4598 26.5299 16.4103 22.7829 16.4103C19.0359 16.4103 15.9863 19.4598 15.9863 23.2068C15.9863 26.9538 19.0359 30.0034 22.7829 30.0034ZM23.795 25.2168L25.1488 23.863C25.5454 23.4664 26.1745 23.4664 26.571 23.863C26.9676 24.2596 26.9676 24.8886 26.571 25.2852L23.4941 28.3621C23.3027 28.5673 23.0428 28.663 22.783 28.663C22.5232 28.663 22.2633 28.5536 22.0719 28.3621L18.995 25.2852C18.5984 24.8886 18.5984 24.2596 18.995 23.863C19.3916 23.4664 20.0206 23.4664 20.4172 23.863L21.771 25.2168V19.7331C21.771 19.1724 22.2223 18.7211 22.783 18.7211C23.3437 18.7211 23.795 19.1724 23.795 19.7331V25.2168Z" fill="#016A95"/>
</g>
<defs>
<clipPath id="clip0_3903_741">
<rect width="31.5763" height="32" fill="white"/>
</clipPath>
</defs>
</svg>
