<svg width="32" height="32" viewBox="0 0 32 32" fill="none" xmlns="http://www.w3.org/2000/svg">
<g id="Layer_1">
<g id="Group">
<g id="Group_2">
<path id="Vector" d="M18.6692 6.72437H15.4692V14.9972H10.3964V6.72437H7.18164V24.8774H10.3964V17.9465H15.4692V24.8774H18.6692V6.72437Z" fill="#016A95"/>
<path id="Vector_2" d="M24.8185 6.72437H21.6038V24.8774H24.8185V6.72437Z" fill="#016A95"/>
</g>
<path id="Vector_3" d="M28.8 32H3.2C1.43041 32 0 30.5696 0 28.8V3.2C0 1.43041 1.43041 0 3.2 0H28.8C30.5696 0 32 1.43041 32 3.2V28.8C32 30.5696 30.5696 32 28.8 32ZM3.2 2.21198C2.65438 2.21198 2.21198 2.65438 2.21198 3.2V28.8C2.21198 29.3456 2.65438 29.788 3.2 29.788H28.8C29.3456 29.788 29.788 29.3456 29.788 28.8V3.2C29.788 2.65438 29.3456 2.21198 28.8 2.21198H3.2Z" fill="#016A95"/>
</g>
</g>
</svg>
