<svg width="18" height="18" viewBox="0 0 18 18" fill="none" xmlns="http://www.w3.org/2000/svg">
<path d="M7.48124 10.3838L13.905 3.96C13.965 3.9 14.0325 3.87 14.1075 3.87C14.1825 3.87 14.2462 3.9 14.2987 3.96L16.29 5.95125C16.35 6.00375 16.38 6.0675 16.38 6.1425C16.38 6.2175 16.35 6.285 16.29 6.345L7.48124 15.165C7.42874 15.225 7.36312 15.255 7.28437 15.255C7.20562 15.255 7.13999 15.225 7.08749 15.165L2.76749 10.845C2.70749 10.785 2.67749 10.7175 2.67749 10.6425C2.67749 10.5675 2.70749 10.5038 2.76749 10.4513L4.75874 8.46C4.81124 8.4 4.87499 8.37 4.94999 8.37C5.02499 8.37 5.09249 8.4 5.15249 8.46L7.07624 10.3838C7.12874 10.4363 7.19624 10.4625 7.27874 10.4625C7.36124 10.4625 7.42874 10.4363 7.48124 10.3838Z" fill="#ffffff"/>
</svg>
