
<svg width="24" height="25" viewBox="0 0 24 25" fill="none" xmlns="http://www.w3.org/2000/svg"><g clip-path="url(#clip0_448_31605)"><path d="M22.0508 0.189941H1.9492C0.872687 0.189941 0 1.06263 0 2.13914V22.2407C0 23.3173 0.872687 24.1899 1.9492 24.1899H22.0508C23.1273 24.1899 24 23.3173 24 22.2407V2.13914C24 1.06263 23.1273 0.189941 22.0508 0.189941Z" fill="#2D4995"></path> <path d="M21.6293 11.3508H19.3038L20.4778 10.1768C20.7864 9.8833 20.809 9.37154 20.5305 9.04792C20.5155 9.02535 20.5004 9.01029 20.4778 8.99524C20.1392 8.67163 19.6199 8.67163 19.2812 8.99524L16.9031 11.3508H15.3527C15.1947 10.7187 14.8711 10.1542 14.412 9.71773L15.1872 8.39317L18.4308 7.53522C18.5738 7.49759 18.7017 7.42234 18.8071 7.31697C19.0178 7.10625 19.1006 6.79769 19.0254 6.50418C18.8899 6.0451 18.4308 5.78922 17.9943 5.91716L16.3762 6.36871L17.5428 4.35931C17.761 3.97549 17.6481 3.47878 17.2869 3.23795L17.2342 3.21537C16.8353 2.98207 16.3236 3.11754 16.0827 3.52394L14.9162 5.52582L14.4797 3.92281C14.3443 3.46373 13.8852 3.20785 13.4487 3.33579C13.0272 3.41857 12.7563 3.84755 12.8391 4.29157C12.8391 4.2991 12.8391 4.30663 12.8391 4.31415V4.35178L13.7196 7.56533L12.9444 8.88988C12.6359 8.79957 12.3198 8.74689 12.0037 8.74689C11.6876 8.74689 11.3715 8.79957 11.063 8.88988L10.2878 7.56533L11.1608 4.35931C11.2737 3.91528 11.0178 3.46373 10.6039 3.34331H10.5663C10.1298 3.21537 9.67069 3.47878 9.53523 3.93033L9.09873 5.51829L7.92469 3.51641C7.67634 3.11001 7.1721 2.97455 6.77323 3.21537C6.39694 3.4261 6.25395 3.90775 6.44209 4.30663C6.44209 4.32168 6.45715 4.33673 6.46467 4.34425L7.63871 6.36871L6.02065 5.93221C5.58415 5.80427 5.12507 6.06015 4.9896 6.51923C4.87671 6.95573 5.11002 7.39976 5.52394 7.5277C5.54652 7.5277 5.56157 7.54275 5.58415 7.54275L8.83532 8.40823L9.61049 9.72525L9.57286 9.76288C9.13636 10.1919 8.8278 10.7488 8.67728 11.3508H7.12695L4.74877 9.00277C4.41011 8.67163 3.89082 8.67163 3.55216 9.00277C3.2436 9.29628 3.22102 9.80051 3.49948 10.1316C3.51453 10.1542 3.52958 10.1693 3.55216 10.1843L4.73372 11.3508H2.40823C1.97173 11.3132 1.58791 11.6594 1.55028 12.1185C1.51265 12.5776 1.84379 12.984 2.28029 13.0216H4.74877L3.55969 14.1881C3.25113 14.4816 3.22855 14.9934 3.50701 15.317L3.55969 15.3697C3.89835 15.6933 4.41764 15.6933 4.7563 15.3697L7.13447 13.0141H8.6848C8.84285 13.6462 9.16646 14.2107 9.62554 14.6472L8.85037 15.9642L5.59167 16.8146C5.17022 16.9049 4.89929 17.3264 4.98208 17.7704C4.98208 17.7704 4.98208 17.7704 4.98208 17.7779L4.99713 17.8381C5.13259 18.2972 5.59167 18.5606 6.02817 18.4252L7.64623 17.9962L6.47972 19.9981C6.26147 20.3894 6.38189 20.8861 6.75066 21.1194L6.78829 21.142C7.11942 21.3301 7.52582 21.2775 7.8118 21.0141C7.86448 20.9614 7.90964 20.9012 7.93974 20.841L9.11378 18.8391L9.55028 20.4346C9.68574 20.8936 10.1448 21.1495 10.5813 21.0216C10.7243 20.984 10.8523 20.9087 10.9576 20.8109C11.1683 20.6001 11.2511 20.2916 11.1759 19.9981L10.3029 16.7845L11.078 15.46C11.3866 15.5503 11.7027 15.603 12.0188 15.603C12.3349 15.603 12.6585 15.5503 12.9595 15.46L13.7347 16.7845L12.8617 19.9981C12.7488 20.4421 13.0047 20.8936 13.4261 21.0141H13.4562C13.8927 21.142 14.3518 20.8786 14.4873 20.427L14.9237 18.8316L16.0903 20.8334C16.3386 21.2398 16.8428 21.3753 17.2417 21.1345C17.6255 20.9313 17.7761 20.4346 17.5804 20.0357C17.5804 20.0206 17.5653 20.0131 17.5653 19.9981L16.3988 18.0037L18.0094 18.4327C18.3029 18.5155 18.6114 18.4327 18.8297 18.2144C18.935 18.1166 19.0103 17.9811 19.0479 17.8381C19.1608 17.3941 18.9049 16.935 18.4835 16.8221H18.4534L15.2022 15.9567L14.427 14.6396L14.4647 14.6095C14.9012 14.173 15.2097 13.6237 15.3678 13.0141H16.9181L19.2963 15.3697C19.6349 15.6933 20.1542 15.6933 20.4929 15.3697C20.8015 15.0761 20.824 14.5644 20.5456 14.2408C20.5305 14.2182 20.5155 14.2031 20.4929 14.1881L19.3113 13.0216H21.6368C21.8551 13.0216 22.0733 12.9388 22.2314 12.7808C22.3894 12.6302 22.4872 12.4195 22.4872 12.1937C22.4722 11.7196 22.0959 11.3433 21.6444 11.3584L21.6293 11.3508ZM10.2201 12.1862C10.2201 11.7121 10.4082 11.2605 10.7394 10.9369C11.0856 10.6058 11.5296 10.4176 12.0037 10.4252C12.9595 10.3951 13.7497 11.1853 13.7873 12.1862C13.7347 13.1796 12.952 13.9473 12.0037 13.9473C11.0555 13.9774 10.2577 13.1872 10.2276 12.1862H10.2201Z" fill="white"></path></g> <defs><clipPath id="clip0_448_31605"><rect width="24" height="24" fill="white" transform="translate(0 0.189941)"></rect></clipPath></defs></svg>